hkgrotesk_bold.sfdir
StartChar: exclam
Encoding: 33 33 2
Width: 268
GlyphClass: 2
Flags: MW
HStem: 0 129<69 199 69 199> 681 20G<75 193 193 193>
VStem: 69 130<0 129 0 129> 89 89
LayerCount: 2
Back
Fore
SplineSet
75 701 m 1xd0
 193 701 l 1
 179 209 l 1
 89 209 l 1
 75 701 l 1xd0
69 129 m 1xe0
 199 129 l 1
 199 0 l 1
 69 0 l 1
 69 129 l 1xe0
EndSplineSet
EndChar
StartChar: quotedbl
Encoding: 34 34 3
Width: 346
GlyphClass: 2
Flags: MW
HStem: 443 247<48 148 48 148 198 298 48 198>
VStem: 48 100<443 690 443 690> 198 100<443 690 443 690>
LayerCount: 2
Back
Fore
SplineSet
198 690 m 1
 298 690 l 1
 298 443 l 1
 198 443 l 1
 198 690 l 1
48 690 m 1
 148 690 l 1
 148 443 l 1
 48 443 l 1
 48 690 l 1
EndSplineSet
EndChar
StartChar: numbersign
Encoding: 35 35 4
Width: 722
GlyphClass: 2
Flags: MW
HStem: 0 21G<132 225 132 132 346 439 346 346> 202 84<62 176 62 194> 213 73<287 391> 414 73<313 453 331 435> 414 88<102 220 102 238 102 313 102 435> 680 20G<284 378 378 378 498 592 592 592>
LayerCount: 2
Back
Fore
SplineSet
194 286 m 1xa4
 220 414 l 1
 102 414 l 1
 102 502 l 1
 238 502 l 1xac
 284 700 l 1
 378 700 l 1
 331 487 l 1
 453 487 l 1x94
 498 700 l 1
 592 700 l 1
 546 498 l 1
 660 498 l 1
 660 414 l 1x8c
 528 414 l 1
 502 286 l 1
 620 286 l 1xd4
 620 198 l 1
 484 198 l 1
 439 0 l 1
 346 0 l 1
 391 213 l 1
 269 213 l 1xa4
 225 0 l 1
 132 0 l 1
 176 202 l 1
 62 202 l 1
 62 286 l 1xc4
 194 286 l 1xa4
409 286 m 1
 435 414 l 1
 313 414 l 1xb4
 287 286 l 1
 409 286 l 1
EndSplineSet
EndChar
StartChar: dollar
Encoding: 36 36 5
Width: 536
GlyphClass: 2
Flags: MW
HStem: -8 111<240.5 318> 593 177<247.5 294.5>
VStem: 61 123<458.5 541.5 458.5 564> 220 98<-80 -8 -80 -6 -80 -6 699 770> 393 123<164.5 262.5>
LayerCount: 2
Back
Fore
SplineSet
272 593 m 0
 223 593 184 563 184 520 c 0
 184 397 516 432 516 200 c 0
 516 83 428 5 318 -8 c 1
 318 -80 l 1
 220 -80 l 1
 220 -6 l 1
 120 12 33 77 15 188 c 1
 135 214 l 1
 144 139 203 103 278 103 c 0
 351 103 393 132 393 197 c 0
 393 328 61 294 61 515 c 0
 61 613 133 678 220 697 c 1
 220 770 l 1
 318 770 l 1
 318 699 l 1
 388 688 446 653 483 586 c 1
 383 527 l 1
 359 572 317 593 272 593 c 0
EndSplineSet
EndChar
StartChar: percent
Encoding: 37 37 6
Width: 746
GlyphClass: 2
Flags: MW
HStem: -5 84<560 591.5 560 625> 241 85<559.5 590.5> 375 84<155.5 187 155.5 221> 616 85<155 186.5>
VStem: 35 86<516.5 559.5 516.5 569.5> 221 88<517 559.5> 439 86<138 182.5 138 192> 625 88<139 183>
LayerCount: 2
Back
Fore
SplineSet
577 79 m 0
 606 79 625 117 625 161 c 0
 625 205 606 241 575 241 c 0
 544 241 525 205 525 160 c 0
 525 116 543 79 577 79 c 0
578 -5 m 0
 470 -5 439 97 439 160 c 0
 439 224 469 326 575 326 c 0
 672 326 713 236 713 160 c 0
 713 85 672 -5 578 -5 c 0
512 710 m 1
 615 710 l 1
 229 -10 l 1
 126 -10 l 1
 512 710 l 1
172 459 m 0
 202 459 221 496 221 538 c 0
 221 581 202 616 171 616 c 0
 139 616 121 581 121 538 c 0
 121 495 139 459 172 459 c 0
174 375 m 0
 66 375 35 475 35 538 c 0
 35 601 65 701 171 701 c 0
 267 701 309 612 309 537 c 0
 309 463 268 375 174 375 c 0
EndSplineSet
EndChar
StartChar: ampersand
Encoding: 38 38 7
Width: 601
GlyphClass: 2
Flags: MW
HStem: -11 101<217.5 278.5 217.5 288.5> 595 103<276.5 317.5>
VStem: 26 115<137.5 188 137.5 220> 104 115<515.5 552 515.5 585.5> 368 110<514 550.5>
LayerCount: 2
Back
Fore
SplineSet
390 144 m 1xe8
 257 299 l 1
 217 272 141 210 141 166 c 0
 141 109 185 90 250 90 c 0
 307 90 355 110 390 144 c 1xe8
368 533 m 0
 368 568 336 595 299 595 c 0
 254 595 219 572 219 532 c 0xd8
 219 499 259 446 279 424 c 1
 312 447 368 495 368 533 c 0
449 249 m 1
 463 284 468 340 468 340 c 1
 584 328 l 2
 584 327 570 230 534 157 c 1
 649 33 l 1
 561 -37 l 1
 466 69 l 1
 400 10 329 -11 248 -11 c 0
 134 -11 26 42 26 169 c 0xe8
 26 271 139 347 185 374 c 1
 155 405 104 463 104 533 c 0
 104 638 199 698 297 698 c 0
 395 698 478 629 478 533 c 0
 478 448 390 382 352 356 c 1
 449 249 l 1
EndSplineSet
EndChar
StartChar: quotesingle
Encoding: 39 39 8
Width: 170
GlyphClass: 2
Flags: MW
HStem: 457 247<35 135 35 135>
VStem: 35 100<457 704 457 704>
LayerCount: 2
Back
Fore
SplineSet
35 704 m 1
 135 704 l 1
 135 457 l 1
 35 457 l 1
 35 704 l 1
EndSplineSet
EndChar
StartChar: parenleft
Encoding: 40 40 9
Width: 302
GlyphClass: 2
Flags: MW
VStem: 42 100<154.5 373.5 154.5 391>
LayerCount: 2
Back
Fore
SplineSet
173 -197 m 2
 151 -168 42 10 42 264 c 0
 42 518 152 698 173 726 c 2
 182 736 l 1
 261 675 l 1
 253 666 l 2
 237 644 142 483 142 264 c 0
 142 45 237 -115 253 -137 c 2
 261 -146 l 1
 182 -207 l 1
 173 -197 l 2
EndSplineSet
EndChar
StartChar: parenright
Encoding: 41 41 10
Width: 302
GlyphClass: 2
Flags: MW
VStem: 160 100<154.5 374>
LayerCount: 2
Back
Fore
SplineSet
49 -137 m 2
 66 -114 160 45 160 264 c 0
 160 484 65 644 49 666 c 2
 41 675 l 1
 120 736 l 1
 129 726 l 2
 151 697 260 518 260 264 c 0
 260 10 150 -169 129 -197 c 2
 120 -207 l 1
 41 -146 l 1
 49 -137 l 2
EndSplineSet
EndChar
StartChar: asterisk
Encoding: 42 42 11
Width: 380
GlyphClass: 2
Flags: MW
HStem: 407 283<131 233 138 239>
VStem: 20 330<550 550>
LayerCount: 2
Back
Fore
SplineSet
239 407 m 1
 185 509 l 1
 131 407 l 1
 54 457 l 1
 131 535 l 1
 20 550 l 1
 50 632 l 1
 152 592 l 1
 138 690 l 1
 233 690 l 1
 219 592 l 1
 321 632 l 1
 350 550 l 1
 239 535 l 1
 316 457 l 1
 239 407 l 1
EndSplineSet
EndChar
StartChar: plus
Encoding: 43 43 12
Width: 646
GlyphClass: 2
Flags: MW
HStem: 260 90<55 278 55 278 368 591>
VStem: 278 90<52 260 52 260 350 558>
LayerCount: 2
Back
Fore
SplineSet
368 350 m 1
 591 350 l 1
 591 260 l 1
 368 260 l 1
 368 52 l 1
 278 52 l 1
 278 260 l 1
 55 260 l 1
 55 350 l 1
 278 350 l 1
 278 558 l 1
 368 558 l 1
 368 350 l 1
EndSplineSet
EndChar
StartChar: comma
Encoding: 44 44 13
Width: 225
GlyphClass: 2
Flags: MW
HStem: -60 189<79 89 10 216>
VStem: 10 207
LayerCount: 2
Back
Fore
SplineSet
79 129 m 1
 216 129 l 1
 89 -60 l 1
 10 -60 l 1
 79 129 l 1
EndSplineSet
EndChar
StartChar: hyphen
Encoding: 45 45 14
Width: 435
GlyphClass: 2
Flags: MW
HStem: 260 90<75 360 75 360>
VStem: 75 285<260 350 260 350>
LayerCount: 2
Back
Fore
SplineSet
75 350 m 1
 360 350 l 1
 360 260 l 1
 75 260 l 1
 75 350 l 1
EndSplineSet
EndChar
StartChar: period
Encoding: 46 46 15
Width: 202
GlyphClass: 2
Flags: MW
HStem: 0 129<41 161 41 161>
VStem: 41 120<0 129 0 129>
LayerCount: 2
Back
Fore
SplineSet
41 129 m 1
 161 129 l 1
 161 0 l 1
 41 0 l 1
 41 129 l 1
EndSplineSet
EndChar
StartChar: slash
Encoding: 47 47 16
Width: 460
GlyphClass: 2
Flags: W
LayerCount: 2
Back
Fore
SplineSet
-16 -210 m 1
 365 740 l 1
 476 740 l 1
 95 -210 l 1
 -16 -210 l 1
EndSplineSet
EndChar
StartChar: zero
Encoding: 48 48 17
Width: 586
GlyphClass: 2
Flags: MW
HStem: -10 117<241 349.5 241 392.5> 582 119<239 347>
VStem: 20 122<290 400.5 290 418.5> 444 128<292 401.5>
LayerCount: 2
Back
Fore
SplineSet
444 346 m 0
 444 457 401 582 293 582 c 0
 185 582 142 456 142 345 c 0
 142 235 185 107 297 107 c 0
 402 107 444 238 444 346 c 0
20 345 m 0
 20 492 84 701 293 701 c 0
 483 701 572 516 572 344 c 0
 572 173 485 -10 300 -10 c 0
 86 -10 20 199 20 345 c 0
EndSplineSet
EndChar
StartChar: one
Encoding: 49 49 18
Width: 382
GlyphClass: 2
Flags: MW
HStem: 0 21G<180 302 180 180> 494 102 670 20G<185 302 302 302>
VStem: 180 122<0 494 494 494>
LayerCount: 2
Back
Fore
SplineSet
7 597 m 1
 111 597 l 2
 157 597 185 623 185 671 c 2
 185 690 l 1
 302 690 l 1
 302 0 l 1
 180 0 l 1
 180 494 l 1
 7 494 l 1
 7 597 l 1
EndSplineSet
EndChar
StartChar: two
Encoding: 50 50 19
Width: 558
GlyphClass: 2
Flags: MW
HStem: 0 112<219 538 219 538> 588 111<238.5 315.5>
VStem: 42 121<439 511> 380 124<411 514.5>
LayerCount: 2
Back
Fore
SplineSet
504 491 m 0
 504 331 308 167 219 112 c 1
 538 112 l 1
 538 0 l 1
 15 0 l 1
 15 98 l 1
 16 99 l 2
 23 103 380 313 380 482 c 0
 380 547 351 588 280 588 c 0
 197 588 166 514 163 439 c 1
 42 447 l 1
 42 575 132 699 279 699 c 0
 409 699 504 616 504 491 c 0
EndSplineSet
EndChar
StartChar: three
Encoding: 51 51 20
Width: 556
GlyphClass: 2
Flags: MW
HStem: -10 114<227.5 303 227.5 334> 311 110<205 275 205 275> 585 115<234 293>
VStem: 10 118<186.5 218> 43 117<487 560> 366 119<484.5 528> 404 118<175 206 133.5 243>
LayerCount: 2
Back
Fore
SplineSet
264 700 m 0xec
 379 700 485 631 485 511 c 0xec
 485 458 462 408 425 375 c 1
 492 338 520 275 522 206 c 0
 522 61 402 -10 266 -10 c 0
 130 -10 10 65 10 218 c 1
 128 225 l 1
 128 148 189 104 266 104 c 0
 340 104 404 141 404 209 c 0xf2
 404 277 349 311 275 311 c 2
 205 311 l 1
 205 421 l 1
 275 421 l 2
 332 421 366 450 366 502 c 0
 366 554 322 585 264 585 c 0
 204 585 161 548 160 487 c 1
 43 495 l 1
 43 625 145 700 264 700 c 0xec
EndSplineSet
EndChar
StartChar: four
Encoding: 52 52 21
Width: 566
GlyphClass: 2
Flags: MW
HStem: 0 21G<324 446 324 324> 162 113<164 324 164 324 446 556> 670 20G<342 446 446 446>
VStem: 324 122<0 162 0 162 275 500 500 500>
LayerCount: 2
Back
Fore
SplineSet
324 275 m 1
 324 500 l 1
 164 275 l 1
 324 275 l 1
446 690 m 1
 446 275 l 1
 556 275 l 1
 556 162 l 1
 446 162 l 1
 446 0 l 1
 324 0 l 1
 324 162 l 1
 5 162 l 1
 5 234 l 1
 342 690 l 1
 446 690 l 1
EndSplineSet
EndChar
StartChar: five
Encoding: 53 53 22
Width: 561
GlyphClass: 2
Flags: MW
HStem: -10 112<246 325.5 246 357> 363 111<288.5 328.5> 576 114<224 510 224 224>
VStem: 415 126<202.5 270>
LayerCount: 2
Back
Fore
SplineSet
199 447 m 1
 237 467 271 474 306 474 c 0
 435 474 541 366 541 235 c 0
 541 104 426 -10 288 -10 c 0
 164 -10 64 84 39 200 c 1
 154 232 l 1
 167 169 204 102 288 102 c 0
 363 102 415 169 415 236 c 0
 415 304 369 363 288 363 c 0
 243 363 196 339 171 299 c 1
 59 327 l 1
 126 690 l 1
 510 690 l 1
 510 576 l 1
 224 576 l 1
 199 447 l 1
EndSplineSet
EndChar
StartChar: six
Encoding: 54 54 23
Width: 572
GlyphClass: 2
Flags: MW
HStem: -10 116<265 336.5 265 373> 356 107<286 301 301 336.5> 670 20G<293 435 435 435>
VStem: 49 121<196.5 251> 431 121<196.5 265.5>
LayerCount: 2
Back
Fore
SplineSet
49 228 m 0
 49 274 62 315 86 350 c 2
 293 690 l 1
 435 690 l 1
 286 463 l 1
 292 463 295 463 301 463 c 0
 438 463 552 366 552 232 c 0
 552 104 446 -10 300 -10 c 0
 161 -10 49 96 49 228 c 0
301 356 m 0
 229 356 170 300 170 231 c 0
 170 162 229 106 301 106 c 0
 372 106 431 162 431 231 c 0
 431 300 372 356 301 356 c 0
EndSplineSet
EndChar
StartChar: seven
Encoding: 55 55 24
Width: 518
GlyphClass: 2
Flags: MW
HStem: 0 21G<65 202 65 65> 577 113<10 508 10 358>
LayerCount: 2
Back
Fore
SplineSet
10 577 m 1
 10 690 l 1
 508 690 l 1
 508 627 l 1
 202 0 l 1
 65 0 l 1
 358 577 l 1
 10 577 l 1
EndSplineSet
EndChar
StartChar: eight
Encoding: 56 56 25
Width: 580
GlyphClass: 2
Flags: MW
HStem: -10 111<253 325.5 253 355> 314 105<261.5 321 261.5 327> 587 113<264.5 320>
VStem: 35 121<173 237.5> 70 122<485 532.5 481 572> 392 118<484.5 529> 422 123<173 237 128.5 242.5>
LayerCount: 2
Back
Fore
SplineSet
156 208 m 0xf2
 156 138 217 101 289 101 c 0
 362 101 422 138 422 208 c 0
 422 277 365 314 289 314 c 0
 212 314 156 277 156 208 c 0xf2
292 419 m 0
 350 419 392 451 392 502 c 0
 392 556 349 587 291 587 c 0
 238 587 192 557 192 508 c 0xec
 192 454 231 419 292 419 c 0
510 512 m 0
 510 457 485 407 445 373 c 1
 510 335 545 274 545 200 c 0
 545 57 421 -10 289 -10 c 0
 158 -10 35 58 35 200 c 0xf2
 35 275 74 337 135 373 c 1
 92 409 70 458 70 512 c 0
 70 632 176 700 290 700 c 0
 404 700 510 632 510 512 c 0
EndSplineSet
EndChar
StartChar: nine
Encoding: 57 57 26
Width: 566
GlyphClass: 2
Flags: MW
HStem: 0 21G<142 284 142 142> 227 107<240.5 279 276 291> 584 116<240.5 312>
VStem: 25 121<424.5 493.5 424.5 522> 407 121<439 493.5>
LayerCount: 2
Back
Fore
SplineSet
528 462 m 0
 528 416 515 375 491 340 c 2
 284 0 l 1
 142 0 l 1
 291 227 l 1
 285 227 282 227 276 227 c 0
 139 227 25 324 25 458 c 0
 25 586 131 700 277 700 c 0
 416 700 528 594 528 462 c 0
276 334 m 0
 348 334 407 390 407 459 c 0
 407 528 348 584 276 584 c 0
 205 584 146 528 146 459 c 0
 146 390 205 334 276 334 c 0
EndSplineSet
EndChar
StartChar: colon
Encoding: 58 58 27
Width: 200
GlyphClass: 2
Flags: MW
HStem: 0 129<35 165 35 165> 337 129<35 165 35 165>
VStem: 35 130<0 129 0 129 337 466>
LayerCount: 2
Back
Fore
SplineSet
35 129 m 1
 165 129 l 1
 165 0 l 1
 35 0 l 1
 35 129 l 1
35 466 m 1
 165 466 l 1
 165 337 l 1
 35 337 l 1
 35 466 l 1
EndSplineSet
EndChar
StartChar: semicolon
Encoding: 59 59 28
Width: 240
GlyphClass: 2
Flags: MW
HStem: 337 129<75 205 75 205>
VStem: 75 130<337 466 337 466>
LayerCount: 2
Back
Fore
SplineSet
79 159 m 1
 216 159 l 1
 89 -60 l 1
 10 -60 l 1
 79 159 l 1
75 466 m 1
 205 466 l 1
 205 337 l 1
 75 337 l 1
 75 466 l 1
EndSplineSet
EndChar
StartChar: less
Encoding: 60 60 29
Width: 603
GlyphClass: 2
Flags: W
LayerCount: 2
Back
Fore
SplineSet
559 497 m 1
 221 329 l 1
 559 161 l 1
 509 74 l 1
 28 329 l 1
 509 584 l 1
 559 497 l 1
EndSplineSet
EndChar
StartChar: equal
Encoding: 61 61 30
Width: 535
GlyphClass: 2
Flags: MW
HStem: 188 101<65 470 65 470> 367 101<65 470 65 470>
LayerCount: 2
Back
Fore
SplineSet
65 367 m 1
 65 468 l 1
 470 468 l 1
 470 367 l 1
 65 367 l 1
65 188 m 1
 65 289 l 1
 470 289 l 1
 470 188 l 1
 65 188 l 1
EndSplineSet
EndChar
StartChar: greater
Encoding: 62 62 31
Width: 603
GlyphClass: 2
Flags: W
LayerCount: 2
Back
Fore
SplineSet
44 497 m 1
 94 584 l 1
 575 329 l 1
 94 74 l 1
 44 161 l 1
 382 329 l 1
 44 497 l 1
EndSplineSet
EndChar
StartChar: question
Encoding: 63 63 32
Width: 504
GlyphClass: 2
Flags: MW
HStem: 0 129<189 319 189 319> 601 99<248 285.5>
VStem: 35 105<484 499 484 562> 189 130<0 129 0 129> 202 101<207 277 207 278 207 358.5> 365 104<449 539.5>
LayerCount: 2
Back
Fore
SplineSet
35 484 m 1xec
 35 499 l 2
 35 625 132 699 248 700 c 0
 366 700 469 633 469 505 c 0
 469 326 303 345 303 277 c 2
 303 207 l 1
 202 207 l 1
 202 278 l 2
 202 439 365 391 365 507 c 0
 365 572 319 601 252 601 c 0
 188 601 140 566 140 499 c 2
 140 484 l 1
 35 484 l 1xec
189 129 m 1xf4
 319 129 l 1
 319 0 l 1
 189 0 l 1
 189 129 l 1xf4
EndSplineSet
EndChar
StartChar: at
Encoding: 64 64 33
Width: 978
GlyphClass: 2
Flags: MW
HStem: -170 96<397 512.5 397 518> -37 97<692 756.5 692 787> 21 95<409.5 455.5> 423 95<464 531.5 427.5 545> 474 20G<639 735 735 735> 608 91<397 589>
VStem: 49 93<173.5 360.5 173.5 384.5> 266 90<181.5 258 181.5 280> 844 93<218.5 357.5>
LayerCount: 2
Back
Fore
SplineSet
438 116 m 0xb780
 542 116 598 234 598 330 c 0
 598 387 574 423 516 423 c 0
 412 423 356 306 356 210 c 0
 356 153 381 116 438 116 c 0xb780
493 699 m 0
 739 699 937 502 937 260 c 0
 937 123 871 -37 703 -37 c 0xcf80
 629 -37 578 11 573 78 c 1
 533 41 482 21 429 21 c 0
 319 21 266 116 266 213 c 0
 266 347 348 518 507 518 c 0xb780
 556 518 605 494 630 452 c 1
 639 494 l 1
 735 494 l 1
 733 482 l 2
 709 357 661 226 661 102 c 0
 661 74 678 60 706 60 c 0xcf80
 807 60 844 174 844 263 c 0
 844 452 685 608 493 608 c 0
 301 608 142 454 142 267 c 0
 142 80 301 -74 493 -74 c 0
 532 -74 570 -67 607 -55 c 1
 640 -144 l 1
 593 -161 543 -170 493 -170 c 0
 247 -170 49 26 49 265 c 0
 49 504 248 699 493 699 c 0
EndSplineSet
EndChar
StartChar: B
Encoding: 66 66 35
Width: 596
GlyphClass: 2
Flags: MW
HStem: 0 118<204 349> 305 107<204 331 331 346 204 331> 578 112<204 319 319 321 204 204>
VStem: 81 123<118 118 118 305 412 578> 426 114<471.5 523> 452 122<181.5 234.5 136 238.5>
LayerCount: 2
Back
Fore
SplineSet
204 118 m 1xf4
 351 118 l 2
 415 118 452 149 452 214 c 0
 452 263 411 305 346 305 c 2
 204 305 l 1
 204 118 l 1xf4
204 412 m 1
 331 412 l 2
 379 412 426 428 426 496 c 0xf8
 426 550 380 578 321 578 c 2
 204 578 l 1
 204 412 l 1
540 503 m 0
 540 440 502 390 463 369 c 1
 526 344 574 269 574 200 c 0xf4
 574 72 466 0 349 0 c 2
 81 0 l 1
 81 690 l 1
 319 690 l 2
 423 690 540 641 540 503 c 0
EndSplineSet
EndChar
StartChar: D
Encoding: 68 68 37
Width: 675
GlyphClass: 2
Flags: MW
HStem: 0 114<198 260 260 272> 576 114<198 272 198 198>
VStem: 74 124<114 576 114 690 114 690> 508 124<259 426.5>
LayerCount: 2
Back
Fore
SplineSet
508 345 m 0
 508 508 442 576 272 576 c 2
 198 576 l 1
 198 114 l 1
 260 114 l 2
 412 114 508 173 508 345 c 0
74 0 m 1
 74 690 l 1
 274 690 l 2
 508 690 632 563 632 340 c 0
 632 125 505 0 272 0 c 2
 74 0 l 1
EndSplineSet
EndChar
StartChar: F
Encoding: 70 70 39
Width: 561
GlyphClass: 2
Flags: MW
HStem: 0 21G<79 79 79 203> 288 114<203 525 203 525> 576 114<203 568 203 203>
VStem: 79 124<0 288 402 576>
LayerCount: 2
Back
Fore
SplineSet
79 0 m 1
 79 690 l 1
 568 690 l 1
 568 576 l 1
 203 576 l 1
 203 402 l 1
 525 402 l 1
 525 288 l 1
 203 288 l 1
 203 0 l 1
 79 0 l 1
EndSplineSet
EndChar
StartChar: G
Encoding: 71 71 40
Width: 752
GlyphClass: 2
Flags: MW
HStem: -10 111<304 424> 0 21G<593 691 593 593> 273 100<414 691 414 571> 593 108<303 420>
VStem: 44 123<281.5 414 281.5 439.5> 593 98<0 373>
LayerCount: 2
Back
Fore
SplineSet
414 273 m 1xbc
 414 373 l 1
 691 373 l 1
 691 0 l 1
 593 0 l 1x7c
 582 97 l 1
 536 33 470 -10 378 -10 c 0
 151 -10 44 156 44 345 c 0
 44 534 149 701 377 701 c 0
 513 701 622 632 678 503 c 1
 568 457 l 1
 536 551 464 593 376 593 c 0
 230 593 167 478 167 350 c 0
 167 213 230 101 378 101 c 0
 477 101 557 168 571 273 c 1
 414 273 l 1xbc
EndSplineSet
EndChar
StartChar: H
Encoding: 72 72 41
Width: 703
GlyphClass: 2
Flags: MW
HStem: 0 21G<79 203 79 79 505 629 505 505> 288 114<203 505 203 505> 670 20G<79 203 203 203 505 629 629 629>
VStem: 79 124<0 288 0 402 402 690> 505 124<0 288 288 288 402 690 0 690>
LayerCount: 2
Back
Fore
SplineSet
505 402 m 1
 505 690 l 1
 629 690 l 1
 629 0 l 1
 505 0 l 1
 505 288 l 1
 203 288 l 1
 203 0 l 1
 79 0 l 1
 79 690 l 1
 203 690 l 1
 203 402 l 1
 505 402 l 1
EndSplineSet
EndChar
StartChar: I
Encoding: 73 73 42
Width: 277
GlyphClass: 2
Flags: MW
HStem: 0 21G<79 79 79 203> 670 20G<79 203 203 203>
VStem: 79 124<0 690 0 690>
LayerCount: 2
Back
Fore
SplineSet
79 0 m 1
 79 690 l 1
 203 690 l 1
 203 0 l 1
 79 0 l 1
EndSplineSet
EndChar
StartChar: J
Encoding: 74 74 43
Width: 517
GlyphClass: 2
Flags: MW
HStem: -10 115<190 272 190 311> 576 114<76 337 76 460>
VStem: -6 122<215 229> 337 123<247 249 249 576 576 576>
LayerCount: 2
Back
Fore
SplineSet
227 105 m 0
 317 105 337 157 337 247 c 2
 337 576 l 1
 76 576 l 1
 76 690 l 1
 460 690 l 1
 460 249 l 2
 460 102 395 -10 227 -10 c 0
 86 -10 2 93 -6 215 c 1
 116 229 l 1
 120 161 153 105 227 105 c 0
EndSplineSet
EndChar
StartChar: K
Encoding: 75 75 44
Width: 673
GlyphClass: 2
Flags: MW
HStem: 0 21G<80 203 80 80 551 700 551 551> 670 20G<80 203 203 203 549 715 715 715>
VStem: 80 123<0 179 330 690>
LayerCount: 2
Back
Fore
SplineSet
203 690 m 1
 203 330 l 1
 549 690 l 1
 715 690 l 1
 432 405 l 1
 700 0 l 1
 551 0 l 1
 346 322 l 1
 203 179 l 1
 203 0 l 1
 80 0 l 1
 80 690 l 1
 203 690 l 1
EndSplineSet
EndChar
StartChar: L
Encoding: 76 76 45
Width: 504
GlyphClass: 2
Flags: MW
HStem: 0 117<203 498 203 498> 670 20G<79 203 203 203>
VStem: 79 124<117 690 117 690 117 690>
LayerCount: 2
Back
Fore
SplineSet
203 690 m 1
 203 117 l 1
 498 117 l 1
 498 0 l 1
 79 0 l 1
 79 690 l 1
 203 690 l 1
EndSplineSet
EndChar
StartChar: M
Encoding: 77 77 46
Width: 853
GlyphClass: 2
Flags: MW
HStem: 0 21G<79 198 79 79 660 779 660 660> 670 20G<79 246 246 246 612 779 779 779>
VStem: 79 119<0 515 0 690> 660 119<0 515 515 515>
LayerCount: 2
Back
Fore
SplineSet
429 199 m 1
 612 690 l 1
 779 690 l 1
 779 0 l 1
 660 0 l 1
 660 515 l 1
 489 60 l 1
 369 60 l 1
 198 515 l 1
 198 0 l 1
 79 0 l 1
 79 690 l 1
 246 690 l 1
 429 199 l 1
EndSplineSet
EndChar
StartChar: P
Encoding: 80 80 49
Width: 545
GlyphClass: 2
Flags: MW
HStem: 0 21G<79 202 79 79> 287 116<202 295 202 295> 574 116<202 295 202 202>
VStem: 79 123<0 287 0 403 403 574> 416 123<459.5 514.5>
LayerCount: 2
Back
Fore
SplineSet
202 403 m 1
 295 403 l 2
 380 403 416 432 416 487 c 0
 416 542 379 574 295 574 c 2
 202 574 l 1
 202 403 l 1
79 690 m 1
 295 690 l 2
 436 690 539 616 539 487 c 0
 539 358 436 287 295 287 c 2
 202 287 l 1
 202 0 l 1
 79 0 l 1
 79 690 l 1
EndSplineSet
EndChar
StartChar: Q
Encoding: 81 81 50
Width: 746
GlyphClass: 2
Flags: MW
HStem: -10 117<301 394.5 301 411.5> 583 117<301 449>
VStem: 42 124<280 410 280 439> 584 124<318 410>
LayerCount: 2
Back
Fore
SplineSet
739 17 m 1
 659 -58 l 1
 560 41 l 1
 510 8 448 -10 375 -10 c 0
 147 -10 42 157 42 345 c 0
 42 533 147 700 375 700 c 0
 603 700 708 532 708 344 c 0
 708 256 684 172 640 111 c 1
 739 17 l 1
458 286 m 1
 550 201 l 1
 574 244 584 291 584 345 c 0
 584 475 523 583 375 583 c 0
 227 583 166 475 166 345 c 0
 166 215 227 107 375 107 c 0
 414 107 447 115 472 127 c 1
 378 213 l 1
 458 286 l 1
EndSplineSet
EndChar
StartChar: T
Encoding: 84 84 53
Width: 566
GlyphClass: 2
Flags: MW
HStem: 0 21G<221 345 221 221> 579 111<5 561 5 221 345 345 345 561>
VStem: 221 124<0 579 0 579>
LayerCount: 2
Back
Fore
SplineSet
5 579 m 1
 5 690 l 1
 561 690 l 1
 561 579 l 1
 345 579 l 1
 345 0 l 1
 221 0 l 1
 221 579 l 1
 5 579 l 1
EndSplineSet
EndChar
StartChar: V
Encoding: 86 86 55
Width: 635
GlyphClass: 2
Flags: MW
HStem: 0 21G<272 365 272 272> 670 20G<-4 133 133 133 504 640 640 640>
LayerCount: 2
Back
Fore
SplineSet
133 690 m 1
 319 201 l 1
 504 690 l 1
 640 690 l 1
 365 0 l 1
 272 0 l 1
 -4 690 l 1
 133 690 l 1
EndSplineSet
EndChar
StartChar: W
Encoding: 87 87 56
Width: 930
GlyphClass: 2
Flags: MW
HStem: 0 21G<195 315 195 195 615 734 615 615> 670 20G<-12 117 117 117 813 942 942 942>
LayerCount: 2
Back
Fore
SplineSet
513 630 m 1
 666 182 l 1
 813 690 l 1
 942 690 l 1
 734 0 l 1
 615 0 l 1
 465 434 l 1
 315 0 l 1
 195 0 l 1
 -12 690 l 1
 117 690 l 1
 264 182 l 1
 417 630 l 1
 513 630 l 1
EndSplineSet
EndChar
StartChar: X
Encoding: 88 88 57
Width: 607
GlyphClass: 2
Flags: MW
HStem: 0 21G<-13 135 -13 -13 471 620 471 471> 670 20G<-12 136 136 136 470 619 619 619>
LayerCount: 2
Back
Fore
SplineSet
470 690 m 1
 619 690 l 1
 388 345 l 1
 620 0 l 1
 471 0 l 1
 302 262 l 1
 135 0 l 1
 -13 0 l 1
 218 345 l 1
 -12 690 l 1
 136 690 l 1
 303 424 l 1
 470 690 l 1
EndSplineSet
EndChar
StartChar: Y
Encoding: 89 89 58
Width: 630
GlyphClass: 2
Flags: MW
HStem: 0 21G<254 376 254 254> 670 20G<-28 118 118 118 512 657 657 657>
VStem: 254 122<0 269 0 269>
LayerCount: 2
Back
Fore
SplineSet
118 690 m 1
 315 382 l 1
 512 690 l 1
 657 690 l 1
 376 269 l 1
 376 0 l 1
 254 0 l 1
 254 269 l 1
 -28 690 l 1
 118 690 l 1
EndSplineSet
EndChar
StartChar: Z
Encoding: 90 90 59
Width: 610
GlyphClass: 2
Flags: MW
HStem: 0 112<199 582 199 582> 576 114<48 411 48 582>
LayerCount: 2
Back
Fore
SplineSet
582 600 m 1
 199 112 l 1
 582 112 l 1
 582 0 l 1
 26 0 l 1
 26 86 l 1
 411 576 l 1
 48 576 l 1
 48 690 l 1
 582 690 l 1
 582 600 l 1
EndSplineSet
EndChar
StartChar: bracketleft
Encoding: 91 91 60
Width: 333
GlyphClass: 2
Flags: MW
HStem: -220 100<158 274 158 274> 640 100<158 158 158 274>
VStem: 58 100<-120 640 -120 740> 58 216<-220 -120 640 740>
LayerCount: 2
Back
Fore
SplineSet
158 640 m 1xe0
 158 -120 l 1xe0
 274 -120 l 1
 274 -220 l 1
 58 -220 l 1
 58 740 l 1
 274 740 l 1
 274 640 l 1xd0
 158 640 l 1xe0
EndSplineSet
EndChar
StartChar: backslash
Encoding: 92 92 61
Width: 254
GlyphClass: 2
Flags: MW
HStem: 670 20G<-93 18 18 18>
LayerCount: 2
Back
Fore
SplineSet
-93 690 m 1
 18 690 l 1
 347 -210 l 1
 236 -210 l 1
 -93 690 l 1
EndSplineSet
EndChar
StartChar: bracketright
Encoding: 93 93 62
Width: 333
GlyphClass: 2
Flags: MW
HStem: -220 100<58 174 58 274 58 174> 640 100<58 174 58 274>
VStem: 58 216<-220 -120 -120 -120 640 740> 174 100<-120 640 640 640>
LayerCount: 2
Back
Fore
SplineSet
274 -220 m 1xe0
 58 -220 l 1
 58 -120 l 1xe0
 174 -120 l 1
 174 640 l 1xd0
 58 640 l 1
 58 740 l 1
 274 740 l 1
 274 -220 l 1xe0
EndSplineSet
EndChar
StartChar: asciicircum
Encoding: 94 94 63
Width: 578
GlyphClass: 2
Flags: W
LayerCount: 2
Back
Fore
SplineSet
380 393 m 1
 289 540 l 1
 199 393 l 1
 81 393 l 1
 289 731 l 1
 498 393 l 1
 380 393 l 1
EndSplineSet
EndChar
StartChar: underscore
Encoding: 95 95 64
Width: 485
GlyphClass: 2
Flags: MW
HStem: -90 90<35 450 35 450>
LayerCount: 2
Back
Fore
SplineSet
35 0 m 1
 450 0 l 1
 450 -90 l 1
 35 -90 l 1
 35 0 l 1
EndSplineSet
EndChar
StartChar: grave
Encoding: 96 96 65
Width: 200
GlyphClass: 2
Flags: MW
HStem: 529 161<-22 128 -22 215>
VStem: -22 237<529 690>
LayerCount: 2
Back
Fore
SplineSet
128 529 m 1
 -22 690 l 1
 105 690 l 1
 215 529 l 1
 128 529 l 1
EndSplineSet
EndChar
StartChar: b
Encoding: 98 98 67
Width: 577
GlyphClass: 2
Flags: MW
HStem: -10 110<315.5 351 271.5 408> 0 21G<78 201 78 78> 390 108<316 351> 670 20G<78 201 201 201>
VStem: 78 123<0 49 439 690> 429 121<203 284.5>
LayerCount: 2
Back
Fore
SplineSet
342 -10 m 0xbc
 289 -10 236 7 201 49 c 1
 201 0 l 1
 78 0 l 1x7c
 78 690 l 1
 201 690 l 1
 201 439 l 1
 238 484 290 498 342 498 c 0
 474 498 550 379 550 244 c 0
 550 109 474 -10 342 -10 c 0xbc
311 390 m 0
 232 390 196 326 196 244 c 0
 196 162 232 100 311 100 c 0xbc
 391 100 429 162 429 244 c 0
 429 325 391 390 311 390 c 0
EndSplineSet
EndChar
StartChar: c
Encoding: 99 99 68
Width: 489
GlyphClass: 2
Flags: MW
HStem: -10 112<231.5 297 231.5 322.5> 384 112<232 297>
VStem: 38 121<206 279.5 206 307>
LayerCount: 2
Back
Fore
SplineSet
479 135 m 1
 447 44 371 -10 274 -10 c 0
 114 -10 38 114 38 243 c 0
 38 371 113 496 273 496 c 0
 370 496 446 441 484 354 c 1
 370 310 l 1
 358 357 321 384 273 384 c 0
 191 384 159 316 159 243 c 0
 159 169 190 102 273 102 c 0
 321 102 358 130 370 176 c 1
 479 135 l 1
EndSplineSet
EndChar
StartChar: d
Encoding: 100 100 69
Width: 579
GlyphClass: 2
Flags: MW
HStem: -10 110<230 265.5> 0 21G<380 501 380 380> 390 108<230 266 173 309.5> 670 20G<380 501 501 501>
VStem: 32 121 380 121<0 49 49 49 439 690 0 690>
LayerCount: 2
Back
Fore
SplineSet
380 439 m 1xbc
 380 690 l 1
 501 690 l 1
 501 0 l 1
 380 0 l 1x7c
 380 49 l 1
 343 4 292 -10 239 -10 c 0
 107 -10 32 109 32 244 c 0
 32 379 107 498 239 498 c 0
 293 498 345 481 380 439 c 1xbc
270 100 m 0xbc
 349 100 385 161 385 244 c 0
 385 326 349 390 270 390 c 0
 190 390 152 325 152 244 c 0
 152 162 190 100 270 100 c 0xbc
EndSplineSet
EndChar
StartChar: f
Encoding: 102 102 71
Width: 347
GlyphClass: 2
Flags: MW
HStem: 0 21G<101 224 101 101> 380 108<224 338 224 338> 592 108<255 274 217 279.5>
VStem: 101 123<0 380 0 380>
LayerCount: 2
Back
Fore
SplineSet
307 582 m 2
 306 582 290 592 269 592 c 0
 241 592 224 576 224 551 c 2
 224 488 l 1
 338 488 l 1
 338 380 l 1
 224 380 l 1
 224 0 l 1
 101 0 l 1
 101 380 l 1
 12 380 l 1
 12 487 l 1
 102 487 l 1
 102 553 l 2
 102 648 175 700 259 700 c 0
 289 700 320 692 346 680 c 1
 307 582 l 2
EndSplineSet
EndChar
StartChar: h
Encoding: 104 104 73
Width: 581
GlyphClass: 2
Flags: MW
HStem: 0 21G<76 198 76 76 395 516 395 395> 382 117<302.5 348> 670 20G<76 198 198 198>
VStem: 76 122<0 294 436 690> 395 121<0 280 280 286 0 309.5>
LayerCount: 2
Back
Fore
SplineSet
198 436 m 1
 234 482 279 499 326 499 c 0
 465 499 516 392 516 286 c 2
 516 0 l 1
 395 0 l 1
 395 280 l 2
 395 339 379 382 317 382 c 0
 258 382 210 342 198 294 c 1
 198 0 l 1
 76 0 l 1
 76 690 l 1
 198 690 l 1
 198 436 l 1
EndSplineSet
EndChar
StartChar: i
Encoding: 105 105 74
Width: 259
GlyphClass: 2
Flags: MW
HStem: 0 21G<72 72 72 190> 468 20G<72 190 190 190> 559 134<69 194 69 194>
VStem: 72 118<0 488 0 488>
LayerCount: 2
Back
Fore
SplineSet
72 0 m 1
 72 488 l 1
 190 488 l 1
 190 0 l 1
 72 0 l 1
69 559 m 1
 69 693 l 1
 194 693 l 1
 194 559 l 1
 69 559 l 1
EndSplineSet
EndChar
StartChar: j
Encoding: 106 106 75
Width: 264
GlyphClass: 2
Flags: MW
HStem: -214 112<28.5 51.5 28.5 94> 468 20G<68 187 187 187> 559 134<68 193 68 193>
VStem: 68 119<-60 -51 -51 488>
LayerCount: 2
Back
Fore
SplineSet
68 559 m 1
 68 693 l 1
 193 693 l 1
 193 559 l 1
 68 559 l 1
68 488 m 1
 187 488 l 1
 187 -51 l 2
 187 -141 145 -214 43 -214 c 0
 2 -214 -39 -198 -40 -198 c 2
 -10 -95 l 1
 -10 -95 17 -102 40 -102 c 0
 63 -102 68 -91 68 -60 c 2
 68 488 l 1
EndSplineSet
EndChar
StartChar: k
Encoding: 107 107 76
Width: 529
GlyphClass: 2
Flags: MW
HStem: 0 21G<79 198 79 79 415 557 415 415> 468 20G<382 537 537 537> 670 20G<79 198 198 198>
VStem: 79 119<0 143 285 690>
LayerCount: 2
Back
Fore
SplineSet
382 488 m 1
 537 488 l 1
 354 299 l 1
 557 0 l 1
 415 0 l 1
 272 226 l 1
 198 143 l 1
 198 0 l 1
 79 0 l 1
 79 690 l 1
 198 690 l 1
 198 285 l 1
 382 488 l 1
EndSplineSet
EndChar
StartChar: l
Encoding: 108 108 77
Width: 284
GlyphClass: 2
Flags: MW
HStem: -10 107<74 196.5> 670 20G<74 192 192 192>
VStem: 74 119
LayerCount: 2
Back
Fore
SplineSet
192 130 m 2
 192 107 207 97 234 97 c 0
 243 97 264 100 264 100 c 1
 264 0 l 1
 264 0 214 -10 179 -10 c 0
 120 -10 74 10 74 97 c 2
 74 690 l 1
 192 690 l 1
 192 130 l 2
EndSplineSet
EndChar
StartChar: m
Encoding: 109 109 78
Width: 849
GlyphClass: 2
Flags: MW
HStem: 0 21G<679 800 679 679> 386 111<296.5 329.5> 468 20G<75 197 197 197>
VStem: 75 122<2 268 437 488> 377 121<2 268 2 280 2 309.5> 679 121<0 278 278 293 0 308>
LayerCount: 2
Back
Fore
SplineSet
458 422 m 1xdc
 496 472 557 496 619 496 c 0
 746 496 800 395 800 293 c 2
 800 0 l 1
 679 0 l 1
 679 278 l 2
 679 338 661 386 600 386 c 0
 536 386 498 333 498 268 c 2
 498 2 l 1
 377 2 l 1
 377 280 l 2
 377 339 360 386 299 386 c 0xdc
 235 386 197 333 197 268 c 2
 197 2 l 1
 75 2 l 1
 75 488 l 1
 197 488 l 1xbc
 197 437 l 1
 229 481 275 497 318 497 c 0
 381 497 426 470 458 422 c 1xdc
EndSplineSet
EndChar
StartChar: n
Encoding: 110 110 79
Width: 582
GlyphClass: 2
Flags: MW
HStem: 1 20G 385 111<313 349> 468 20G<75 196 196 196>
VStem: 75 121<1 267 431 488> 396 121<0 278 278 293 0 308>
LayerCount: 2
Back
Fore
SplineSet
196 431 m 1xb8
 235 479 289 496 337 496 c 0
 465 496 517 395 517 293 c 2
 517 0 l 1
 396 0 l 1
 396 278 l 2
 396 338 380 385 318 385 c 0xd8
 252 385 196 328 196 267 c 2
 196 1 l 1
 75 1 l 1
 75 488 l 1
 196 488 l 1
 196 431 l 1xb8
EndSplineSet
EndChar
StartChar: o
Encoding: 111 111 80
Width: 570
GlyphClass: 2
Flags: MW
HStem: -10 103<240 330 240 360.5> 391 103<240 330>
VStem: 30 129<202 282 202 311> 411 129<202 282>
LayerCount: 2
Back
Fore
SplineSet
285 93 m 0
 375 93 411 162 411 242 c 0
 411 322 375 391 285 391 c 0
 195 391 159 322 159 242 c 0
 159 162 195 93 285 93 c 0
285 494 m 0
 436 494 540 380 540 242 c 0
 540 104 436 -10 285 -10 c 0
 134 -10 30 104 30 242 c 0
 30 380 134 494 285 494 c 0
EndSplineSet
EndChar
StartChar: p
Encoding: 112 112 81
Width: 573
GlyphClass: 2
Flags: MW
HStem: -10 110<311.5 347 267.5 404> 391 107<311.5 347> 468 20G<76 197 197 197>
VStem: 76 121<-214 49 439 488> 425 121<203 285>
LayerCount: 2
Back
Fore
SplineSet
338 -10 m 0xd8
 285 -10 232 7 197 49 c 1
 197 -214 l 1
 76 -214 l 1
 76 488 l 1
 197 488 l 1xb8
 197 439 l 1
 234 484 285 498 338 498 c 0
 470 498 546 379 546 244 c 0
 546 109 470 -10 338 -10 c 0xd8
307 391 m 0xd8
 228 391 192 326 192 244 c 0
 192 162 228 100 307 100 c 0
 387 100 425 162 425 244 c 0
 425 326 387 391 307 391 c 0xd8
EndSplineSet
EndChar
StartChar: q
Encoding: 113 113 82
Width: 583
GlyphClass: 2
Flags: MW
HStem: -10 110<237 272.5> 390 108<237 272.5 180 316.5> 468 20G<387 507 507 507>
VStem: 38 121<203 284.5 203 311.5> 387 120<-214 49 49 49 439 488 -214 488>
LayerCount: 2
Back
Fore
SplineSet
387 439 m 1xd8
 387 488 l 1
 507 488 l 1xb8
 507 -214 l 1
 387 -214 l 1
 387 49 l 1
 350 4 299 -10 246 -10 c 0
 114 -10 38 109 38 244 c 0
 38 379 114 498 246 498 c 0
 299 498 352 481 387 439 c 1xd8
277 100 m 0
 356 100 391 161 391 244 c 0
 391 326 356 390 277 390 c 0xd8
 197 390 159 325 159 244 c 0
 159 162 197 100 277 100 c 0
EndSplineSet
EndChar
StartChar: t
Encoding: 116 116 85
Width: 357
GlyphClass: 2
Flags: MW
HStem: -10 106<242.5 270.5> 380 108<16 95 16 97 209 336> 674 20G<209 209>
VStem: 95 114<135 136 136 380>
LayerCount: 2
Back
Fore
SplineSet
336 5 m 1
 336 5 304 -10 237 -10 c 0
 138 -10 95 53 95 135 c 2
 95 380 l 1
 16 380 l 1
 16 488 l 1
 97 488 l 1
 97 609 l 1
 209 694 l 1
 209 488 l 1
 336 488 l 1
 336 380 l 1
 209 380 l 1
 209 136 l 2
 209 102 231 96 254 96 c 0
 307 96 336 113 336 113 c 1
 336 5 l 1
EndSplineSet
EndChar
StartChar: u
Encoding: 117 117 86
Width: 576
GlyphClass: 2
Flags: MW
HStem: -11 113<231 270.5> 0 21G<385 506 385 385> 468 20G<63 184 184 184 385 506 506 506>
VStem: 63 121<201 207 207 488> 385 121<0 57 57 57 218 488 0 488>
LayerCount: 2
Back
Fore
SplineSet
385 218 m 2xb8
 385 488 l 1
 506 488 l 1
 506 0 l 1
 385 0 l 1x78
 385 57 l 1
 350 11 297 -11 244 -11 c 0
 116 -11 63 95 63 201 c 2
 63 488 l 1
 184 488 l 1
 184 207 l 2
 184 147 200 102 262 102 c 0
 328 102 385 157 385 218 c 2xb8
EndSplineSet
EndChar
StartChar: v
Encoding: 118 118 87
Width: 467
GlyphClass: 2
Flags: MW
HStem: 0 21G<185 282 185 185> 468 20G<-15 116 116 116 352 481 481 481>
LayerCount: 2
Back
Fore
SplineSet
116 488 m 1
 233 154 l 1
 352 488 l 1
 481 488 l 1
 282 0 l 1
 185 0 l 1
 -15 488 l 1
 116 488 l 1
EndSplineSet
EndChar
StartChar: w
Encoding: 119 119 88
Width: 699
GlyphClass: 2
Flags: MW
HStem: -2 21G<147 254 147 147> 467 21G
LayerCount: 2
Back
Fore
SplineSet
401 487 m 1
 493 183 l 1
 576 488 l 1
 703 488 l 1
 553 0 l 1
 446 0 l 1
 350 320 l 1
 254 -2 l 1
 147 -2 l 1
 -4 486 l 1
 123 486 l 1
 207 182 l 1
 299 487 l 1
 401 487 l 1
EndSplineSet
EndChar
StartChar: x
Encoding: 120 120 89
Width: 459
GlyphClass: 2
Flags: MW
HStem: 0 21G<-17 -17 -17 128 330 330 330 476> 468 20G<-18 128 128 128 330 476 476 476>
LayerCount: 2
Back
Fore
SplineSet
-17 0 m 1
 150 246 l 1
 -18 488 l 1
 128 488 l 1
 229 327 l 1
 330 488 l 1
 476 488 l 1
 308 246 l 1
 476 0 l 1
 330 0 l 1
 229 164 l 1
 128 0 l 1
 -17 0 l 1
EndSplineSet
EndChar
StartChar: y
Encoding: 121 121 90
Width: 520
GlyphClass: 2
Flags: MW
HStem: 468 20G<5 136 136 136 384 515 515 515>
LayerCount: 2
Back
Fore
SplineSet
136 488 m 1
 259 149 l 1
 384 488 l 1
 515 488 l 1
 236 -210 l 1
 106 -210 l 1
 196 13 l 1
 5 488 l 1
 136 488 l 1
EndSplineSet
EndChar
StartChar: z
Encoding: 122 122 91
Width: 456
GlyphClass: 2
Flags: MW
HStem: 0 101<180 444 180 444> 380 108<28 281 28 444>
LayerCount: 2
Back
Fore
SplineSet
444 403 m 1
 180 101 l 1
 444 101 l 1
 444 0 l 1
 14 0 l 1
 14 79 l 1
 281 380 l 1
 28 380 l 1
 28 488 l 1
 444 488 l 1
 444 403 l 1
EndSplineSet
EndChar
StartChar: braceleft
Encoding: 123 123 92
Width: 294
GlyphClass: 2
Flags: MW
HStem: -167 96<188.5 246 230 246> 613 96<200.5 246 230 246>
VStem: 48 100<-2 75 467.5 546>
LayerCount: 2
Back
Fore
SplineSet
230 613 m 2
 171 613 148 589 148 503 c 0
 148 384 198 371 198 326 c 0
 198 309 188 292 151 271 c 1
 189 248 198 233 198 216 c 0
 198 171 148 162 148 41 c 0
 148 -45 170 -71 230 -71 c 2
 246 -71 l 1
 246 -167 l 1
 230 -167 l 2
 147 -167 48 -153 48 39 c 0
 48 111 79 180 100 216 c 1
 35 271 l 1
 100 326 l 1
 77 365 48 432 48 503 c 0
 48 695 147 709 230 709 c 2
 246 709 l 1
 246 613 l 1
 230 613 l 2
EndSplineSet
EndChar
StartChar: bar
Encoding: 124 124 93
Width: 254
GlyphClass: 2
Flags: MW
VStem: 83 88<-150 720>
LayerCount: 2
Back
Fore
SplineSet
171 -150 m 1
 83 -150 l 1
 83 720 l 1
 171 720 l 1
 171 -150 l 1
EndSplineSet
EndChar
StartChar: braceright
Encoding: 125 125 94
Width: 294
GlyphClass: 2
Flags: MW
HStem: -167 96<48 64 48 64> 613 96<48 64 48 64>
VStem: 146 100<-2 74.5 -57 101.5 467 546>
LayerCount: 2
Back
Fore
SplineSet
64 613 m 2
 48 613 l 1
 48 709 l 1
 64 709 l 2
 147 709 246 695 246 503 c 0
 246 431 216 363 194 326 c 1
 259 271 l 1
 194 216 l 1
 216 178 246 110 246 39 c 0
 246 -153 147 -167 64 -167 c 2
 48 -167 l 1
 48 -71 l 1
 64 -71 l 2
 124 -71 146 -45 146 41 c 0
 146 162 96 171 96 216 c 0
 96 233 106 250 143 271 c 1
 105 293 96 309 96 326 c 0
 96 371 146 383 146 503 c 0
 146 589 123 613 64 613 c 2
EndSplineSet
EndChar
StartChar: asciitilde
Encoding: 126 126 95
Width: 466
GlyphClass: 2
Flags: MW
HStem: 185 85<294.5 325 294.5 349.5> 235 83<136.5 166.5>
VStem: 35 83<198 209 198 210 198 239.5> 345 87<306 315 267 315>
LayerCount: 2
Back
Fore
SplineSet
432 303 m 2xb0
 432 231 389 185 310 185 c 0xb0
 218 185 186 235 147 235 c 0
 126 235 118 227 118 209 c 2
 118 198 l 1
 35 198 l 1
 35 210 l 2
 35 269 71 318 146 318 c 0x70
 251 318 276 270 313 270 c 0
 337 270 345 278 345 306 c 2
 345 315 l 1
 432 315 l 1
 432 303 l 2xb0
EndSplineSet
EndChar
StartChar: exclamdown
Encoding: 161 161 97
Width: 298
GlyphClass: 2
Flags: MW
HStem: 0 21G<90 208 90 90> 472 20G<104 194 194 194> 572 129<84 214 84 214>
VStem: 84 130<572 701 572 701> 104 89
LayerCount: 2
Back
Fore
SplineSet
194 492 m 1xe8
 208 0 l 1
 90 0 l 1
 104 492 l 1
 194 492 l 1xe8
214 701 m 1xf0
 214 572 l 1
 84 572 l 1
 84 701 l 1
 214 701 l 1xf0
EndSplineSet
EndChar
StartChar: cent
Encoding: 162 162 98
Width: 492
GlyphClass: 2
Flags: MW
HStem: -10 94<221 291.5 222.5 309> 402 94<221 291.5>
VStem: 36 111<202 283.5 202 302> 221 88<-100 -10 -100 -10 496 586>
LayerCount: 2
Back
Fore
SplineSet
309 -10 m 1
 309 -100 l 1
 221 -100 l 1
 221 -10 l 1
 94 13 36 125 36 243 c 0
 36 361 95 473 221 496 c 1
 221 586 l 1
 309 586 l 1
 309 496 l 1
 384 483 442 436 473 367 c 2
 479 353 l 1
 373 312 l 1
 369 327 l 2
 355 375 317 402 266 402 c 0
 180 402 147 324 147 243 c 0
 147 161 179 84 266 84 c 0
 317 84 355 112 369 159 c 2
 373 174 l 1
 472 135 l 1
 467 122 l 2
 441 50 384 3 309 -10 c 1
EndSplineSet
EndChar
StartChar: sterling
Encoding: 163 163 99
Width: 609
GlyphClass: 2
Flags: MW
HStem: 0 100<182 564 182 564> 295 100<28 112 28 136 28 112 238 238 238 448> 606 100<269.5 328>
VStem: 94 100<474 538.5 474 561> 146 99
LayerCount: 2
Back
Fore
SplineSet
26 0 m 1xe8
 26 101 l 1
 26 101 146 152 146 232 c 0xe8
 146 261 136 295 136 295 c 1
 28 295 l 1
 28 395 l 1
 112 395 l 1
 112 395 94 441 94 506 c 0
 94 616 168 706 304 706 c 0
 403 706 473 636 502 554 c 1
 409 520 l 1
 389 573 352 606 304 606 c 0
 235 606 194 573 194 504 c 0xf0
 194 444 215 395 215 395 c 1
 448 395 l 1
 448 295 l 1
 238 295 l 1
 238 295 244 266 244 234 c 0
 244 129 182 100 182 100 c 1
 564 100 l 1
 564 0 l 1
 26 0 l 1xe8
EndSplineSet
EndChar
StartChar: currency
Encoding: 164 164 100
Width: 554
GlyphClass: 2
Flags: MW
HStem: 90 106<256 298> 418 106<256 298 256 308>
VStem: 64 110<287.5 326.5> 380 110<287.5 326 287.5 340.5>
LayerCount: 2
Back
Fore
SplineSet
64 307 m 0
 64 346 75 382 94 412 c 1
 -12 489 l 1
 85 581 l 1
 165 492 l 1
 198 513 235 524 277 524 c 0
 319 524 358 511 390 491 c 1
 477 573 l 1
 574 480 l 1
 461 411 l 1
 480 380 490 345 490 307 c 0
 490 268 478 230 460 201 c 1
 573 118 l 1
 476 26 l 1
 389 123 l 1
 356 101 319 90 277 90 c 0
 235 90 197 102 166 122 c 1
 94 25 l 1
 -4 117 l 1
 94 200 l 1
 74 232 64 268 64 307 c 0
277 418 m 0
 215 418 174 374 174 307 c 0
 174 240 215 196 277 196 c 0
 339 196 380 240 380 307 c 0
 380 374 339 418 277 418 c 0
EndSplineSet
EndChar
StartChar: yen
Encoding: 165 165 101
Width: 622
GlyphClass: 2
Flags: MW
HStem: -7 21G 75 90<114 260 114 260 362 508> 242 91<114 218 114 260 114 218> 670 20G<-13 109 109 109 513 635 635 635>
VStem: 260 102<-8 75 -8 75 165 242>
LayerCount: 2
Back
Fore
SplineSet
260 165 m 1
 260 242 l 1
 114 242 l 1
 114 333 l 1
 218 333 l 1
 -13 690 l 1
 109 690 l 1
 311 363 l 1
 513 690 l 1
 635 690 l 1
 404 332 l 1
 508 332 l 1
 508 242 l 1
 362 242 l 1
 362 165 l 1
 508 165 l 1
 508 75 l 1
 362 75 l 1
 362 -8 l 1
 260 -8 l 1
 260 75 l 1
 114 75 l 1
 114 165 l 1
 260 165 l 1
EndSplineSet
EndChar
StartChar: brokenbar
Encoding: 166 166 102
Width: 251
GlyphClass: 2
Flags: MW
VStem: 75 98<-150 205 -150 205 357 720>
LayerCount: 2
Back
Fore
SplineSet
75 357 m 1
 75 720 l 1
 173 720 l 1
 173 357 l 1
 75 357 l 1
173 205 m 1
 173 -150 l 1
 75 -150 l 1
 75 205 l 1
 173 205 l 1
EndSplineSet
EndChar
StartChar: section
Encoding: 167 167 103
Width: 428
GlyphClass: 2
Flags: MW
HStem: -9 99<191.5 250 191.5 270> 601 99<192.5 241.5>
VStem: 30 100<331.5 370 331.5 376.5> 322 100<127 161 88.5 193 324 367.5>
LayerCount: 2
Back
Fore
SplineSet
412 559 m 2
 417 544 l 1
 320 519 l 1
 316 533 l 2
 302 581 267 601 216 601 c 0
 169 601 130 581 130 538 c 0
 130 462 422 536 422 333 c 0
 422 297 408 262 383 236 c 1
 410 211 422 178 422 144 c 0
 422 33 317 -9 223 -9 c 0
 121 -9 38 41 7 143 c 1
 2 157 l 1
 98 187 l 1
 102 172 l 2
 120 112 160 90 223 90 c 0
 277 90 322 102 322 152 c 0
 322 234 30 159 30 358 c 0
 30 395 47 430 72 456 c 1
 44 481 31 513 31 548 c 0
 31 648 126 700 217 700 c 0
 309 700 385 650 412 559 c 2
130 356 m 0
 130 307 221 293 281 279 c 1
 311 290 322 308 322 340 c 0
 322 395 232 405 170 419 c 1
 144 407 130 384 130 356 c 0
EndSplineSet
EndChar
StartChar: dieresis
Encoding: 168 168 104
Width: 314
GlyphClass: 2
Flags: MW
HStem: 564 131<0 120 0 120 193 313 0 193>
VStem: 0 120<564 695 564 695> 193 120<564 695 564 695>
LayerCount: 2
Back
Fore
SplineSet
193 695 m 1
 313 695 l 1
 313 564 l 1
 193 564 l 1
 193 695 l 1
0 695 m 1
 120 695 l 1
 120 564 l 1
 0 564 l 1
 0 695 l 1
EndSplineSet
EndChar
StartChar: copyright
Encoding: 169 169 105
Width: 839
GlyphClass: 2
Flags: MW
HStem: -24 92<340.5 499 340.5 526> 129 93 466 92 622 92<340.5 499>
VStem: 35 92 238 91<310 378 310 401> 712 92<270 420>
LayerCount: 2
Back
Fore
SplineSet
594 454 m 2
 601 440 l 1
 516 404 l 1
 510 416 l 2
 494 450 466 466 428 466 c 0
 359 466 329 412 329 344 c 0
 329 276 358 223 427 223 c 0
 465 223 493 239 509 272 c 2
 515 285 l 1
 601 249 l 1
 594 235 l 2
 563 167 502 129 428 129 c 0
 301 129 238 230 238 344 c 0
 238 458 301 559 428 559 c 0
 502 559 563 521 594 454 c 2
712 345 m 0
 712 495 578 622 420 622 c 0
 261 622 128 495 128 345 c 0
 128 195 261 68 420 68 c 0
 578 68 712 195 712 345 c 0
804 345 m 0
 804 141 632 -24 420 -24 c 0
 207 -24 35 141 35 345 c 0
 35 549 207 714 420 714 c 0
 632 714 804 549 804 345 c 0
EndSplineSet
EndChar
StartChar: ordfeminine
Encoding: 170 170 106
Width: 391
GlyphClass: 2
Flags: MW
HStem: 346 68 495 65<171 176 176 266> 634 66<172 216.5>
VStem: 35 77 271 65<353 561>
LayerCount: 2
Back
Fore
SplineSet
169 413 m 0
 220 413 260 453 266 495 c 1
 176 495 l 2
 137 495 113 479 113 453 c 0
 113 431 142 413 169 413 c 0
171 560 m 2
 266 560 l 1
 264 608 243 634 190 634 c 0
 154 634 124 613 109 590 c 2
 103 582 l 1
 45 621 l 1
 51 629 l 2
 85 676 129 700 192 700 c 0
 283 700 336 644 336 561 c 2
 336 353 l 1
 271 353 l 1
 269 394 l 1
 239 361 203 346 156 346 c 0
 92 346 35 387 35 453 c 0
 35 529 95 560 171 560 c 2
EndSplineSet
EndChar
StartChar: guillemotleft
Encoding: 171 171 107
Width: 501
GlyphClass: 2
Flags: W
LayerCount: 2
Back
Fore
SplineSet
181 249 m 1
 269 179 l 1
 269 76 l 1
 60 249 l 1
 269 423 l 1
 269 320 l 1
 181 249 l 1
358 249 m 1
 446 179 l 1
 446 76 l 1
 237 249 l 1
 446 423 l 1
 446 320 l 1
 358 249 l 1
EndSplineSet
EndChar
StartChar: logicalnot
Encoding: 172 172 108
Width: 581
GlyphClass: 2
Flags: MW
HStem: 283 106<54 403 54 517>
VStem: 403 114<142 283 283 283>
LayerCount: 2
Back
Fore
SplineSet
403 283 m 1
 54 283 l 1
 54 389 l 1
 517 389 l 1
 517 142 l 1
 403 142 l 1
 403 283 l 1
EndSplineSet
EndChar
StartChar: uni00AD
Encoding: 173 173 109
Width: 415
GlyphClass: 2
Flags: MW
HStem: 248 90<30 385 30 385>
LayerCount: 2
Back
Fore
SplineSet
30 338 m 1
 385 338 l 1
 385 248 l 1
 30 248 l 1
 30 338 l 1
EndSplineSet
EndChar
StartChar: registered
Encoding: 174 174 110
Width: 839
GlyphClass: 2
Flags: MW
HStem: -23 88<339 500.5 339 526> 294 88<376 425 376 376> 464 88<370 446 370 370> 627 88<339 500.5>
VStem: 35 88<269.5 422.5 269.5 448> 282 93 502 88<408.5 438> 716 88<269.5 422.5>
LayerCount: 2
Back
Fore
SplineSet
502 423 m 0
 502 453 491 464 446 464 c 2
 370 464 l 1
 370 382 l 1
 446 382 l 2
 490 382 502 394 502 423 c 0
518 307 m 1
 620 132 l 1
 512 132 l 1
 425 294 l 1
 376 294 l 1
 376 132 l 1
 282 132 l 1
 282 552 l 1
 446 552 l 2
 540 552 590 503 590 423 c 0
 590 360 557 323 518 307 c 1
716 346 m 0
 716 499 581 627 420 627 c 0
 258 627 123 499 123 346 c 0
 123 193 258 65 420 65 c 0
 581 65 716 193 716 346 c 0
804 346 m 0
 804 142 632 -23 420 -23 c 0
 207 -23 35 142 35 346 c 0
 35 550 207 715 420 715 c 0
 632 715 804 550 804 346 c 0
EndSplineSet
EndChar
StartChar: macron
Encoding: 175 175 111
Width: 323
GlyphClass: 2
Flags: MW
HStem: 620 70<-15 338 -15 338>
LayerCount: 2
Back
Fore
SplineSet
-15 690 m 1
 338 690 l 1
 338 620 l 1
 -15 620 l 1
 -15 690 l 1
EndSplineSet
EndChar
StartChar: degree
Encoding: 176 176 112
Width: 406
GlyphClass: 2
Flags: MW
HStem: 414 80<181.5 224.5 181.5 246.5> 620 80<181.5 224.5>
VStem: 45 80<539.5 574.5 539.5 596.5> 281 80<539.5 574.5>
LayerCount: 2
Back
Fore
SplineSet
203 620 m 0
 160 620 125 592 125 557 c 0
 125 522 160 494 203 494 c 0
 246 494 281 522 281 557 c 0
 281 592 246 620 203 620 c 0
203 414 m 0
 116 414 45 478 45 557 c 0
 45 636 116 700 203 700 c 0
 290 700 361 636 361 557 c 0
 361 478 290 414 203 414 c 0
EndSplineSet
EndChar
StartChar: acute
Encoding: 180 180 114
Width: 200
GlyphClass: 2
Flags: MW
HStem: 529 161<-10 227 -10 227>
VStem: -10 237<529 690>
LayerCount: 2
Back
Fore
SplineSet
100 690 m 1
 227 690 l 1
 77 529 l 1
 -10 529 l 1
 100 690 l 1
EndSplineSet
EndChar
StartChar: mu
Encoding: 181 181 115
Width: 563
GlyphClass: 2
Flags: MW
HStem: -11 103<231.5 274.5> 0 21G<382 493 382 382> 468 20G<60 171 171 171 382 493 493 493>
VStem: 60 100<-130 488> 60 111<173.5 204 204 488> 382 111<0 48 48 48 216 488 0 488>
LayerCount: 2
Back
Fore
SplineSet
493 488 m 1xac
 493 0 l 1
 382 0 l 1x6c
 382 48 l 1
 351 16 303 -11 246 -11 c 0
 217 -11 191 -6 169 4 c 1
 160 -130 l 1
 60 -130 l 1xb4
 60 488 l 1
 171 488 l 1
 171 204 l 2
 171 143 188 92 254 92 c 0
 323 92 382 150 382 216 c 2
 382 488 l 1
 493 488 l 1xac
EndSplineSet
EndChar
StartChar: paragraph
Encoding: 182 182 116
Width: 605
GlyphClass: 2
Flags: MW
HStem: 0 21G<260 343 260 260 431 515 431 431> 670 20G<260 343 343 343 431 515 515 515>
VStem: 39 304<436 558> 260 83<0 304 304 304 0 690> 431 84<0 690>
LayerCount: 2
Back
Fore
SplineSet
515 0 m 1xc8
 431 0 l 1
 431 690 l 1
 515 690 l 1
 515 0 l 1xc8
260 304 m 1xd8
 146 304 39 375 39 497 c 0xe8
 39 619 146 690 260 690 c 2
 343 690 l 1
 343 0 l 1
 260 0 l 1
 260 304 l 1xd8
EndSplineSet
EndChar
StartChar: periodcentered
Encoding: 183 183 117
Width: 265
GlyphClass: 2
Flags: MW
HStem: 318 145<112 152 112 152.5>
VStem: 60 145<371 411>
LayerCount: 2
Back
Fore
SplineSet
132 318 m 0
 91 318 60 351 60 391 c 0
 60 431 92 463 132 463 c 0
 172 463 205 432 205 391 c 0
 205 351 173 318 132 318 c 0
EndSplineSet
EndChar
StartChar: cedilla
Encoding: 184 184 118
Width: 189
GlyphClass: 2
Flags: MW
HStem: -244 71<85.5 102 85.5 121> -20 20G<75 158 158 158>
VStem: 127 73
LayerCount: 2
Back
Fore
SplineSet
-4 -176 m 1
 61 -147 l 1
 65 -160 77 -173 94 -173 c 0
 110 -173 127 -161 127 -143 c 0
 127 -130 114 -120 91 -113 c 2
 21 -93 l 1
 75 0 l 1
 158 0 l 1
 113 -61 l 1
 166 -74 199 -105 199 -144 c 0
 199 -201 148 -244 94 -244 c 0
 46 -244 10 -213 -4 -176 c 1
EndSplineSet
EndChar
StartChar: ordmasculine
Encoding: 186 186 119
Width: 419
GlyphClass: 2
Flags: MW
HStem: 347 70 630 70<176.5 243>
VStem: 35 82<494.5 553.5 494.5 572> 302 82<494.5 553.5>
LayerCount: 2
Back
Fore
SplineSet
210 630 m 0
 143 630 117 583 117 524 c 0
 117 465 143 418 210 418 c 0
 276 418 302 465 302 524 c 0
 302 583 276 630 210 630 c 0
210 347 m 0
 106 347 35 427 35 524 c 0
 35 620 106 700 210 700 c 0
 313 700 384 620 384 524 c 0
 384 427 313 347 210 347 c 0
EndSplineSet
EndChar
StartChar: guillemotright
Encoding: 187 187 120
Width: 501
GlyphClass: 2
Flags: W
LayerCount: 2
Back
Fore
SplineSet
325 249 m 1
 237 320 l 1
 237 423 l 1
 446 249 l 1
 237 76 l 1
 237 179 l 1
 325 249 l 1
148 249 m 1
 60 320 l 1
 60 423 l 1
 269 249 l 1
 60 76 l 1
 60 179 l 1
 148 249 l 1
EndSplineSet
EndChar
StartChar: questiondown
Encoding: 191 191 121
Width: 504
GlyphClass: 2
Flags: MW
HStem: 0 99<218 256> 473 20G<201 302 302 302> 571 129<185 315 185 315>
VStem: 35 104<160.5 251 160.5 284.5> 185 130<571 700 571 700> 201 101<423 493 341.5 493> 364 105<201 201>
LayerCount: 2
Back
Fore
SplineSet
469 201 m 1xf6
 468 75 372 1 256 0 c 0
 138 0 35 67 35 195 c 0
 35 374 201 355 201 423 c 2
 201 493 l 1
 302 493 l 1
 302 422 l 2
 302 261 139 309 139 193 c 0
 139 128 185 99 251 99 c 0
 316 99 363 134 364 201 c 1
 469 201 l 1xf6
315 571 m 1xfa
 185 571 l 1
 185 700 l 1
 315 700 l 1
 315 571 l 1xfa
EndSplineSet
EndChar
StartChar: Agrave
Encoding: 192 192 122
Width: 635
GlyphClass: 2
Flags: MW
HStem: 0 21G<-4 131 -4 -4 506 640 506 506> 150 106<226 411 226 452 184 411> 670 20G<272 365 365 365> 770 161<125 275 125 362>
VStem: 125 237<770 931>
LayerCount: 2
Back
Fore
SplineSet
275 770 m 1
 125 931 l 1
 252 931 l 1
 362 770 l 1
 275 770 l 1
640 0 m 1
 506 0 l 1
 452 150 l 1
 184 150 l 1
 131 0 l 1
 -4 0 l 1
 272 690 l 1
 365 690 l 1
 640 0 l 1
226 256 m 1
 411 256 l 1
 319 507 l 1
 226 256 l 1
EndSplineSet
EndChar
StartChar: Acircumflex
Encoding: 194 194 124
Width: 635
GlyphClass: 2
Flags: MW
HStem: 0 21G<-4 131 -4 -4 506 640 506 506> 150 106<226 411 226 452 184 411> 670 20G<272 365 365 365> 770 162<164 318 164 318 318 473 318 381>
VStem: 164 309<770 770>
LayerCount: 2
Back
Fore
SplineSet
473 770 m 1
 381 770 l 1
 318 835 l 1
 256 770 l 1
 164 770 l 1
 318 932 l 1
 473 770 l 1
640 0 m 1
 506 0 l 1
 452 150 l 1
 184 150 l 1
 131 0 l 1
 -4 0 l 1
 272 690 l 1
 365 690 l 1
 640 0 l 1
226 256 m 1
 411 256 l 1
 319 507 l 1
 226 256 l 1
EndSplineSet
EndChar
StartChar: Atilde
Encoding: 195 195 125
Width: 635
GlyphClass: 2
Flags: MW
HStem: 0 21G<-4 131 -4 -4 506 640 506 506> 150 106<226 411 226 452 184 411> 670 20G<272 365 365 365> 770 84<379.5 409.5 379.5 434> 820 83<229.5 269>
VStem: 120 83<783 794 783 795 783 824.5> 430 87<891 900 852 900>
LayerCount: 2
Back
Fore
SplineSet
517 888 m 2x16
 517 816 473 770 395 770 c 0x16
 303 770 298 820 240 820 c 0
 219 820 203 812 203 794 c 2
 203 783 l 1
 120 783 l 1
 120 795 l 2
 120 854 156 903 231 903 c 0x0e
 336 903 361 854 398 854 c 0
 421 854 430 863 430 891 c 2
 430 900 l 1
 517 900 l 1
 517 888 l 2x16
640 0 m 1xe0
 506 0 l 1
 452 150 l 1
 184 150 l 1
 131 0 l 1
 -4 0 l 1
 272 690 l 1
 365 690 l 1
 640 0 l 1xe0
226 256 m 1
 411 256 l 1
 319 507 l 1
 226 256 l 1
EndSplineSet
EndChar
StartChar: Adieresis
Encoding: 196 196 126
Width: 635
GlyphClass: 2
Flags: MW
HStem: 0 21G<-4 131 -4 -4 506 640 506 506> 150 106<226 411 226 452 184 411> 670 20G<272 365 365 365> 768 131<162 282 162 282 355 475 162 355>
VStem: 162 120<768 899 768 899> 355 120<768 899 768 899>
LayerCount: 2
Back
Fore
SplineSet
355 899 m 1
 475 899 l 1
 475 768 l 1
 355 768 l 1
 355 899 l 1
162 899 m 1
 282 899 l 1
 282 768 l 1
 162 768 l 1
 162 899 l 1
640 0 m 1
 506 0 l 1
 452 150 l 1
 184 150 l 1
 131 0 l 1
 -4 0 l 1
 272 690 l 1
 365 690 l 1
 640 0 l 1
226 256 m 1
 411 256 l 1
 319 507 l 1
 226 256 l 1
EndSplineSet
EndChar
StartChar: Aring
Encoding: 197 197 127
Width: 636
GlyphClass: 2
Flags: MW
HStem: 0 21G<0 129 0 0 508 636 508 508> 150 104<223 414 223 454 183 414> 809 79<307.5 328.5>
VStem: 206 79<765 786 765 807> 352 79<766 785.5>
LayerCount: 2
Back
Fore
SplineSet
206 776 m 0
 206 838 256 888 318 888 c 0
 379 888 431 839 431 776 c 0
 431 731 406 693 369 675 c 1
 636 0 l 1
 508 0 l 1
 454 150 l 1
 183 150 l 1
 129 0 l 1
 0 0 l 1
 268 674 l 1
 231 693 206 732 206 776 c 0
285 776 m 0
 285 754 299 741 318 741 c 0
 337 741 352 756 352 776 c 0
 352 795 339 809 318 809 c 0
 297 809 285 796 285 776 c 0
414 254 m 1
 319 514 l 1
 223 254 l 1
 414 254 l 1
EndSplineSet
EndChar
StartChar: Ccedilla
Encoding: 199 199 129
Width: 703
GlyphClass: 2
Flags: MW
HStem: -246 71<344.5 361.5 344.5 380.5> 588 113<300 419>
VStem: 45 118<280.5 415.5 280.5 439.5> 386 73<-153.5 -138.5>
LayerCount: 2
Back
Fore
SplineSet
256 -178 m 1
 321 -149 l 1
 325 -162 336 -175 353 -175 c 0
 370 -175 386 -162 386 -145 c 0
 386 -132 373 -122 350 -115 c 2
 280 -95 l 1
 332 -8 l 1
 136 13 45 168 45 345 c 0
 45 534 149 701 375 701 c 0
 511 701 619 633 674 504 c 1
 675 502 l 1
 564 458 l 1
 563 461 l 1
 537 553 464 588 374 588 c 0
 226 588 163 481 163 350 c 0
 163 211 226 103 376 103 c 0
 465 103 528 138 565 233 c 1
 566 235 l 1
 676 190 l 1
 675 188 l 1
 626 71 531 3 413 -8 c 1
 373 -63 l 1
 425 -76 459 -107 459 -146 c 0
 459 -203 408 -246 353 -246 c 0
 306 -246 270 -215 256 -178 c 1
EndSplineSet
EndChar
StartChar: Egrave
Encoding: 200 200 130
Width: 581
GlyphClass: 2
Flags: MW
HStem: 0 117<203 538 203 538> 288 114<203 525 203 525> 576 114<203 538 203 203> 770 161<115 265 115 352>
VStem: 79 124<117 288 117 402 402 576> 115 237<770 931>
LayerCount: 2
Back
Fore
SplineSet
265 770 m 1x14
 115 931 l 1
 242 931 l 1
 352 770 l 1
 265 770 l 1x14
203 288 m 1xe8
 203 117 l 1
 538 117 l 1
 538 0 l 1
 79 0 l 1
 79 690 l 1
 538 690 l 1
 538 576 l 1
 203 576 l 1
 203 402 l 1
 525 402 l 1
 525 288 l 1
 203 288 l 1xe8
EndSplineSet
EndChar
StartChar: Edieresis
Encoding: 203 203 133
Width: 581
GlyphClass: 2
Flags: MW
HStem: 0 117<203 538 203 538> 288 114<203 525 203 525> 576 114<203 538 203 203> 768 131<152 272 152 272 345 465 152 345>
VStem: 79 124<117 288 117 402 402 576> 152 120<768 899 768 899> 345 120<768 899 768 899>
LayerCount: 2
Back
Fore
SplineSet
345 899 m 1x16
 465 899 l 1
 465 768 l 1
 345 768 l 1
 345 899 l 1x16
152 899 m 1
 272 899 l 1
 272 768 l 1
 152 768 l 1
 152 899 l 1
203 288 m 1xe8
 203 117 l 1
 538 117 l 1
 538 0 l 1
 79 0 l 1
 79 690 l 1
 538 690 l 1
 538 576 l 1
 203 576 l 1
 203 402 l 1
 525 402 l 1
 525 288 l 1
 203 288 l 1xe8
EndSplineSet
EndChar
StartChar: Igrave
Encoding: 204 204 134
Width: 277
GlyphClass: 2
Flags: MW
HStem: 0 21G<79 79 79 203> 670 20G<79 203 203 203> 770 161<-53 97 -53 184>
VStem: -53 237<770 931> 79 124<0 690 0 690>
LayerCount: 2
Back
Fore
SplineSet
97 770 m 1x30
 -53 931 l 1
 74 931 l 1
 184 770 l 1
 97 770 l 1x30
79 0 m 1xc8
 79 690 l 1
 203 690 l 1
 203 0 l 1
 79 0 l 1xc8
EndSplineSet
EndChar
StartChar: Iacute
Encoding: 205 205 135
Width: 277
GlyphClass: 2
Flags: MW
HStem: 0 21G<79 79 79 203> 670 20G<79 203 203 203> 770 161<97 334 97 334>
VStem: 79 124<0 690 0 690> 97 237<770 931>
LayerCount: 2
Back
Fore
SplineSet
207 931 m 1x28
 334 931 l 1
 184 770 l 1
 97 770 l 1
 207 931 l 1x28
79 0 m 1xd0
 79 690 l 1
 203 690 l 1
 203 0 l 1
 79 0 l 1xd0
EndSplineSet
EndChar
StartChar: Icircumflex
Encoding: 206 206 136
Width: 277
GlyphClass: 2
Flags: MW
HStem: 0 21G<79 79 79 203> 670 20G<79 203 203 203> 770 162<-14 141 -14 141 141 295 141 203>
VStem: -14 309<770 770> 79 124<0 690 0 690 0 770>
LayerCount: 2
Back
Fore
SplineSet
295 770 m 1x30
 203 770 l 1
 141 835 l 1
 79 770 l 1
 -14 770 l 1
 141 932 l 1
 295 770 l 1x30
79 0 m 1xc8
 79 690 l 1
 203 690 l 1
 203 0 l 1
 79 0 l 1xc8
EndSplineSet
EndChar
StartChar: Idieresis
Encoding: 207 207 137
Width: 277
GlyphClass: 2
Flags: MW
HStem: 0 21G<79 79 79 203> 670 20G<79 203 203 203> 768 131<-16 104 -16 104 177 297 -16 177>
VStem: -16 120<768 899 768 899> 79 124<0 690 0 690> 177 120<768 899 768 899>
LayerCount: 2
Back
Fore
SplineSet
177 899 m 1x34
 297 899 l 1
 297 768 l 1
 177 768 l 1
 177 899 l 1x34
-16 899 m 1
 104 899 l 1
 104 768 l 1
 -16 768 l 1
 -16 899 l 1
79 0 m 1xc8
 79 690 l 1
 203 690 l 1
 203 0 l 1
 79 0 l 1xc8
EndSplineSet
EndChar
StartChar: Eth
Encoding: 208 208 138
Width: 681
GlyphClass: 2
Flags: MW
HStem: 0 107<189 257 257 269> 263 90<20 75 20 75 189 395> 584 106<189 268 189 189>
VStem: 75 114<107 263 107 263 107 263 353 584> 519 115<340 424.5>
LayerCount: 2
Back
Fore
SplineSet
189 353 m 1
 395 353 l 1
 395 263 l 1
 189 263 l 1
 189 107 l 1
 257 107 l 2
 411 107 519 176 519 345 c 0
 519 504 441 584 268 584 c 2
 189 584 l 1
 189 353 l 1
270 690 m 2
 502 690 634 565 634 340 c 0
 633 124 499 0 269 0 c 2
 75 0 l 1
 75 263 l 1
 20 263 l 1
 20 353 l 1
 75 353 l 1
 75 690 l 1
 270 690 l 2
EndSplineSet
EndChar
StartChar: Ntilde
Encoding: 209 209 139
Width: 684
GlyphClass: 2
Flags: MW
HStem: 0 21G<79 198 79 79 487 610 487 487> 670 20G<79 202 202 202 492 610 610 610> 770 84<405.5 435.5 405.5 460> 820 83<255.5 295>
VStem: 79 119<0 483 0 690> 146 83<783 794 783 795 783 824.5> 456 87<891 900 852 900> 492 118<207 690 0 690>
LayerCount: 2
Back
Fore
SplineSet
543 888 m 2x26
 543 816 499 770 421 770 c 0x26
 329 770 324 820 266 820 c 0
 245 820 229 812 229 794 c 2
 229 783 l 1
 146 783 l 1
 146 795 l 2
 146 854 182 903 257 903 c 0x16
 362 903 387 854 424 854 c 0
 447 854 456 863 456 891 c 2
 456 900 l 1
 543 900 l 1
 543 888 l 2x26
492 207 m 1xc9
 492 690 l 1
 610 690 l 1
 610 0 l 1
 487 0 l 1
 198 483 l 1
 198 0 l 1
 79 0 l 1
 79 690 l 1
 202 690 l 1
 492 207 l 1xc9
EndSplineSet
EndChar
StartChar: Oacute
Encoding: 211 211 141
Width: 747
GlyphClass: 2
Flags: MW
HStem: -10 110<301 449 301 489> 590 110<301 449> 770 161<332 569 332 569>
VStem: 42 131<280 410 280 439> 332 237<770 931> 577 131<280 410>
LayerCount: 2
Back
Fore
SplineSet
442 931 m 1
 569 931 l 1
 418 770 l 1
 332 770 l 1
 442 931 l 1
173 345 m 0
 173 215 227 100 375 100 c 0
 523 100 577 215 577 345 c 0
 577 475 523 590 375 590 c 0
 227 590 173 475 173 345 c 0
42 345 m 0
 42 533 147 700 375 700 c 0
 603 700 708 533 708 345 c 0
 708 157 603 -10 375 -10 c 0
 147 -10 42 157 42 345 c 0
EndSplineSet
EndChar
StartChar: Otilde
Encoding: 213 213 143
Width: 747
GlyphClass: 2
Flags: MW
HStem: -10 110<301 449 301 489> 590 110<301 449> 770 84<436 466 436 491> 820 83<286 325>
VStem: 42 131<280 410 280 439> 176 83 486 87 577 131<280 410>
LayerCount: 2
Back
Fore
SplineSet
574 888 m 2x26
 574 816 530 770 452 770 c 0x26
 360 770 354 820 296 820 c 0
 276 820 260 812 260 794 c 2
 260 783 l 1
 176 783 l 1
 176 795 l 2
 176 854 213 903 288 903 c 0x16
 393 903 418 854 454 854 c 0
 478 854 486 863 486 891 c 2
 486 900 l 1
 574 900 l 1
 574 888 l 2x26
173 345 m 0xc9
 173 215 227 100 375 100 c 0
 523 100 577 215 577 345 c 0
 577 475 523 590 375 590 c 0
 227 590 173 475 173 345 c 0xc9
42 345 m 0
 42 533 147 700 375 700 c 0
 603 700 708 533 708 345 c 0
 708 157 603 -10 375 -10 c 0
 147 -10 42 157 42 345 c 0
EndSplineSet
EndChar
StartChar: multiply
Encoding: 215 215 145
Width: 646
GlyphClass: 2
Flags: W
LayerCount: 2
Back
Fore
SplineSet
323 369 m 1
 481 526 l 1
 544 463 l 1
 387 305 l 1
 534 158 l 1
 470 94 l 1
 323 241 l 1
 165 84 l 1
 102 147 l 1
 259 305 l 1
 112 452 l 1
 176 516 l 1
 323 369 l 1
EndSplineSet
EndChar
StartChar: Oslash
Encoding: 216 216 146
Width: 736
GlyphClass: 2
Flags: MW
HStem: -10 112<353 443 353 481> 0 21G<108 227 108 108> 588 112<293 381> 670 20G<496 615 615 615>
VStem: 38 119 580 119
LayerCount: 2
Back
Fore
SplineSet
205 146 m 1x2c
 436 578 l 1
 415 585 394 588 368 588 c 0
 218 588 156 469 156 328 c 0
 156 258 173 192 205 146 c 1x2c
580 362 m 0
 580 437 561 506 524 554 c 1
 289 115 l 1
 313 106 338 102 368 102 c 0x8c
 518 102 580 221 580 362 c 0
698 345 m 0
 698 156 594 -10 368 -10 c 0x9c
 318 -10 272 -1 235 14 c 1
 227 0 l 1
 108 0 l 1
 146 68 l 1
 71 135 38 236 38 345 c 0
 38 534 142 700 368 700 c 0x6c
 413 700 456 692 491 680 c 1
 496 690 l 1
 615 690 l 1x1c
 581 630 l 1
 663 562 698 458 698 345 c 0
EndSplineSet
EndChar
StartChar: Ucircumflex
Encoding: 219 219 149
Width: 640
GlyphClass: 2
Flags: MW
HStem: -10 120<266.5 377.5 266.5 414.5> 670 20G<58 182 182 182 462 586 586 586> 770 162<167 322 167 322 322 476 322 384>
VStem: 58 124<269 283 283 690> 167 309<770 770> 462 124<283 690>
LayerCount: 2
Back
Fore
SplineSet
476 770 m 1x28
 384 770 l 1
 322 835 l 1
 260 770 l 1
 167 770 l 1
 322 932 l 1
 476 770 l 1x28
322 110 m 0xd4
 433 110 462 172 462 283 c 2
 462 690 l 1
 586 690 l 1
 586 274 l 2
 586 100 507 -10 322 -10 c 0
 137 -10 58 100 58 269 c 2
 58 690 l 1
 182 690 l 1
 182 283 l 2
 182 172 211 110 322 110 c 0xd4
EndSplineSet
EndChar
StartChar: Yacute
Encoding: 221 221 151
Width: 630
GlyphClass: 2
Flags: MW
HStem: 0 21G<254 376 254 254> 670 20G<-28 118 118 118 512 657 657 657> 770 161<271 508 271 508>
VStem: 254 122<0 269 0 269> 271 237<770 931>
LayerCount: 2
Back
Fore
SplineSet
381 931 m 1x28
 508 931 l 1
 358 770 l 1
 271 770 l 1
 381 931 l 1x28
118 690 m 1xd0
 315 382 l 1
 512 690 l 1
 657 690 l 1
 376 269 l 1
 376 0 l 1
 254 0 l 1
 254 269 l 1
 -28 690 l 1
 118 690 l 1xd0
EndSplineSet
EndChar
StartChar: Thorn
Encoding: 222 222 152
Width: 545
GlyphClass: 2
Flags: MW
HStem: 0 21G<80 80 80 193> 194 106<193 291 193 291> 501 94<193 291 193 291> 670 20G<80 193 193 193>
VStem: 80 113<0 194 0 300 300 501 595 690> 417 113<366.5 431.5>
LayerCount: 2
Back
Fore
SplineSet
80 0 m 1
 80 690 l 1
 193 690 l 1
 193 595 l 1
 291 595 l 2
 431 595 530 521 530 393 c 0
 530 265 430 194 291 194 c 2
 193 194 l 1
 193 0 l 1
 80 0 l 1
291 501 m 2
 193 501 l 1
 193 300 l 1
 291 300 l 2
 377 300 417 334 417 399 c 0
 417 464 377 501 291 501 c 2
EndSplineSet
EndChar
StartChar: germandbls
Encoding: 223 223 153
Width: 515
GlyphClass: 2
Flags: MW
HStem: -9 108<323 357 323 390> 0 21G<54 172 54 54> 598 102<238.5 304.5>
VStem: 54 119 258 110<344 386.5 344 419> 364 118<494.5 543.5> 402 121
LayerCount: 2
Back
Fore
SplineSet
241 128 m 1xba
 276 108 307 99 339 99 c 0
 375 99 402 124 402 156 c 0
 402 234 258 261 258 372 c 0xba
 258 466 364 467 364 522 c 0
 364 565 338 598 271 598 c 0
 206 598 172 558 172 498 c 2
 172 0 l 1
 54 0 l 1
 54 498 l 2
 54 627 152 700 270 700 c 0
 369 700 482 634 482 516 c 0x74
 482 410 368 407 368 366 c 0
 368 322 522 293 522 156 c 0
 522 59 441 -9 339 -9 c 0
 285 -9 239 7 194 28 c 1
 241 128 l 1xba
EndSplineSet
EndChar
StartChar: acircumflex
Encoding: 226 226 156
Width: 523
GlyphClass: 2
Flags: MW
HStem: -10 101<214 247.5> 0 21G<385 478 385 385> 205 86<237 244 244 364> 392 104<238.5 298.5> 566 162<112 267 112 267 267 422 267 329>
VStem: 37 122<130 161.5 130 202> 112 309 364 114<205 205 291 296 0 322> 385 93<0 296>
LayerCount: 2
Back
Fore
SplineSet
422 566 m 1x0a
 329 566 l 1
 267 631 l 1
 205 566 l 1
 112 566 l 1
 267 728 l 1
 422 566 l 1x0a
244 205 m 2xb5
 190 205 159 177 159 146 c 0
 159 114 191 91 237 91 c 0
 305 91 362 144 364 205 c 1
 244 205 l 2xb5
215 -10 m 0
 122 -10 37 50 37 146 c 0
 37 258 128 291 237 291 c 2
 364 291 l 1
 364 353 334 392 263 392 c 0
 214 392 172 359 153 325 c 1
 62 391 l 1
 112 459 175 496 267 496 c 0
 400 496 478 415 478 296 c 2xb5
 478 0 l 1
 385 0 l 1x7480
 372 70 l 1
 330 9 280 -10 215 -10 c 0
EndSplineSet
EndChar
StartChar: atilde
Encoding: 227 227 157
Width: 523
GlyphClass: 2
Flags: MW
HStem: -10 101<214 247.5> 0 21G<385 478 385 385> 205 86<237 244 244 364> 392 104<238.5 298.5> 566 84<328 358 328 383> 616 83<178 217>
VStem: 37 122<130 161.5 130 202> 68 83 364 114<205 205 291 296 0 322> 378 87 385 93<0 296>
LayerCount: 2
Back
Fore
SplineSet
466 684 m 2x0940
 466 612 422 566 344 566 c 0x0940
 252 566 246 616 188 616 c 0
 168 616 152 608 152 590 c 2
 152 579 l 1
 68 579 l 1
 68 591 l 2
 68 650 105 699 180 699 c 0x0540
 285 699 310 650 346 650 c 0
 370 650 378 659 378 687 c 2
 378 696 l 1
 466 696 l 1
 466 684 l 2x0940
244 205 m 2xb280
 190 205 159 177 159 146 c 0
 159 114 191 91 237 91 c 0
 305 91 362 144 364 205 c 1
 244 205 l 2xb280
215 -10 m 0
 122 -10 37 50 37 146 c 0
 37 258 128 291 237 291 c 2
 364 291 l 1
 364 353 334 392 263 392 c 0
 214 392 172 359 153 325 c 1
 62 391 l 1
 112 459 175 496 267 496 c 0
 400 496 478 415 478 296 c 2xb280
 478 0 l 1
 385 0 l 1x7220
 372 70 l 1
 330 9 280 -10 215 -10 c 0
EndSplineSet
EndChar
StartChar: aring
Encoding: 229 229 159
Width: 523
GlyphClass: 2
Flags: MW
HStem: -10 101<214 247.5> 0 21G<385 478 385 385> 205 86<237 244 244 364> 392 104<238.5 298.5> 566 64<253.5 281 253.5 297.5> 727 64<252 282.5>
VStem: 37 122<130 161.5 130 202> 154 64<665.5 693.5 665.5 710> 316 64<665.5 693.5> 364 114<205 205 291 296 0 322> 385 93<0 296>
LayerCount: 2
Back
Fore
SplineSet
218 680 m 0x0d80
 218 651 240 630 267 630 c 0
 295 630 316 651 316 680 c 0
 316 707 298 727 267 727 c 0
 237 727 218 707 218 680 c 0x0d80
154 679 m 0
 154 741 204 791 266 791 c 0
 328 791 380 742 380 679 c 0
 380 616 329 566 266 566 c 0
 203 566 154 618 154 679 c 0
244 205 m 2xb240
 190 205 159 177 159 146 c 0
 159 114 191 91 237 91 c 0
 305 91 362 144 364 205 c 1
 244 205 l 2xb240
215 -10 m 0
 122 -10 37 50 37 146 c 0
 37 258 128 291 237 291 c 2
 364 291 l 1
 364 353 334 392 263 392 c 0
 214 392 172 359 153 325 c 1
 62 391 l 1
 112 459 175 496 267 496 c 0
 400 496 478 415 478 296 c 2xb240
 478 0 l 1
 385 0 l 1x7220
 372 70 l 1
 330 9 280 -10 215 -10 c 0
EndSplineSet
EndChar
StartChar: ae
Encoding: 230 230 160
Width: 830
GlyphClass: 2
Flags: MW
HStem: -10 98<198 252.5> -6 111<540.5 602 540.5 617.5> 205 86<225 232 232 357 459 681> 395 101<225.5 289>
VStem: 30 112<125 161.5 125 198> 357 102<205 291 291 326.5>
LayerCount: 2
Back
Fore
SplineSet
697 150 m 1x7c
 780 78 l 1
 722 17 658 -6 577 -6 c 0x7c
 493 -6 439 25 406 73 c 1
 365 30 302 -10 203 -10 c 0xbc
 111 -10 30 49 30 143 c 0
 30 253 116 291 225 291 c 2
 357 291 l 1
 357 362 327 395 251 395 c 0
 200 395 158 365 136 333 c 1
 52 394 l 1
 101 461 164 496 255 496 c 0
 328 496 385 466 418 416 c 1
 455 463 508 494 578 494 c 0
 745 494 798 368 798 242 c 0
 798 220 793 205 793 205 c 1
 458 205 l 1
 467 145 505 105 576 105 c 0
 628 105 663 114 697 150 c 1x7c
568 394 m 0
 501 394 468 350 459 291 c 1
 681 291 l 1
 672 357 638 394 568 394 c 0
222 88 m 0xbc
 294 88 349 148 357 205 c 1
 232 205 l 2
 176 205 142 179 142 144 c 0
 142 106 174 88 222 88 c 0xbc
EndSplineSet
EndChar
StartChar: ccedilla
Encoding: 231 231 161
Width: 498
GlyphClass: 2
Flags: MW
HStem: -246 71<240.5 257.5 240.5 276.5> 389 107<229 296>
VStem: 39 116<205 280.5 205 307> 282 73<-153.5 -138.5>
LayerCount: 2
Back
Fore
SplineSet
152 -178 m 1
 217 -149 l 1
 221 -162 232 -175 249 -175 c 0
 266 -175 282 -162 282 -145 c 0
 282 -132 269 -122 246 -115 c 2
 176 -95 l 1
 228 -7 l 1
 101 14 39 126 39 243 c 0
 39 371 114 496 271 496 c 0
 367 496 443 442 480 355 c 1
 481 353 l 1
 372 310 l 1
 371 313 l 2
 358 361 321 389 271 389 c 0
 187 389 155 318 155 243 c 0
 155 167 186 97 271 97 c 0
 321 97 358 125 371 173 c 2
 372 176 l 1
 476 136 l 1
 475 134 l 1
 448 55 388 5 310 -7 c 1
 269 -63 l 1
 321 -76 355 -107 355 -146 c 0
 355 -203 304 -246 249 -246 c 0
 202 -246 166 -215 152 -178 c 1
EndSplineSet
EndChar
StartChar: eacute
Encoding: 233 233 163
Width: 516
GlyphClass: 2
Flags: MW
HStem: -6 111<233.5 295.5 233.5 310.5> 205 86<153 374 153 487 152 374> 394 100<228.5 297> 564 161<218 455 218 455>
VStem: 27 125<205 205 205 305> 218 237<564 725>
LayerCount: 2
Back
Fore
SplineSet
328 725 m 1
 455 725 l 1
 305 564 l 1
 218 564 l 1
 328 725 l 1
262 394 m 0
 195 394 162 350 153 291 c 1
 374 291 l 1
 366 357 332 394 262 394 c 0
391 150 m 1
 473 78 l 1
 416 17 351 -6 270 -6 c 0
 107 -6 27 111 27 241 c 0
 27 369 102 494 262 494 c 0
 439 494 491 368 491 242 c 0
 491 220 487 205 487 205 c 1
 152 205 l 1
 160 145 198 105 269 105 c 0
 322 105 356 114 391 150 c 1
EndSplineSet
EndChar
StartChar: edieresis
Encoding: 235 235 165
Width: 516
GlyphClass: 2
Flags: MW
HStem: -6 111<233.5 295.5 233.5 310.5> 205 86<153 374 153 487 152 374> 394 100<228.5 297> 562 131<105 225 105 225 298 418 105 298>
VStem: 27 125<205 205 205 305> 105 120<562 693 562 693> 298 120<562 693 562 693>
LayerCount: 2
Back
Fore
SplineSet
298 693 m 1x16
 418 693 l 1
 418 562 l 1
 298 562 l 1
 298 693 l 1x16
105 693 m 1
 225 693 l 1
 225 562 l 1
 105 562 l 1
 105 693 l 1
262 394 m 0xe8
 195 394 162 350 153 291 c 1
 374 291 l 1
 366 357 332 394 262 394 c 0xe8
391 150 m 1
 473 78 l 1
 416 17 351 -6 270 -6 c 0
 107 -6 27 111 27 241 c 0
 27 369 102 494 262 494 c 0
 439 494 491 368 491 242 c 0
 491 220 487 205 487 205 c 1
 152 205 l 1
 160 145 198 105 269 105 c 0
 322 105 356 114 391 150 c 1
EndSplineSet
EndChar
StartChar: igrave
Encoding: 236 236 166
Width: 255
GlyphClass: 2
Flags: MW
HStem: 0 21G<73 183 73 73> 468 20G<73 183 183 183> 564 161<-66 85 -66 171>
VStem: -66 237<564 725> 73 110<0 488 0 488>
LayerCount: 2
Back
Fore
SplineSet
85 564 m 1x30
 -66 725 l 1
 61 725 l 1
 171 564 l 1
 85 564 l 1x30
183 488 m 1xc8
 183 0 l 1
 73 0 l 1
 73 488 l 1
 183 488 l 1xc8
EndSplineSet
EndChar
StartChar: iacute
Encoding: 237 237 167
Width: 255
GlyphClass: 2
Flags: MW
HStem: 0 21G<73 183 73 73> 468 20G<73 183 183 183> 564 161<85 322 85 322>
VStem: 73 110<0 488 0 488> 85 237<564 725>
LayerCount: 2
Back
Fore
SplineSet
195 725 m 1x28
 322 725 l 1
 171 564 l 1
 85 564 l 1
 195 725 l 1x28
183 488 m 1xd0
 183 0 l 1
 73 0 l 1
 73 488 l 1
 183 488 l 1xd0
EndSplineSet
EndChar
StartChar: icircumflex
Encoding: 238 238 168
Width: 255
GlyphClass: 2
Flags: MW
HStem: 0 21G<73 183 73 73> 468 20G<73 183 183 183> 564 162<-27 128 -27 128 128 283 128 190>
VStem: -27 309 73 110<0 488 0 488>
LayerCount: 2
Back
Fore
SplineSet
283 564 m 1x30
 190 564 l 1
 128 629 l 1
 66 564 l 1
 -27 564 l 1
 128 726 l 1
 283 564 l 1x30
183 488 m 1xc8
 183 0 l 1
 73 0 l 1
 73 488 l 1
 183 488 l 1xc8
EndSplineSet
EndChar
StartChar: idieresis
Encoding: 239 239 169
Width: 255
GlyphClass: 2
Flags: MW
HStem: 0 21G<73 183 73 73> 468 20G<73 183 183 183> 562 131<-28 92 -28 92 164 284 -28 164>
VStem: -28 120<562 693 562 693> 73 110<0 488 0 488> 164 120<562 693 562 693>
LayerCount: 2
Back
Fore
SplineSet
164 693 m 1x34
 284 693 l 1
 284 562 l 1
 164 562 l 1
 164 693 l 1x34
-28 693 m 1
 92 693 l 1
 92 562 l 1
 -28 562 l 1
 -28 693 l 1
183 488 m 1xc8
 183 0 l 1
 73 0 l 1
 73 488 l 1
 183 488 l 1xc8
EndSplineSet
EndChar
StartChar: eth
Encoding: 240 240 170
Width: 586
GlyphClass: 2
Flags: MW
HStem: -8 96<242.5 337.5 242.5 369> 416 96<242.5 306.5 211 336>
VStem: 44 106<209.5 294.5 209.5 320> 430 106<209.5 296.5>
LayerCount: 2
Back
Fore
SplineSet
150 252 m 0
 150 167 195 88 290 88 c 0
 385 88 430 167 430 252 c 0
 430 341 382 416 290 416 c 0
 195 416 150 337 150 252 c 0
197 740 m 1
 197 740 246 719 272 707 c 1
 307 761 l 1
 382 707 l 1
 351 661 l 1
 451 591 536 475 536 252 c 0
 536 116 448 -8 290 -8 c 0
 132 -8 44 116 44 252 c 0
 44 388 132 512 290 512 c 0
 323 512 359 502 383 489 c 1
 366 528 334 560 300 585 c 1
 269 539 l 1
 193 592 l 1
 220 630 l 1
 189 645 149 660 149 660 c 1
 197 740 l 1
EndSplineSet
EndChar
StartChar: ntilde
Encoding: 241 241 171
Width: 582
GlyphClass: 2
Flags: MW
HStem: 1 20G 385 111<313 349> 468 20G<75 196 196 196> 566 84<357.5 387.5 357.5 412> 616 83<207.5 247>
VStem: 75 121<1 267 431 488> 98 83<579 590 579 591 579 620.5> 396 121<0 278 278 293 0 308> 408 87<687 696 648 696>
LayerCount: 2
Back
Fore
SplineSet
495 684 m 2x1280
 495 612 451 566 373 566 c 0x1280
 281 566 276 616 218 616 c 0
 197 616 181 608 181 590 c 2
 181 579 l 1
 98 579 l 1
 98 591 l 2
 98 650 134 699 209 699 c 0x0a80
 314 699 339 650 376 650 c 0
 399 650 408 659 408 687 c 2
 408 696 l 1
 495 696 l 1
 495 684 l 2x1280
196 431 m 1xa5
 235 479 289 496 337 496 c 0
 465 496 517 395 517 293 c 2
 517 0 l 1
 396 0 l 1
 396 278 l 2
 396 338 380 385 318 385 c 0xc5
 252 385 196 328 196 267 c 2
 196 1 l 1
 75 1 l 1
 75 488 l 1
 196 488 l 1
 196 431 l 1xa5
EndSplineSet
EndChar
StartChar: ograve
Encoding: 242 242 172
Width: 570
GlyphClass: 2
Flags: MW
HStem: -10 103<240 330 240 360.5> 391 103<240 330> 564 161<91 242 91 328>
VStem: 30 129<202 282 202 311> 91 237<564 725> 411 129<202 282>
LayerCount: 2
Back
Fore
SplineSet
242 564 m 1x28
 91 725 l 1
 218 725 l 1
 328 564 l 1
 242 564 l 1x28
285 93 m 0xd4
 375 93 411 162 411 242 c 0
 411 322 375 391 285 391 c 0
 195 391 159 322 159 242 c 0
 159 162 195 93 285 93 c 0xd4
285 494 m 0
 436 494 540 380 540 242 c 0
 540 104 436 -10 285 -10 c 0
 134 -10 30 104 30 242 c 0
 30 380 134 494 285 494 c 0
EndSplineSet
EndChar
StartChar: oacute
Encoding: 243 243 173
Width: 570
GlyphClass: 2
Flags: MW
HStem: -10 103<240 330 240 360.5> 391 103<240 330> 564 161<242 479 242 479>
VStem: 30 129<202 282 202 311> 242 237<564 725> 411 129<202 282>
LayerCount: 2
Back
Fore
SplineSet
352 725 m 1x28
 479 725 l 1
 328 564 l 1
 242 564 l 1
 352 725 l 1x28
285 93 m 0xd4
 375 93 411 162 411 242 c 0
 411 322 375 391 285 391 c 0
 195 391 159 322 159 242 c 0
 159 162 195 93 285 93 c 0xd4
285 494 m 0
 436 494 540 380 540 242 c 0
 540 104 436 -10 285 -10 c 0
 134 -10 30 104 30 242 c 0
 30 380 134 494 285 494 c 0
EndSplineSet
EndChar
StartChar: ocircumflex
Encoding: 244 244 174
Width: 570
GlyphClass: 2
Flags: MW
HStem: -10 103<240 330 240 360.5> 391 103<240 330> 564 162<130 285 130 285 285 440 285 347>
VStem: 30 129<202 282 202 311> 130 309 411 129<202 282>
LayerCount: 2
Back
Fore
SplineSet
440 564 m 1x28
 347 564 l 1
 285 629 l 1
 223 564 l 1
 130 564 l 1
 285 726 l 1
 440 564 l 1x28
285 93 m 0xd4
 375 93 411 162 411 242 c 0
 411 322 375 391 285 391 c 0
 195 391 159 322 159 242 c 0
 159 162 195 93 285 93 c 0xd4
285 494 m 0
 436 494 540 380 540 242 c 0
 540 104 436 -10 285 -10 c 0
 134 -10 30 104 30 242 c 0
 30 380 134 494 285 494 c 0
EndSplineSet
EndChar
StartChar: otilde
Encoding: 245 245 175
Width: 570
GlyphClass: 2
Flags: MW
HStem: -10 103<240 330 240 360.5> 391 103<240 330> 564 84<346 376 346 401> 614 83<196 235>
VStem: 30 129<202 282 202 311> 86 83 396 87 411 129<202 282>
LayerCount: 2
Back
Fore
SplineSet
484 682 m 2x26
 484 610 440 564 362 564 c 0x26
 270 564 264 614 206 614 c 0
 186 614 170 606 170 588 c 2
 170 577 l 1
 86 577 l 1
 86 589 l 2
 86 648 123 697 198 697 c 0x16
 303 697 328 648 364 648 c 0
 388 648 396 657 396 685 c 2
 396 694 l 1
 484 694 l 1
 484 682 l 2x26
285 93 m 0xc9
 375 93 411 162 411 242 c 0
 411 322 375 391 285 391 c 0
 195 391 159 322 159 242 c 0
 159 162 195 93 285 93 c 0xc9
285 494 m 0
 436 494 540 380 540 242 c 0
 540 104 436 -10 285 -10 c 0
 134 -10 30 104 30 242 c 0
 30 380 134 494 285 494 c 0
EndSplineSet
EndChar
StartChar: odieresis
Encoding: 246 246 176
Width: 570
GlyphClass: 2
Flags: MW
HStem: -10 103<240 330 240 360.5> 391 103<240 330> 562 131<128 248 128 248 322 442 128 322>
VStem: 30 129<202 282 202 311> 128 120<562 693 562 693> 322 120<562 693 562 693> 411 129<202 282>
LayerCount: 2
Back
Fore
SplineSet
322 693 m 1x2c
 442 693 l 1
 442 562 l 1
 322 562 l 1
 322 693 l 1x2c
128 693 m 1
 248 693 l 1
 248 562 l 1
 128 562 l 1
 128 693 l 1
285 93 m 0xd2
 375 93 411 162 411 242 c 0
 411 322 375 391 285 391 c 0
 195 391 159 322 159 242 c 0
 159 162 195 93 285 93 c 0xd2
285 494 m 0
 436 494 540 380 540 242 c 0
 540 104 436 -10 285 -10 c 0
 134 -10 30 104 30 242 c 0
 30 380 134 494 285 494 c 0
EndSplineSet
EndChar
StartChar: divide
Encoding: 247 247 177
Width: 646
GlyphClass: 2
Flags: MW
HStem: 70 129<258 388 258 388> 262 90<55 591 55 591> 407 129<258 388 258 388>
VStem: 258 130<70 199 70 199 407 536>
LayerCount: 2
Back
Fore
SplineSet
55 352 m 1
 591 352 l 1
 591 262 l 1
 55 262 l 1
 55 352 l 1
258 199 m 1
 388 199 l 1
 388 70 l 1
 258 70 l 1
 258 199 l 1
258 536 m 1
 388 536 l 1
 388 407 l 1
 258 407 l 1
 258 536 l 1
EndSplineSet
EndChar
StartChar: oslash
Encoding: 248 248 178
Width: 560
GlyphClass: 2
Flags: MW
HStem: -10 107<274.5 326 274.5 355> 387 107<234 284.5>
VStem: 28 124<207.5 270 207.5 310.5> 408 124<214 278>
LayerCount: 2
Back
Fore
SplineSet
67 -20 m 1
 109 53 l 1
 56 101 28 167 28 242 c 0
 28 379 130 494 280 494 c 0
 307 494 334 489 355 483 c 1
 369 508 l 1
 488 508 l 1
 447 435 l 1
 502 388 532 319 532 242 c 0
 532 105 430 -10 280 -10 c 0
 251 -10 223 -5 199 3 c 1
 186 -20 l 1
 67 -20 l 1
280 97 m 0
 372 97 408 168 408 260 c 0
 408 296 401 331 389 357 c 1
 251 100 l 1
 261 98 269 97 280 97 c 0
152 224 m 0
 152 191 158 157 168 133 c 1
 303 385 l 1
 294 387 289 387 280 387 c 0
 188 387 152 316 152 224 c 0
EndSplineSet
EndChar
StartChar: ugrave
Encoding: 249 249 179
Width: 576
GlyphClass: 2
Flags: MW
HStem: -11 113<231 270.5> 0 21G<385 506 385 385> 468 20G<63 184 184 184 385 506 506 506> 564 161<91 241 91 328>
VStem: 63 121<201 207 207 488> 91 237<564 725> 385 121<0 57 57 57 218 488 0 488>
LayerCount: 2
Back
Fore
SplineSet
241 564 m 1x14
 91 725 l 1
 218 725 l 1
 328 564 l 1
 241 564 l 1x14
385 218 m 2xaa
 385 488 l 1
 506 488 l 1
 506 0 l 1
 385 0 l 1x6a
 385 57 l 1
 350 11 297 -11 244 -11 c 0
 116 -11 63 95 63 201 c 2
 63 488 l 1
 184 488 l 1
 184 207 l 2
 184 147 200 102 262 102 c 0
 328 102 385 157 385 218 c 2xaa
EndSplineSet
EndChar
StartChar: udieresis
Encoding: 252 252 182
Width: 576
GlyphClass: 2
Flags: MW
HStem: -11 113<231 270.5> 0 21G<385 506 385 385> 468 20G<63 184 184 184 385 506 506 506> 562 131<128 248 128 248 321 441 128 321>
VStem: 63 121<201 207 207 488> 128 120<562 693 562 693> 321 120<562 693 562 693> 385 121<0 57 57 57 218 488 0 488>
LayerCount: 2
Back
Fore
SplineSet
321 693 m 1x16
 441 693 l 1
 441 562 l 1
 321 562 l 1
 321 693 l 1x16
128 693 m 1
 248 693 l 1
 248 562 l 1
 128 562 l 1
 128 693 l 1
385 218 m 2xa9
 385 488 l 1
 506 488 l 1
 506 0 l 1
 385 0 l 1x69
 385 57 l 1
 350 11 297 -11 244 -11 c 0
 116 -11 63 95 63 201 c 2
 63 488 l 1
 184 488 l 1
 184 207 l 2
 184 147 200 102 262 102 c 0
 328 102 385 157 385 218 c 2xa9
EndSplineSet
EndChar
StartChar: yacute
Encoding: 253 253 183
Width: 520
GlyphClass: 2
Flags: MW
HStem: 468 20G<5 136 136 136 384 515 515 515> 564 161<217 453 217 453>
VStem: 217 237
LayerCount: 2
Back
Fore
SplineSet
326 725 m 1
 453 725 l 1
 303 564 l 1
 217 564 l 1
 326 725 l 1
136 488 m 1
 259 149 l 1
 384 488 l 1
 515 488 l 1
 236 -210 l 1
 106 -210 l 1
 196 13 l 1
 5 488 l 1
 136 488 l 1
EndSplineSet
EndChar
StartChar: thorn
Encoding: 254 254 184
Width: 582
GlyphClass: 2
Flags: MW
HStem: -10 103<300 349.5 266.5 397.5> 394 104<300 349.5> 670 20G<80 193 193 193>
VStem: 80 105<201 286.5 201 690> 80 113<-214 40 448 690> 431 111
LayerCount: 2
Back
Fore
SplineSet
193 -214 m 1xec
 80 -214 l 1
 80 690 l 1
 193 690 l 1
 193 448 l 1
 227 480 272 498 328 498 c 0
 467 498 541 380 541 244 c 0
 541 108 467 -10 328 -10 c 0
 272 -10 226 9 193 40 c 1
 193 -214 l 1xec
308 93 m 0
 391 93 431 158 431 244 c 0
 431 329 391 394 308 394 c 0
 225 394 185 329 185 244 c 0xf4
 185 158 225 93 308 93 c 0
EndSplineSet
EndChar
StartChar: ydieresis
Encoding: 255 255 185
Width: 520
GlyphClass: 2
Flags: MW
HStem: 468 20G<5 136 136 136 384 515 515 515> 562 131<103 223 103 223 296 416 103 296>
VStem: 103 120<562 693 562 693> 296 120<562 693 562 693>
LayerCount: 2
Back
Fore
SplineSet
296 693 m 1
 416 693 l 1
 416 562 l 1
 296 562 l 1
 296 693 l 1
103 693 m 1
 223 693 l 1
 223 562 l 1
 103 562 l 1
 103 693 l 1
136 488 m 1
 259 149 l 1
 384 488 l 1
 515 488 l 1
 236 -210 l 1
 106 -210 l 1
 196 13 l 1
 5 488 l 1
 136 488 l 1
EndSplineSet
EndChar
StartChar: Amacron
Encoding: 256 256 186
Width: 635
GlyphClass: 2
Flags: MW
HStem: 0 21G<-4 131 -4 -4 506 640 506 506> 150 106<226 411 226 452 184 411> 670 20G<272 365 365 365> 790 70<141 494 141 494>
LayerCount: 2
Back
Fore
SplineSet
141 860 m 1
 494 860 l 1
 494 790 l 1
 141 790 l 1
 141 860 l 1
640 0 m 1
 506 0 l 1
 452 150 l 1
 184 150 l 1
 131 0 l 1
 -4 0 l 1
 272 690 l 1
 365 690 l 1
 640 0 l 1
226 256 m 1
 411 256 l 1
 319 507 l 1
 226 256 l 1
EndSplineSet
EndChar
StartChar: amacron
Encoding: 257 257 187
Width: 523
GlyphClass: 2
Flags: MW
HStem: -10 101<214 247.5> 0 21G<385 478 385 385> 205 86<237 244 244 364> 392 104<238.5 298.5> 586 70<81 434 81 434>
VStem: 37 122<130 161.5 130 202> 364 114<205 205 291 296 0 322> 385 93<0 296>
LayerCount: 2
Back
Fore
SplineSet
81 656 m 1x08
 434 656 l 1
 434 586 l 1
 81 586 l 1
 81 656 l 1x08
244 205 m 2xb6
 190 205 159 177 159 146 c 0
 159 114 191 91 237 91 c 0
 305 91 362 144 364 205 c 1
 244 205 l 2xb6
215 -10 m 0
 122 -10 37 50 37 146 c 0
 37 258 128 291 237 291 c 2
 364 291 l 1
 364 353 334 392 263 392 c 0
 214 392 172 359 153 325 c 1
 62 391 l 1
 112 459 175 496 267 496 c 0
 400 496 478 415 478 296 c 2xb6
 478 0 l 1
 385 0 l 1x75
 372 70 l 1
 330 9 280 -10 215 -10 c 0
EndSplineSet
EndChar
StartChar: Abreve
Encoding: 258 258 188
Width: 635
GlyphClass: 2
Flags: MW
HStem: 0 21G<-4 131 -4 -4 506 640 506 506> 150 106<226 411 226 452 184 411> 670 20G<272 365 365 365> 770 70<298 338 298 363.5> 882 20G<164 248 248 248 388 472 472 472>
VStem: 164 84<887 902 877.5 902> 388 84<887 902 849 902>
LayerCount: 2
Back
Fore
SplineSet
388 887 m 2
 388 902 l 1
 472 902 l 1
 472 887 l 2
 472 811 409 770 318 770 c 0
 227 770 164 811 164 887 c 2
 164 902 l 1
 248 902 l 1
 248 887 l 2
 248 868 278 840 318 840 c 0
 358 840 388 868 388 887 c 2
640 0 m 1
 506 0 l 1
 452 150 l 1
 184 150 l 1
 131 0 l 1
 -4 0 l 1
 272 690 l 1
 365 690 l 1
 640 0 l 1
226 256 m 1
 411 256 l 1
 319 507 l 1
 226 256 l 1
EndSplineSet
EndChar
StartChar: abreve
Encoding: 259 259 189
Width: 523
GlyphClass: 2
Flags: MW
HStem: -10 101<214 247.5> 0 21G<385 478 385 385> 205 86<237 244 244 364> 392 104<238.5 298.5> 566 70<237.5 278 237.5 303> 678 20G<104 188 188 188 328 412 412 412>
VStem: 37 122<130 161.5 130 202> 104 84<683 698 673.5 698> 328 84<683 698 645 698> 364 114<205 205 291 296 0 322> 385 93<0 296>
LayerCount: 2
Back
Fore
SplineSet
328 683 m 2x0d80
 328 698 l 1
 412 698 l 1
 412 683 l 2
 412 607 348 566 258 566 c 0
 167 566 104 607 104 683 c 2
 104 698 l 1
 188 698 l 1
 188 683 l 2
 188 664 217 636 258 636 c 0
 298 636 328 664 328 683 c 2x0d80
244 205 m 2xb240
 190 205 159 177 159 146 c 0
 159 114 191 91 237 91 c 0
 305 91 362 144 364 205 c 1
 244 205 l 2xb240
215 -10 m 0
 122 -10 37 50 37 146 c 0
 37 258 128 291 237 291 c 2
 364 291 l 1
 364 353 334 392 263 392 c 0
 214 392 172 359 153 325 c 1
 62 391 l 1
 112 459 175 496 267 496 c 0
 400 496 478 415 478 296 c 2xb240
 478 0 l 1
 385 0 l 1x7220
 372 70 l 1
 330 9 280 -10 215 -10 c 0
EndSplineSet
EndChar
StartChar: Aogonek
Encoding: 260 260 190
Width: 636
GlyphClass: 2
Flags: MW
HStem: -220 73<522.5 543.5 522.5 562> 0 21G<-4 131 -4 -4 506 506 625 640> 150 106<227 411 227 453 185 411> 670 20G<272 365 365 365>
VStem: 427 71<-121.5 -80.5>
LayerCount: 2
Back
Fore
SplineSet
644 -160 m 1
 621 -195 588 -220 536 -220 c 0
 474 -220 427 -180 427 -119 c 0
 427 -42 506 0 506 0 c 1
 453 150 l 1
 185 150 l 1
 131 0 l 1
 -4 0 l 1
 272 690 l 1
 365 690 l 1
 640 0 l 1
 610 0 498 -52 498 -108 c 0
 498 -135 514 -147 531 -147 c 0
 556 -147 570 -138 584 -119 c 1
 644 -160 l 1
227 256 m 1
 411 256 l 1
 319 507 l 1
 227 256 l 1
EndSplineSet
EndChar
StartChar: aogonek
Encoding: 261 261 191
Width: 541
GlyphClass: 2
Flags: MW
HStem: -222 73<388 408.5 388 427> -10 104<212 245.5> 204 90<235 242 242 362> 392 104<236.5 296.5>
VStem: 35 122<130 161.5 130 202> 292 71<-124 -83> 362 114<204 204 294 294>
LayerCount: 2
Back
Fore
SplineSet
509 -163 m 1xfc
 486 -198 453 -222 401 -222 c 0
 339 -222 292 -183 292 -122 c 0xfc
 292 -44 383 0 383 0 c 1
 370 70 l 1
 328 9 278 -10 213 -10 c 0
 120 -10 35 50 35 146 c 0
 35 258 126 294 235 294 c 2
 362 294 l 1
 357 354 332 392 261 392 c 0
 212 392 170 359 151 325 c 1
 60 391 l 1
 110 459 173 496 265 496 c 0
 398 496 476 415 476 296 c 2
 476 0 l 1xfa
 445 -9 363 -42 363 -111 c 0
 363 -137 380 -149 396 -149 c 0
 421 -149 435 -141 449 -122 c 1
 509 -163 l 1xfc
242 204 m 2
 188 204 157 177 157 146 c 0
 157 114 189 94 235 94 c 0
 303 94 360 143 362 204 c 1xfa
 242 204 l 2
EndSplineSet
EndChar
StartChar: cacute
Encoding: 263 263 193
Width: 489
GlyphClass: 2
Flags: MW
HStem: -10 112<231.5 297 231.5 322.5> 384 112<232 297> 566 161<218 455 218 455>
VStem: 38 121<206 279.5 206 307> 218 237<566 727>
LayerCount: 2
Back
Fore
SplineSet
328 727 m 1
 455 727 l 1
 304 566 l 1
 218 566 l 1
 328 727 l 1
479 135 m 1
 447 44 371 -10 274 -10 c 0
 114 -10 38 114 38 243 c 0
 38 371 113 496 273 496 c 0
 370 496 446 441 484 354 c 1
 370 310 l 1
 358 357 321 384 273 384 c 0
 191 384 159 316 159 243 c 0
 159 169 190 102 273 102 c 0
 321 102 358 130 370 176 c 1
 479 135 l 1
EndSplineSet
EndChar
StartChar: Ccircumflex
Encoding: 264 264 194
Width: 704
GlyphClass: 2
Flags: MW
HStem: -10 118<304 422.5 304 446.5> 583 118<303 421> 771 162<208 362 208 362 362 517 362 424>
VStem: 44 123<281.5 414 281.5 439.5> 208 309<771 771>
LayerCount: 2
Back
Fore
SplineSet
517 771 m 1
 424 771 l 1
 362 836 l 1
 300 771 l 1
 208 771 l 1
 362 933 l 1
 517 771 l 1
563 457 m 1
 537 548 466 583 376 583 c 0
 230 583 167 478 167 350 c 0
 167 213 230 108 378 108 c 0
 467 108 528 143 565 236 c 1
 680 189 l 1
 625 60 515 -10 378 -10 c 0
 151 -10 44 156 44 345 c 0
 44 534 150 701 377 701 c 0
 514 701 623 632 679 503 c 1
 563 457 l 1
EndSplineSet
EndChar
StartChar: Cdotaccent
Encoding: 266 266 196
Width: 704
GlyphClass: 2
Flags: MW
HStem: -10 118<304 422.5 304 446.5> 583 118<303 421> 771 155<340.5 383.5 340.5 383.5>
VStem: 44 123<281.5 414 281.5 439.5> 285 155<827.5 870.5>
LayerCount: 2
Back
Fore
SplineSet
362 771 m 0
 318 771 285 806 285 849 c 0
 285 892 319 926 362 926 c 0
 405 926 440 892 440 849 c 0
 440 806 405 771 362 771 c 0
563 457 m 1
 537 548 466 583 376 583 c 0
 230 583 167 478 167 350 c 0
 167 213 230 108 378 108 c 0
 467 108 528 143 565 236 c 1
 680 189 l 1
 625 60 515 -10 378 -10 c 0
 151 -10 44 156 44 345 c 0
 44 534 150 701 377 701 c 0
 514 701 623 632 679 503 c 1
 563 457 l 1
EndSplineSet
EndChar
StartChar: cdotaccent
Encoding: 267 267 197
Width: 489
GlyphClass: 2
Flags: MW
HStem: -10 112<231.5 297 231.5 322.5> 384 112<232 297> 566 155<239 282 239 282.5>
VStem: 38 121<206 279.5 206 307> 184 155<622.5 665.5>
LayerCount: 2
Back
Fore
SplineSet
261 566 m 0
 217 566 184 601 184 644 c 0
 184 687 217 721 261 721 c 0
 303 721 339 687 339 644 c 0
 339 601 304 566 261 566 c 0
479 135 m 1
 447 44 371 -10 274 -10 c 0
 114 -10 38 114 38 243 c 0
 38 371 113 496 273 496 c 0
 370 496 446 441 484 354 c 1
 370 310 l 1
 358 357 321 384 273 384 c 0
 191 384 159 316 159 243 c 0
 159 169 190 102 273 102 c 0
 321 102 358 130 370 176 c 1
 479 135 l 1
EndSplineSet
EndChar
StartChar: Ccaron
Encoding: 268 268 198
Width: 704
GlyphClass: 2
Flags: MW
HStem: -10 118<304 422.5 304 446.5> 583 118<303 421> 771 162<208 362>
VStem: 44 123<281.5 414 281.5 439.5> 208 309<933 933>
LayerCount: 2
Back
Fore
SplineSet
517 933 m 1
 362 771 l 1
 208 933 l 1
 300 933 l 1
 362 867 l 1
 424 933 l 1
 517 933 l 1
563 457 m 1
 537 548 466 583 376 583 c 0
 230 583 167 478 167 350 c 0
 167 213 230 108 378 108 c 0
 467 108 528 143 565 236 c 1
 680 189 l 1
 625 60 515 -10 378 -10 c 0
 151 -10 44 156 44 345 c 0
 44 534 150 701 377 701 c 0
 514 701 623 632 679 503 c 1
 563 457 l 1
EndSplineSet
EndChar
StartChar: ccaron
Encoding: 269 269 199
Width: 489
GlyphClass: 2
Flags: MW
HStem: -10 112<231.5 297 231.5 322.5> 384 112<232 297> 566 162<106 261>
VStem: 38 121<206 279.5 206 307> 106 309
LayerCount: 2
Back
Fore
SplineSet
416 728 m 1x28
 261 566 l 1
 106 728 l 1
 199 728 l 1
 261 662 l 1
 323 728 l 1
 416 728 l 1x28
479 135 m 1xd0
 447 44 371 -10 274 -10 c 0
 114 -10 38 114 38 243 c 0
 38 371 113 496 273 496 c 0
 370 496 446 441 484 354 c 1
 370 310 l 1
 358 357 321 384 273 384 c 0
 191 384 159 316 159 243 c 0
 159 169 190 102 273 102 c 0
 321 102 358 130 370 176 c 1
 479 135 l 1xd0
EndSplineSet
EndChar
StartChar: Dcaron
Encoding: 270 270 200
Width: 675
GlyphClass: 2
Flags: MW
HStem: 0 114<198 260 260 272> 576 114<198 272 198 198> 770 162<198 353>
VStem: 74 124<114 576 114 690 114 690> 198 309 508 124<259 426.5>
LayerCount: 2
Back
Fore
SplineSet
508 932 m 1
 353 770 l 1
 198 932 l 1
 291 932 l 1
 353 866 l 1
 415 932 l 1
 508 932 l 1
508 345 m 0
 508 508 442 576 272 576 c 2
 198 576 l 1
 198 114 l 1
 260 114 l 2
 412 114 508 173 508 345 c 0
74 0 m 1
 74 690 l 1
 274 690 l 2
 508 690 632 563 632 340 c 0
 632 125 505 0 272 0 c 2
 74 0 l 1
EndSplineSet
EndChar
StartChar: dcaron
Encoding: 271 271 201
Width: 579
GlyphClass: 2
Flags: MW
HStem: -10 110<230 265.5> 0 21G<380 501 380 380> 390 108<230 266 173 309.5> 468 222<597 600 380 531> 670 20G<380 501 501 501 597 721 721 721>
VStem: 32 121 380 121<0 49 49 49 439 690 0 690> 531 190
LayerCount: 2
Back
Fore
SplineSet
597 690 m 1x11
 721 690 l 1
 600 468 l 1
 531 468 l 1
 597 690 l 1x11
380 439 m 1xae
 380 690 l 1
 501 690 l 1
 501 0 l 1
 380 0 l 1x6e
 380 49 l 1
 343 4 292 -10 239 -10 c 0
 107 -10 32 109 32 244 c 0
 32 379 107 498 239 498 c 0
 293 498 345 481 380 439 c 1xae
270 100 m 0xae
 349 100 385 161 385 244 c 0
 385 326 349 390 270 390 c 0
 190 390 152 325 152 244 c 0
 152 162 190 100 270 100 c 0xae
EndSplineSet
EndChar
StartChar: Dcroat
Encoding: 272 272 202
Width: 681
GlyphClass: 2
Flags: MW
HStem: 0 112<192 257 257 269> 280 75 579 111<192 192 192 268>
VStem: 72 119 516 120<340 423>
LayerCount: 2
Back
Fore
SplineSet
192 579 m 1
 192 356 l 1
 398 356 l 1
 398 280 l 1
 192 280 l 1
 192 112 l 1
 257 112 l 2
 410 112 516 180 516 345 c 0
 516 501 440 579 268 579 c 2
 192 579 l 1
72 690 m 1
 270 690 l 2
 503 690 636 564 636 340 c 0
 635 124 500 0 269 0 c 2
 72 0 l 1
 72 280 l 1
 18 280 l 1
 18 356 l 1
 72 356 l 1
 72 690 l 1
EndSplineSet
EndChar
StartChar: dcroat
Encoding: 273 273 203
Width: 580
GlyphClass: 2
Flags: MW
HStem: -10 108<231 279> 0 21G<384 500 384 384> 389 109<231 279 181.5 312.5> 555 75<194 384 194 384 500 574> 670 20G<384 500 500 500>
VStem: 36 116<202 285.5 202 311.5> 384 116<0 36 36 36 452 555 0 555 630 690>
LayerCount: 2
Back
Fore
SplineSet
500 690 m 1xbe
 500 630 l 1
 574 630 l 1
 574 555 l 1
 500 555 l 1
 500 0 l 1
 384 0 l 1x7e
 384 36 l 1
 350 6 306 -10 252 -10 c 0
 111 -10 36 109 36 244 c 0
 36 379 111 498 252 498 c 0
 306 498 352 480 384 452 c 1
 384 555 l 1
 194 555 l 1
 194 630 l 1
 384 630 l 1
 384 690 l 1
 500 690 l 1xbe
389 244 m 0
 389 328 353 389 272 389 c 0
 190 389 152 327 152 244 c 0
 152 160 190 98 272 98 c 0xbe
 353 98 389 159 389 244 c 0
EndSplineSet
EndChar
StartChar: Emacron
Encoding: 274 274 204
Width: 581
GlyphClass: 2
Flags: MW
HStem: 0 117<203 538 203 538> 288 114<203 525 203 525> 576 114<203 538 203 203> 790 70<132 485 132 485>
VStem: 79 124<117 288 117 402 402 576>
LayerCount: 2
Back
Fore
SplineSet
132 860 m 1
 485 860 l 1
 485 790 l 1
 132 790 l 1
 132 860 l 1
203 288 m 1
 203 117 l 1
 538 117 l 1
 538 0 l 1
 79 0 l 1
 79 690 l 1
 538 690 l 1
 538 576 l 1
 203 576 l 1
 203 402 l 1
 525 402 l 1
 525 288 l 1
 203 288 l 1
EndSplineSet
EndChar
StartChar: emacron
Encoding: 275 275 205
Width: 516
GlyphClass: 2
Flags: MW
HStem: -6 111<233.5 295.5 233.5 310.5> 205 86<153 374 153 487 152 374> 394 100<228.5 297> 584 70<85 438 85 438>
VStem: 27 125<205 205 205 305>
LayerCount: 2
Back
Fore
SplineSet
85 654 m 1
 438 654 l 1
 438 584 l 1
 85 584 l 1
 85 654 l 1
262 394 m 0
 195 394 162 350 153 291 c 1
 374 291 l 1
 366 357 332 394 262 394 c 0
391 150 m 1
 473 78 l 1
 416 17 351 -6 270 -6 c 0
 107 -6 27 111 27 241 c 0
 27 369 102 494 262 494 c 0
 439 494 491 368 491 242 c 0
 491 220 487 205 487 205 c 1
 152 205 l 1
 160 145 198 105 269 105 c 0
 322 105 356 114 391 150 c 1
EndSplineSet
EndChar
StartChar: Ebreve
Encoding: 276 276 206
Width: 581
GlyphClass: 2
Flags: MW
HStem: 0 117<203 538 203 538> 288 114<203 525 203 525> 576 114<203 538 203 203> 770 70<288 328 288 353.5> 882 20G<154 238 238 238 378 462 462 462>
VStem: 79 124<117 288 117 402 402 576> 154 84<887 902 877.5 902> 378 84<887 902 849 902>
LayerCount: 2
Back
Fore
SplineSet
378 887 m 2x1b
 378 902 l 1
 462 902 l 1
 462 887 l 2
 462 811 399 770 308 770 c 0
 217 770 154 811 154 887 c 2
 154 902 l 1
 238 902 l 1
 238 887 l 2
 238 868 268 840 308 840 c 0
 348 840 378 868 378 887 c 2x1b
203 288 m 1xe4
 203 117 l 1
 538 117 l 1
 538 0 l 1
 79 0 l 1
 79 690 l 1
 538 690 l 1
 538 576 l 1
 203 576 l 1
 203 402 l 1
 525 402 l 1
 525 288 l 1
 203 288 l 1xe4
EndSplineSet
EndChar
StartChar: ebreve
Encoding: 277 277 207
Width: 516
GlyphClass: 2
Flags: MW
HStem: -6 111<233.5 295.5 233.5 310.5> 205 86<153 374 153 487 152 374> 394 100<228.5 297> 564 70<242 282 242 307.5> 676 20G<108 192 192 192 332 416 416 416>
VStem: 27 125<205 205 205 305> 108 84<681 696 671.5 696> 332 84<681 696 643 696>
LayerCount: 2
Back
Fore
SplineSet
332 681 m 2x1b
 332 696 l 1
 416 696 l 1
 416 681 l 2
 416 605 353 564 262 564 c 0
 171 564 108 605 108 681 c 2
 108 696 l 1
 192 696 l 1
 192 681 l 2
 192 662 222 634 262 634 c 0
 302 634 332 662 332 681 c 2x1b
262 394 m 0xe4
 195 394 162 350 153 291 c 1
 374 291 l 1
 366 357 332 394 262 394 c 0xe4
391 150 m 1
 473 78 l 1
 416 17 351 -6 270 -6 c 0
 107 -6 27 111 27 241 c 0
 27 369 102 494 262 494 c 0
 439 494 491 368 491 242 c 0
 491 220 487 205 487 205 c 1
 152 205 l 1
 160 145 198 105 269 105 c 0
 322 105 356 114 391 150 c 1
EndSplineSet
EndChar
StartChar: Edotaccent
Encoding: 278 278 208
Width: 581
GlyphClass: 2
Flags: MW
HStem: 0 117<203 538 203 538> 288 114<203 525 203 525> 576 114<203 538 203 203> 770 155<286.5 329.5 286.5 329.5>
VStem: 79 124<117 288 117 402 402 576> 231 155<826.5 869.5>
LayerCount: 2
Back
Fore
SplineSet
308 770 m 0
 264 770 231 805 231 848 c 0
 231 891 265 925 308 925 c 0
 351 925 386 891 386 848 c 0
 386 805 351 770 308 770 c 0
203 288 m 1
 203 117 l 1
 538 117 l 1
 538 0 l 1
 79 0 l 1
 79 690 l 1
 538 690 l 1
 538 576 l 1
 203 576 l 1
 203 402 l 1
 525 402 l 1
 525 288 l 1
 203 288 l 1
EndSplineSet
EndChar
StartChar: edotaccent
Encoding: 279 279 209
Width: 516
GlyphClass: 2
Flags: MW
HStem: -6 111<233.5 295.5 233.5 310.5> 205 86<153 374 153 487 152 374> 394 100<228.5 297> 564 155<239.5 282.5>
VStem: 27 125<205 205 205 305> 184 155<620.5 663.5>
LayerCount: 2
Back
Fore
SplineSet
261 564 m 0
 218 564 184 599 184 642 c 0
 184 685 218 719 261 719 c 0
 304 719 339 685 339 642 c 0
 339 599 304 564 261 564 c 0
262 394 m 0
 195 394 162 350 153 291 c 1
 374 291 l 1
 366 357 332 394 262 394 c 0
391 150 m 1
 473 78 l 1
 416 17 351 -6 270 -6 c 0
 107 -6 27 111 27 241 c 0
 27 369 102 494 262 494 c 0
 439 494 491 368 491 242 c 0
 491 220 487 205 487 205 c 1
 152 205 l 1
 160 145 198 105 269 105 c 0
 322 105 356 114 391 150 c 1
EndSplineSet
EndChar
StartChar: Eogonek
Encoding: 280 280 210
Width: 579
GlyphClass: 2
Flags: MW
HStem: -220 73<396.5 417.5 396.5 436> 0 117<199 381 199 534> 288 114<199 521 199 521> 576 114<199 534 199 199>
VStem: 75 124<117 288 402 576> 301 71<-121.5 -80.5>
LayerCount: 2
Back
Fore
SplineSet
518 -160 m 1
 495 -195 462 -220 410 -220 c 0
 348 -220 301 -180 301 -119 c 0
 301 -42 381 0 381 0 c 1
 75 0 l 1
 75 690 l 1
 534 690 l 1
 534 576 l 1
 199 576 l 1
 199 402 l 1
 521 402 l 1
 521 288 l 1
 199 288 l 1
 199 117 l 1
 534 117 l 1
 534 0 l 1
 503 -9 372 -50 372 -108 c 0
 372 -135 388 -147 405 -147 c 0
 430 -147 444 -138 458 -119 c 1
 518 -160 l 1
EndSplineSet
EndChar
StartChar: eogonek
Encoding: 281 281 211
Width: 515
GlyphClass: 2
Flags: MW
HStem: -218 73 205 86<151 373 151 486 151 373> 394 100<227 295.5>
VStem: 25 125 113 71<-120.5 -79>
LayerCount: 2
Back
Fore
SplineSet
490 242 m 0xf0
 490 220 487 211 486 205 c 1
 151 205 l 1xf0
 159 146 197 105 268 105 c 0
 321 105 355 114 390 150 c 2
 403 163 l 1
 487 93 l 1
 472 78 l 2
 433 36 390 12 341 1 c 0
 310 -8 184 -47 184 -107 c 0
 184 -134 200 -146 217 -146 c 0
 242 -146 256 -137 269 -118 c 1
 330 -159 l 1
 306 -194 274 -218 222 -218 c 0
 160 -218 113 -179 113 -118 c 0xe8
 113 -40 202 1 202 1 c 1
 84 29 25 130 25 241 c 0
 25 369 101 494 260 494 c 0
 438 494 490 368 490 242 c 0xf0
260 394 m 0
 194 394 161 350 151 291 c 1
 373 291 l 1
 365 357 331 394 260 394 c 0
EndSplineSet
EndChar
StartChar: Ecaron
Encoding: 282 282 212
Width: 581
GlyphClass: 2
Flags: MW
HStem: 0 117<203 538 203 538> 288 114<203 525 203 525> 576 114<203 538 203 203> 770 162<154 308>
VStem: 79 124<117 288 117 402 402 576> 154 309<932 932>
LayerCount: 2
Back
Fore
SplineSet
463 932 m 1x14
 308 770 l 1
 154 932 l 1
 246 932 l 1
 308 866 l 1
 370 932 l 1
 463 932 l 1x14
203 288 m 1xe8
 203 117 l 1
 538 117 l 1
 538 0 l 1
 79 0 l 1
 79 690 l 1
 538 690 l 1
 538 576 l 1
 203 576 l 1
 203 402 l 1
 525 402 l 1
 525 288 l 1
 203 288 l 1xe8
EndSplineSet
EndChar
StartChar: ecaron
Encoding: 283 283 213
Width: 516
GlyphClass: 2
Flags: MW
HStem: -6 111<233.5 295.5 233.5 310.5> 205 86<153 374 153 487 152 374> 394 100<228.5 297> 564 162<107 262>
VStem: 27 125<205 205 205 305> 107 309<726 726>
LayerCount: 2
Back
Fore
SplineSet
416 726 m 1x14
 262 564 l 1
 107 726 l 1
 199 726 l 1
 262 660 l 1
 324 726 l 1
 416 726 l 1x14
262 394 m 0xe8
 195 394 162 350 153 291 c 1
 374 291 l 1
 366 357 332 394 262 394 c 0xe8
391 150 m 1
 473 78 l 1
 416 17 351 -6 270 -6 c 0
 107 -6 27 111 27 241 c 0
 27 369 102 494 262 494 c 0
 439 494 491 368 491 242 c 0
 491 220 487 205 487 205 c 1
 152 205 l 1
 160 145 198 105 269 105 c 0
 322 105 356 114 391 150 c 1
EndSplineSet
EndChar
StartChar: gcircumflex
Encoding: 285 285 215
Width: 518
GlyphClass: 2
Flags: MW
HStem: -224 106<239 304 239 330> -22 109<270 316.5> 138 95<253 300 247.5 326> 404 90<247.5 288 217 300> 622 162
VStem: 41 111<118 132 114 152> 73 119<303.5 341 293 372.5> 117 309<622 622> 355 115<293 335.5 260.5 341> 412 101<-83.5 -41.5>
LayerCount: 2
Back
Fore
SplineSet
426 622 m 1x09
 334 622 l 1
 271 687 l 1
 209 622 l 1
 117 622 l 1
 271 783 l 1
 426 622 l 1x09
273 -118 m 0xf040
 335 -118 412 -107 412 -60 c 0
 412 -23 348 -22 285 -22 c 0
 255 -22 210 -21 183 -16 c 1
 131 -56 l 1
 138 -99 205 -118 273 -118 c 0xf040
355 317 m 0xf280
 355 365 326 404 274 404 c 0
 221 404 192 365 192 317 c 0
 192 269 221 233 274 233 c 0
 326 233 355 269 355 317 c 0xf280
93 238 m 1
 79 264 73 288 73 319 c 0
 73 426 162 494 272 494 c 0
 304 494 336 486 360 476 c 1
 444 554 l 1
 514 464 l 1
 441 414 l 1
 460 385 470 355 470 316 c 0xf280
 470 205 380 138 272 138 c 0
 234 138 198 147 170 161 c 1
 159 149 152 137 152 127 c 0
 152 101 199 87 289 87 c 0
 393 87 513 85 513 -40 c 0
 513 -182 387 -224 273 -224 c 0
 175 -224 32 -191 32 -50 c 0
 32 -26 42 2 42 2 c 1
 42 3 l 1
 100 25 l 1
 58 56 41 104 41 132 c 0xf440
 41 172 65 209 93 238 c 1
EndSplineSet
EndChar
StartChar: Gbreve
Encoding: 286 286 216
Width: 752
GlyphClass: 2
Flags: MW
HStem: -10 111<304 424> 0 21G<593 691 593 593> 273 100<414 691 414 571> 593 108<303 420> 771 70<357 397 357 422.5> 883 20G<223 307 307 307 447 531 531 531>
VStem: 44 123<281.5 414 281.5 439.5> 223 84<888 903 878.5 903> 447 84<888 903 850 903> 593 98<0 373>
LayerCount: 2
Back
Fore
SplineSet
447 888 m 2x0d80
 447 903 l 1
 531 903 l 1
 531 888 l 2
 531 812 468 771 377 771 c 0
 286 771 223 812 223 888 c 2
 223 903 l 1
 307 903 l 1
 307 888 l 2
 307 869 337 841 377 841 c 0
 417 841 447 869 447 888 c 2x0d80
414 273 m 1xb240
 414 373 l 1
 691 373 l 1
 691 0 l 1
 593 0 l 1x7240
 582 97 l 1
 536 33 470 -10 378 -10 c 0
 151 -10 44 156 44 345 c 0
 44 534 149 701 377 701 c 0
 513 701 622 632 678 503 c 1
 568 457 l 1
 536 551 464 593 376 593 c 0
 230 593 167 478 167 350 c 0
 167 213 230 101 378 101 c 0
 477 101 557 168 571 273 c 1
 414 273 l 1xb240
EndSplineSet
EndChar
StartChar: gbreve
Encoding: 287 287 217
Width: 518
GlyphClass: 2
Flags: MW
HStem: -224 106<239 304 239 330> -22 109<270 316.5> 138 95<253 300 247.5 326> 404 90<247.5 288 217 300> 622 70<239 279.5 239 304.5> 734 20G<105 189 189 189 329 413 413 413>
VStem: 41 111<118 132 114 152> 73 119<303.5 341 293 372.5> 105 84<739 754 729 754> 329 84<739 754 701 754> 355 115<293 335.5 260.5 341> 412 101<-83.5 -41.5>
LayerCount: 2
Back
Fore
SplineSet
329 739 m 2x0cc0
 329 754 l 1
 413 754 l 1
 413 739 l 2
 413 663 350 622 259 622 c 0
 169 622 105 663 105 739 c 2
 105 754 l 1
 189 754 l 1
 189 739 l 2
 189 719 219 692 259 692 c 0
 300 692 329 719 329 739 c 2x0cc0
273 -118 m 0xf010
 335 -118 412 -107 412 -60 c 0
 412 -23 348 -22 285 -22 c 0
 255 -22 210 -21 183 -16 c 1
 131 -56 l 1
 138 -99 205 -118 273 -118 c 0xf010
355 317 m 0xf120
 355 365 326 404 274 404 c 0
 221 404 192 365 192 317 c 0
 192 269 221 233 274 233 c 0
 326 233 355 269 355 317 c 0xf120
93 238 m 1
 79 264 73 288 73 319 c 0
 73 426 162 494 272 494 c 0
 304 494 336 486 360 476 c 1
 444 554 l 1
 514 464 l 1
 441 414 l 1
 460 385 470 355 470 316 c 0xf120
 470 205 380 138 272 138 c 0
 234 138 198 147 170 161 c 1
 159 149 152 137 152 127 c 0
 152 101 199 87 289 87 c 0
 393 87 513 85 513 -40 c 0
 513 -182 387 -224 273 -224 c 0
 175 -224 32 -191 32 -50 c 0
 32 -26 42 2 42 2 c 1
 42 3 l 1
 100 25 l 1
 58 56 41 104 41 132 c 0xf210
 41 172 65 209 93 238 c 1
EndSplineSet
EndChar
StartChar: Gdotaccent
Encoding: 288 288 218
Width: 752
GlyphClass: 2
Flags: MW
HStem: -10 111<304 424> 0 21G<593 691 593 593> 273 100<414 691 414 571> 593 108<303 420> 771 155<355 398.5>
VStem: 44 123<281.5 414 281.5 439.5> 300 155<827.5 870.5> 593 98<0 373>
LayerCount: 2
Back
Fore
SplineSet
377 771 m 0x0a
 333 771 300 806 300 849 c 0
 300 892 333 926 377 926 c 0
 420 926 455 892 455 849 c 0
 455 806 420 771 377 771 c 0x0a
414 273 m 1xb5
 414 373 l 1
 691 373 l 1
 691 0 l 1
 593 0 l 1x75
 582 97 l 1
 536 33 470 -10 378 -10 c 0
 151 -10 44 156 44 345 c 0
 44 534 149 701 377 701 c 0
 513 701 622 632 678 503 c 1
 568 457 l 1
 536 551 464 593 376 593 c 0
 230 593 167 478 167 350 c 0
 167 213 230 101 378 101 c 0
 477 101 557 168 571 273 c 1
 414 273 l 1xb5
EndSplineSet
EndChar
StartChar: uni0122
Encoding: 290 290 220
Width: 752
GlyphClass: 2
Flags: MW
HStem: -302 222<349 352 283 473> -10 111<304 424> 0 21G<593 691 593 593> 273 100<414 691 414 571> 593 108<303 420>
VStem: 44 123<281.5 414 281.5 439.5> 283 190 593 98<0 373>
LayerCount: 2
Back
Fore
SplineSet
349 -80 m 1x82
 473 -80 l 1
 352 -302 l 1
 283 -302 l 1
 349 -80 l 1x82
414 273 m 1x5d
 414 373 l 1
 691 373 l 1
 691 0 l 1
 593 0 l 1x3d
 582 97 l 1
 536 33 470 -10 378 -10 c 0
 151 -10 44 156 44 345 c 0
 44 534 149 701 377 701 c 0
 513 701 622 632 678 503 c 1
 568 457 l 1
 536 551 464 593 376 593 c 0
 230 593 167 478 167 350 c 0
 167 213 230 101 378 101 c 0
 477 101 557 168 571 273 c 1
 414 273 l 1x5d
EndSplineSet
EndChar
StartChar: Hbar
Encoding: 294 294 224
Width: 700
GlyphClass: 2
Flags: MW
HStem: 0 21G<75 199 75 75 501 625 501 501> 288 114<199 501 199 501> 512 74 670 20G<75 199 199 199 501 625 625 625>
VStem: 75 124<0 288 0 402 402 512 512 512 587 690> 501 124<0 288 288 288 402 512 0 514 0 514 587 690>
LayerCount: 2
Back
Fore
SplineSet
501 586 m 1
 501 690 l 1
 625 690 l 1
 625 587 l 1
 672 587 l 1
 672 512 l 1
 625 512 l 1
 625 0 l 1
 501 0 l 1
 501 288 l 1
 199 288 l 1
 199 0 l 1
 75 0 l 1
 75 512 l 1
 28 512 l 1
 28 587 l 1
 75 587 l 1
 75 690 l 1
 199 690 l 1
 199 586 l 1
 501 586 l 1
501 514 m 1
 199 514 l 1
 199 402 l 1
 501 402 l 1
 501 514 l 1
EndSplineSet
EndChar
StartChar: hbar
Encoding: 295 295 225
Width: 572
GlyphClass: 2
Flags: MW
HStem: 0 21G<72 194 72 72 391 512 391 391> 382 117<298.5 344> 551 75<28 72 28 72 194 396> 670 20G<72 194 194 194>
VStem: 72 122<0 294 436 551 626 690> 391 121<0 280 280 286 0 309.5>
LayerCount: 2
Back
Fore
SplineSet
194 436 m 1
 230 482 275 499 322 499 c 0
 461 499 512 392 512 286 c 2
 512 0 l 1
 391 0 l 1
 391 280 l 2
 391 339 375 382 313 382 c 0
 254 382 206 342 194 294 c 1
 194 0 l 1
 72 0 l 1
 72 551 l 1
 28 551 l 1
 28 626 l 1
 72 626 l 1
 72 690 l 1
 194 690 l 1
 194 626 l 1
 396 626 l 1
 396 551 l 1
 194 551 l 1
 194 436 l 1
EndSplineSet
EndChar
StartChar: Itilde
Encoding: 296 296 226
Width: 277
GlyphClass: 2
Flags: MW
HStem: 0 21G<79 79 79 203> 670 20G<79 203 203 203> 770 84<201.5 232 201.5 256.5> 820 83<52 91>
VStem: -58 83<783 794 783 795 783 824.5> 79 124<0 690 0 690> 252 87<891 900 852 900>
LayerCount: 2
Back
Fore
SplineSet
339 888 m 2x2a
 339 816 296 770 217 770 c 0x2a
 126 770 120 820 62 820 c 0
 42 820 25 812 25 794 c 2
 25 783 l 1
 -58 783 l 1
 -58 795 l 2
 -58 854 -22 903 53 903 c 0x1a
 158 903 183 854 220 854 c 0
 244 854 252 863 252 891 c 2
 252 900 l 1
 339 900 l 1
 339 888 l 2x2a
79 0 m 1xc4
 79 690 l 1
 203 690 l 1
 203 0 l 1
 79 0 l 1xc4
EndSplineSet
EndChar
StartChar: itilde
Encoding: 297 297 227
Width: 255
GlyphClass: 2
Flags: MW
HStem: 0 21G<73 183 73 73> 468 20G<73 183 183 183> 564 84<189.5 219.5 189.5 243.5> 614 83<39.5 79>
VStem: -70 83 73 110<0 488 0 488> 240 87
LayerCount: 2
Back
Fore
SplineSet
326 682 m 2x2a
 326 610 283 564 204 564 c 0x2a
 113 564 108 614 50 614 c 0
 29 614 12 606 12 588 c 2
 12 577 l 1
 -70 577 l 1
 -70 589 l 2
 -70 648 -34 697 40 697 c 0x1a
 146 697 171 648 208 648 c 0
 231 648 240 657 240 685 c 2
 240 694 l 1
 326 694 l 1
 326 682 l 2x2a
183 488 m 1xc4
 183 0 l 1
 73 0 l 1
 73 488 l 1
 183 488 l 1xc4
EndSplineSet
EndChar
StartChar: Imacron
Encoding: 298 298 228
Width: 277
GlyphClass: 2
Flags: MW
HStem: 0 21G<79 79 79 203> 670 20G<79 203 203 203> 790 70<-36 317 -36 317>
VStem: 79 124<0 690 0 690>
LayerCount: 2
Back
Fore
SplineSet
-36 860 m 1
 317 860 l 1
 317 790 l 1
 -36 790 l 1
 -36 860 l 1
79 0 m 1
 79 690 l 1
 203 690 l 1
 203 0 l 1
 79 0 l 1
EndSplineSet
EndChar
StartChar: imacron
Encoding: 299 299 229
Width: 255
GlyphClass: 2
Flags: MW
HStem: 0 21G<73 183 73 73> 468 20G<73 183 183 183> 584 70<-48 304 -48 304>
VStem: 73 110<0 488 0 488>
LayerCount: 2
Back
Fore
SplineSet
-48 654 m 1
 304 654 l 1
 304 584 l 1
 -48 584 l 1
 -48 654 l 1
183 488 m 1
 183 0 l 1
 73 0 l 1
 73 488 l 1
 183 488 l 1
EndSplineSet
EndChar
StartChar: Ibreve
Encoding: 300 300 230
Width: 277
GlyphClass: 2
Flags: MW
HStem: 0 21G<79 79 79 203> 670 20G<79 203 203 203> 770 70<121 161 121 186.5> 882 20G<-13 71 71 71 211 295 295 295>
VStem: -13 84<887 902 877.5 902> 79 124<0 690 0 690> 211 84<887 902 849 902>
CounterMasks: 1 0e
LayerCount: 2
Back
Fore
SplineSet
211 887 m 2
 211 902 l 1
 295 902 l 1
 295 887 l 2
 295 811 232 770 141 770 c 0
 50 770 -13 811 -13 887 c 2
 -13 902 l 1
 71 902 l 1
 71 887 l 2
 71 868 101 840 141 840 c 0
 181 840 211 868 211 887 c 2
79 0 m 1
 79 690 l 1
 203 690 l 1
 203 0 l 1
 79 0 l 1
EndSplineSet
EndChar
StartChar: ibreve
Encoding: 301 301 231
Width: 255
GlyphClass: 2
Flags: MW
HStem: 0 21G<73 183 73 73> 468 20G<73 183 183 183> 564 70<108 148 108 173.5> 676 20G<-26 58 58 58 198 282 282 282>
VStem: -26 84<681 696 671.5 696> 73 110<0 488 0 488> 198 84<681 696 643 696>
CounterMasks: 1 0e
LayerCount: 2
Back
Fore
SplineSet
198 681 m 2
 198 696 l 1
 282 696 l 1
 282 681 l 2
 282 605 219 564 128 564 c 0
 37 564 -26 605 -26 681 c 2
 -26 696 l 1
 58 696 l 1
 58 681 l 2
 58 662 88 634 128 634 c 0
 168 634 198 662 198 681 c 2
183 488 m 1
 183 0 l 1
 73 0 l 1
 73 488 l 1
 183 488 l 1
EndSplineSet
EndChar
StartChar: Iogonek
Encoding: 302 302 232
Width: 264
GlyphClass: 2
Flags: MW
HStem: -212 73<71.5 92 71.5 110.5> 670 20G<72 192 192 192>
VStem: -25 71<-114 -73> 72 119
LayerCount: 2
Back
Fore
SplineSet
193 -153 m 1
 169 -188 137 -212 84 -212 c 0
 22 -212 -25 -173 -25 -112 c 0
 -25 -34 72 0 72 0 c 1
 72 690 l 1
 192 690 l 1
 192 0 l 1
 161 -9 46 -41 46 -101 c 0
 46 -127 63 -139 80 -139 c 0
 104 -139 119 -131 132 -112 c 1
 193 -153 l 1
EndSplineSet
EndChar
StartChar: iogonek
Encoding: 303 303 233
Width: 256
GlyphClass: 2
Flags: MW
HStem: -212 73<67.5 88 67.5 106.5> 468 20G<72 184 184 184> 564 129<68 188 68 188>
VStem: -29 71<-114 -73> 72 113
LayerCount: 2
Back
Fore
SplineSet
189 -153 m 1
 165 -188 133 -212 80 -212 c 0
 18 -212 -29 -173 -29 -112 c 0
 -29 -34 72 0 72 0 c 1
 72 488 l 1
 184 488 l 1
 184 0 l 1
 154 -9 42 -37 42 -101 c 0
 42 -127 59 -139 76 -139 c 0
 100 -139 115 -131 128 -112 c 1
 189 -153 l 1
68 693 m 1
 188 693 l 1
 188 564 l 1
 68 564 l 1
 68 693 l 1
EndSplineSet
EndChar
StartChar: Idotaccent
Encoding: 304 304 234
Width: 277
GlyphClass: 2
Flags: MW
HStem: 0 21G<79 79 79 203> 670 20G<79 203 203 203> 770 155<118.5 161.5 118.5 162>
VStem: 63 155<826.5 869.5> 79 124<0 690 0 690>
LayerCount: 2
Back
Fore
SplineSet
140 770 m 0x30
 97 770 63 805 63 848 c 0
 63 891 97 925 140 925 c 0
 183 925 218 891 218 848 c 0
 218 805 184 770 140 770 c 0x30
79 0 m 1xc8
 79 690 l 1
 203 690 l 1
 203 0 l 1
 79 0 l 1xc8
EndSplineSet
EndChar
StartChar: dotlessi
Encoding: 305 305 235
Width: 255
GlyphClass: 2
Flags: MW
HStem: 0 21G<73 183 73 73> 468 20G<73 183 183 183>
VStem: 73 110<0 488 0 488>
LayerCount: 2
Back
Fore
SplineSet
183 488 m 1
 183 0 l 1
 73 0 l 1
 73 488 l 1
 183 488 l 1
EndSplineSet
EndChar
StartChar: IJ
Encoding: 306 306 236
Width: 779
GlyphClass: 2
Flags: MW
HStem: -10 115<454 536 454 575> 0 21G<79 79 79 203> 576 114<340 601> 670 20G<79 203 203 203 340 724 724 724>
VStem: 79 124<0 690 0 690> 258 122<215 229> 601 123<247 249 249 576 576 576>
LayerCount: 2
Back
Fore
SplineSet
491 105 m 0xa6
 581 105 601 157 601 247 c 2
 601 576 l 1
 340 576 l 1
 340 690 l 1
 724 690 l 1
 724 249 l 2
 724 102 659 -10 491 -10 c 0
 350 -10 266 93 258 215 c 1
 380 229 l 1
 384 161 417 105 491 105 c 0xa6
79 0 m 1x58
 79 690 l 1
 203 690 l 1
 203 0 l 1
 79 0 l 1x58
EndSplineSet
EndChar
StartChar: ij
Encoding: 307 307 237
Width: 526
GlyphClass: 2
Flags: MW
HStem: -214 112<293.5 316.5 293.5 359> 0 21G<72 72 72 190> 468 20G<72 190 190 190 333 452 452 452> 559 134<69 194 69 194 333 458>
VStem: 72 118<0 488 0 488> 333 119<-60 -51 -51 488>
LayerCount: 2
Back
Fore
SplineSet
333 559 m 1
 333 693 l 1
 458 693 l 1
 458 559 l 1
 333 559 l 1
333 488 m 1
 452 488 l 1
 452 -51 l 2
 452 -141 410 -214 308 -214 c 0
 267 -214 226 -198 225 -198 c 2
 255 -95 l 1
 255 -95 282 -102 305 -102 c 0
 328 -102 333 -91 333 -60 c 2
 333 488 l 1
72 0 m 1
 72 488 l 1
 190 488 l 1
 190 0 l 1
 72 0 l 1
69 559 m 1
 69 693 l 1
 194 693 l 1
 194 559 l 1
 69 559 l 1
EndSplineSet
EndChar
StartChar: Jcircumflex
Encoding: 308 308 238
Width: 517
GlyphClass: 2
Flags: MW
HStem: -10 115<190 272 190 311> 576 114<76 337 76 460> 770 162<113 268 113 268 268 422 268 330>
VStem: -6 122<215 229> 113 309<770 770> 337 123<247 249 249 576 576 576>
LayerCount: 2
Back
Fore
SplineSet
422 770 m 1x28
 330 770 l 1
 268 835 l 1
 205 770 l 1
 113 770 l 1
 268 932 l 1
 422 770 l 1x28
227 105 m 0xd4
 317 105 337 157 337 247 c 2
 337 576 l 1
 76 576 l 1
 76 690 l 1
 460 690 l 1
 460 249 l 2
 460 102 395 -10 227 -10 c 0
 86 -10 2 93 -6 215 c 1
 116 229 l 1
 120 161 153 105 227 105 c 0xd4
EndSplineSet
EndChar
StartChar: jcircumflex
Encoding: 309 309 239
Width: 261
GlyphClass: 2
Flags: MW
HStem: -214 107<30 55.5 30 94.5> 468 20G<75 189 189 189> 564 162<-23 132 -23 132 132 287 132 194>
VStem: -23 309 75 114<-60 -56 -56 488>
LayerCount: 2
Back
Fore
SplineSet
287 564 m 1x30
 194 564 l 1
 132 629 l 1
 70 564 l 1
 -23 564 l 1
 132 726 l 1
 287 564 l 1x30
189 -56 m 2xc8
 189 -144 144 -214 45 -214 c 0
 5 -214 -36 -198 -36 -198 c 1
 -9 -100 l 1
 -9 -100 18 -107 42 -107 c 0
 69 -107 75 -91 75 -60 c 2
 75 488 l 1
 189 488 l 1
 189 -56 l 2xc8
EndSplineSet
EndChar
StartChar: uni0136
Encoding: 310 310 240
Width: 673
GlyphClass: 2
Flags: MW
HStem: -292 222<358 362 292 483> 0 21G<80 203 80 80 551 700 551 551> 670 20G<80 203 203 203 549 715 715 715>
VStem: 80 123<0 179 330 690> 292 190
LayerCount: 2
Back
Fore
SplineSet
358 -70 m 1
 483 -70 l 1
 362 -292 l 1
 292 -292 l 1
 358 -70 l 1
203 690 m 1
 203 330 l 1
 549 690 l 1
 715 690 l 1
 432 405 l 1
 700 0 l 1
 551 0 l 1
 346 322 l 1
 203 179 l 1
 203 0 l 1
 80 0 l 1
 80 690 l 1
 203 690 l 1
EndSplineSet
EndChar
StartChar: uni0137
Encoding: 311 311 241
Width: 529
GlyphClass: 2
Flags: MW
HStem: -292 222<287 290 221 411> 0 21G<79 198 79 79 415 557 415 415> 468 20G<382 537 537 537> 670 20G<79 198 198 198>
VStem: 79 119<0 143 285 690> 221 190
LayerCount: 2
Back
Fore
SplineSet
287 -70 m 1
 411 -70 l 1
 290 -292 l 1
 221 -292 l 1
 287 -70 l 1
382 488 m 1
 537 488 l 1
 354 299 l 1
 557 0 l 1
 415 0 l 1
 272 226 l 1
 198 143 l 1
 198 0 l 1
 79 0 l 1
 79 690 l 1
 198 690 l 1
 198 285 l 1
 382 488 l 1
EndSplineSet
EndChar
StartChar: kgreenlandic
Encoding: 312 312 242
Width: 531
GlyphClass: 2
Flags: MW
HStem: 0 21G<75 194 75 75 412 553 412 412> 468 20G<75 194 194 194 378 533 533 533>
VStem: 75 119<0 143 285 488>
LayerCount: 2
Back
Fore
SplineSet
378 488 m 1
 533 488 l 1
 350 299 l 1
 553 0 l 1
 412 0 l 1
 269 226 l 1
 194 143 l 1
 194 0 l 1
 75 0 l 1
 75 488 l 1
 194 488 l 1
 194 285 l 1
 378 488 l 1
EndSplineSet
EndChar
StartChar: Lacute
Encoding: 313 313 243
Width: 504
GlyphClass: 2
Flags: MW
HStem: 0 117<203 498 203 498> 670 20G<79 203 203 203> 770 161<97 334 97 334>
VStem: 79 124<117 690 117 690 117 690> 97 237<770 931>
LayerCount: 2
Back
Fore
SplineSet
207 931 m 1x28
 334 931 l 1
 184 770 l 1
 97 770 l 1
 207 931 l 1x28
203 690 m 1xd0
 203 117 l 1
 498 117 l 1
 498 0 l 1
 79 0 l 1
 79 690 l 1
 203 690 l 1xd0
EndSplineSet
EndChar
StartChar: lacute
Encoding: 314 314 244
Width: 284
GlyphClass: 2
Flags: MW
HStem: -10 107<74 196.5> 670 20G<74 192 192 192> 760 161<88 325 88 325>
VStem: 74 119 88 237<760 921>
LayerCount: 2
Back
Fore
SplineSet
198 921 m 1x28
 325 921 l 1
 175 760 l 1
 88 760 l 1
 198 921 l 1x28
192 130 m 2xd0
 192 107 207 97 234 97 c 0
 243 97 264 100 264 100 c 1
 264 0 l 1
 264 0 214 -10 179 -10 c 0
 120 -10 74 10 74 97 c 2
 74 690 l 1
 192 690 l 1
 192 130 l 2xd0
EndSplineSet
EndChar
StartChar: uni013B
Encoding: 315 315 245
Width: 504
GlyphClass: 2
Flags: MW
HStem: -292 222<259 262 193 383> 0 117<203 498 203 498> 670 20G<79 203 203 203>
VStem: 79 124<117 690 117 690 117 690> 193 190
LayerCount: 2
Back
Fore
SplineSet
259 -70 m 1x88
 383 -70 l 1
 262 -292 l 1
 193 -292 l 1
 259 -70 l 1x88
203 690 m 1x70
 203 117 l 1
 498 117 l 1
 498 0 l 1
 79 0 l 1
 79 690 l 1
 203 690 l 1x70
EndSplineSet
EndChar
StartChar: Lcaron
Encoding: 317 317 247
Width: 504
GlyphClass: 2
Flags: MW
HStem: 0 117<203 498 203 498> 478 222<378 381 312 502> 670 20G<79 203 203 203>
VStem: 79 124<117 690 117 690 117 690> 312 190
LayerCount: 2
Back
Fore
SplineSet
378 700 m 1x48
 502 700 l 1
 381 478 l 1
 312 478 l 1
 378 700 l 1x48
203 690 m 1xb0
 203 117 l 1
 498 117 l 1
 498 0 l 1
 79 0 l 1
 79 690 l 1
 203 690 l 1xb0
EndSplineSet
EndChar
StartChar: lcaron
Encoding: 318 318 248
Width: 284
GlyphClass: 2
Flags: MW
HStem: -10 107<74 196.5> 468 222<300 304 74 234> 670 20G<74 192 192 192 300 425 425 425>
VStem: 74 119 234 190
LayerCount: 2
Back
Fore
SplineSet
300 690 m 1x48
 425 690 l 1
 304 468 l 1
 234 468 l 1
 300 690 l 1x48
192 130 m 2xb0
 192 107 207 97 234 97 c 0
 243 97 264 100 264 100 c 1
 264 0 l 1
 264 0 214 -10 179 -10 c 0
 120 -10 74 10 74 97 c 2
 74 690 l 1
 192 690 l 1
 192 130 l 2xb0
EndSplineSet
EndChar
StartChar: Ldot
Encoding: 319 319 249
Width: 504
GlyphClass: 2
Flags: MW
HStem: 0 117<203 498 203 498> 278 145 670 20G<79 203 203 203>
VStem: 79 124<117 690 117 690 117 690> 250 145<330 370.5>
LayerCount: 2
Back
Fore
SplineSet
322 278 m 0
 281 278 250 310 250 350 c 0
 250 391 281 422 322 422 c 0
 362 422 395 391 395 350 c 0
 395 310 362 278 322 278 c 0
203 690 m 1
 203 117 l 1
 498 117 l 1
 498 0 l 1
 79 0 l 1
 79 690 l 1
 203 690 l 1
EndSplineSet
EndChar
StartChar: ldot
Encoding: 320 320 250
Width: 383
GlyphClass: 2
Flags: MW
HStem: -10 107<74 196.5> 318 145<266 306 266 306.5> 670 20G<74 192 192 192>
VStem: 74 119 214 145<371 411>
LayerCount: 2
Back
Fore
SplineSet
286 318 m 0
 245 318 214 351 214 391 c 0
 214 431 246 463 286 463 c 0
 326 463 359 432 359 391 c 0
 359 351 327 318 286 318 c 0
192 130 m 2
 192 107 207 97 234 97 c 0
 243 97 264 100 264 100 c 1
 264 0 l 1
 264 0 214 -10 179 -10 c 0
 120 -10 74 10 74 97 c 2
 74 690 l 1
 192 690 l 1
 192 130 l 2
EndSplineSet
EndChar
StartChar: Lslash
Encoding: 321 321 251
Width: 509
GlyphClass: 2
Flags: MW
HStem: 0 117<199 494 199 494> 670 20G<75 199 199 199>
VStem: 75 124<117 214 214 214 117 438 438 690>
LayerCount: 2
Back
Fore
SplineSet
199 316 m 1
 199 117 l 1
 494 117 l 1
 494 0 l 1
 75 0 l 1
 75 214 l 1
 40 186 l 1
 -25 258 l 1
 75 337 l 1
 75 690 l 1
 199 690 l 1
 199 438 l 1
 238 469 l 1
 302 397 l 1
 199 316 l 1
EndSplineSet
EndChar
StartChar: lslash
Encoding: 322 322 252
Width: 274
GlyphClass: 2
Flags: MW
HStem: 0 98<178.5 261 254 261 254 261> 670 20G<70 189 189 189>
VStem: 70 119<114 128 128 214 214 214 424 690>
LayerCount: 2
Back
Fore
SplineSet
189 128 m 2
 189 100 218 98 254 98 c 2
 261 98 l 1
 261 0 l 1
 208 0 l 2
 149 0 70 19 70 106 c 2
 70 214 l 1
 40 190 l 1
 -18 257 l 1
 70 327 l 1
 70 690 l 1
 189 690 l 1
 189 424 l 1
 237 463 l 1
 295 397 l 1
 189 313 l 1
 189 128 l 2
EndSplineSet
EndChar
StartChar: Nacute
Encoding: 323 323 253
Width: 684
GlyphClass: 2
Flags: MW
HStem: 0 21G<79 198 79 79 487 610 487 487> 670 20G<79 202 202 202 492 610 610 610> 770 161<301 538 301 538>
VStem: 79 119<0 483 0 690> 301 237<770 931> 492 118<207 690 0 690>
LayerCount: 2
Back
Fore
SplineSet
411 931 m 1x28
 538 931 l 1
 388 770 l 1
 301 770 l 1
 411 931 l 1x28
492 207 m 1xd4
 492 690 l 1
 610 690 l 1
 610 0 l 1
 487 0 l 1
 198 483 l 1
 198 0 l 1
 79 0 l 1
 79 690 l 1
 202 690 l 1
 492 207 l 1xd4
EndSplineSet
EndChar
StartChar: nacute
Encoding: 324 324 254
Width: 582
GlyphClass: 2
Flags: MW
HStem: 1 20G 385 111<313 349> 468 20G<75 196 196 196> 566 161<253 490 253 490>
VStem: 75 121<1 267 431 488> 253 237<566 727> 396 121<0 278 278 293 0 308>
LayerCount: 2
Back
Fore
SplineSet
363 727 m 1x14
 490 727 l 1
 339 566 l 1
 253 566 l 1
 363 727 l 1x14
196 431 m 1xaa
 235 479 289 496 337 496 c 0
 465 496 517 395 517 293 c 2
 517 0 l 1
 396 0 l 1
 396 278 l 2
 396 338 380 385 318 385 c 0xca
 252 385 196 328 196 267 c 2
 196 1 l 1
 75 1 l 1
 75 488 l 1
 196 488 l 1
 196 431 l 1xaa
EndSplineSet
EndChar
StartChar: uni0145
Encoding: 325 325 255
Width: 684
GlyphClass: 2
Flags: MW
HStem: -292 222<315 318 249 439> 0 21G<79 198 79 79 487 610 487 487> 670 20G<79 202 202 202 492 610 610 610>
VStem: 79 119<0 483 0 690> 249 190 492 118<207 690 0 690>
LayerCount: 2
Back
Fore
SplineSet
315 -70 m 1
 439 -70 l 1
 318 -292 l 1
 249 -292 l 1
 315 -70 l 1
492 207 m 1
 492 690 l 1
 610 690 l 1
 610 0 l 1
 487 0 l 1
 198 483 l 1
 198 0 l 1
 79 0 l 1
 79 690 l 1
 202 690 l 1
 492 207 l 1
EndSplineSet
EndChar
StartChar: uni0146
Encoding: 326 326 256
Width: 582
GlyphClass: 2
Flags: MW
HStem: -292 222<249 253 183 374> 1 20G 385 111<313 349> 468 20G<75 196 196 196>
VStem: 75 121<1 267 431 488> 183 190 396 121<0 278 278 293 0 308>
LayerCount: 2
Back
Fore
SplineSet
249 -70 m 1x84
 374 -70 l 1
 253 -292 l 1
 183 -292 l 1
 249 -70 l 1x84
196 431 m 1x5a
 235 479 289 496 337 496 c 0
 465 496 517 395 517 293 c 2
 517 0 l 1
 396 0 l 1
 396 278 l 2
 396 338 380 385 318 385 c 0x6a
 252 385 196 328 196 267 c 2
 196 1 l 1
 75 1 l 1
 75 488 l 1
 196 488 l 1
 196 431 l 1x5a
EndSplineSet
EndChar
StartChar: Ncaron
Encoding: 327 327 257
Width: 684
GlyphClass: 2
Flags: MW
HStem: 0 21G<79 198 79 79 487 610 487 487> 670 20G<79 202 202 202 492 610 610 610> 770 162<190 344>
VStem: 79 119<0 483 0 690> 190 309<932 932> 492 118<207 690 0 690>
LayerCount: 2
Back
Fore
SplineSet
499 932 m 1x28
 344 770 l 1
 190 932 l 1
 282 932 l 1
 344 866 l 1
 406 932 l 1
 499 932 l 1x28
492 207 m 1xd4
 492 690 l 1
 610 690 l 1
 610 0 l 1
 487 0 l 1
 198 483 l 1
 198 0 l 1
 79 0 l 1
 79 690 l 1
 202 690 l 1
 492 207 l 1xd4
EndSplineSet
EndChar
StartChar: ncaron
Encoding: 328 328 258
Width: 582
GlyphClass: 2
Flags: MW
HStem: 1 20G 385 111<313 349> 468 20G<75 196 196 196> 566 162<141 296>
VStem: 75 121<1 267 431 488> 141 309 396 121<0 278 278 293 0 308>
LayerCount: 2
Back
Fore
SplineSet
451 728 m 1x14
 296 566 l 1
 141 728 l 1
 234 728 l 1
 296 662 l 1
 358 728 l 1
 451 728 l 1x14
196 431 m 1xaa
 235 479 289 496 337 496 c 0
 465 496 517 395 517 293 c 2
 517 0 l 1
 396 0 l 1
 396 278 l 2
 396 338 380 385 318 385 c 0xca
 252 385 196 328 196 267 c 2
 196 1 l 1
 75 1 l 1
 75 488 l 1
 196 488 l 1
 196 431 l 1xaa
EndSplineSet
EndChar
StartChar: napostrophe
Encoding: 329 329 259
Width: 734
GlyphClass: 2
Flags: MW
HStem: 1 20G 385 111<483 519> 468 20G 468 222<199 202 133 323>
VStem: 133 190 245 121<1 267 431 488> 566 121<0 278 278 293 0 308>
LayerCount: 2
Back
Fore
SplineSet
366 431 m 1xa6
 405 479 459 496 507 496 c 0
 635 496 687 395 687 293 c 2
 687 0 l 1
 566 0 l 1
 566 278 l 2
 566 338 550 385 488 385 c 0xc6
 422 385 366 328 366 267 c 2
 366 1 l 1
 245 1 l 1
 245 488 l 1
 366 488 l 1
 366 431 l 1xa6
199 690 m 1x18
 323 690 l 1
 202 468 l 1
 133 468 l 1
 199 690 l 1x18
EndSplineSet
EndChar
StartChar: Eng
Encoding: 330 330 260
Width: 680
GlyphClass: 2
Flags: MW
HStem: -180 98<387 424 424 446 387 424> 0 21G 670 20G<74 197 197 197 487 605 605 605>
VStem: 74 119<0 487 0 690> 487 118<203 690>
LayerCount: 2
Back
Fore
SplineSet
197 690 m 1
 487 203 l 1
 487 690 l 1
 605 690 l 1
 605 0 l 2
 605 -92 572 -180 446 -180 c 2
 387 -180 l 1
 387 -82 l 1
 424 -82 l 2
 478 -82 490 -57 490 -34 c 0
 490 -13 480 3 469 21 c 2
 193 487 l 1
 193 0 l 1
 74 0 l 1
 74 690 l 1
 197 690 l 1
EndSplineSet
EndChar
StartChar: eng
Encoding: 331 331 261
Width: 573
GlyphClass: 2
Flags: MW
HStem: -180 98<298 335 335 357 298 335> 1 21G<74 190 74 74> 390 106<308.5 346> 468 20G<74 190 190 190>
VStem: 74 116<1 268 426 488> 394 116<-1 279 279 294>
LayerCount: 2
Back
Fore
SplineSet
510 -32 m 2xec
 510 -68 509 -180 357 -180 c 2
 298 -180 l 1
 298 -82 l 1
 335 -82 l 2
 393 -82 394 -36 394 -1 c 2
 394 279 l 2
 394 340 378 390 314 390 c 0xec
 246 390 190 331 190 268 c 2
 190 1 l 1
 74 1 l 1
 74 488 l 1
 190 488 l 1xdc
 190 426 l 1
 227 477 284 496 333 496 c 0
 459 496 510 396 510 294 c 2
 510 -32 l 2xec
EndSplineSet
EndChar
StartChar: Obreve
Encoding: 334 334 264
Width: 747
GlyphClass: 2
Flags: MW
HStem: -10 110<301 449 301 489> 590 110<301 449> 770 70<355 395 355 420.5> 882 20G<221 305 305 305 445 529 529 529>
VStem: 42 131<280 410 280 439> 221 84<887 902 877.5 902> 445 84<887 902 849 902> 577 131<280 410>
LayerCount: 2
Back
Fore
SplineSet
445 887 m 2
 445 902 l 1
 529 902 l 1
 529 887 l 2
 529 811 466 770 375 770 c 0
 284 770 221 811 221 887 c 2
 221 902 l 1
 305 902 l 1
 305 887 l 2
 305 868 335 840 375 840 c 0
 415 840 445 868 445 887 c 2
173 345 m 0
 173 215 227 100 375 100 c 0
 523 100 577 215 577 345 c 0
 577 475 523 590 375 590 c 0
 227 590 173 475 173 345 c 0
42 345 m 0
 42 533 147 700 375 700 c 0
 603 700 708 533 708 345 c 0
 708 157 603 -10 375 -10 c 0
 147 -10 42 157 42 345 c 0
EndSplineSet
EndChar
StartChar: obreve
Encoding: 335 335 265
Width: 570
GlyphClass: 2
Flags: MW
HStem: -10 103<240 330 240 360.5> 391 103<240 330> 564 70<265 305 265 330.5> 676 20G<131 215 215 215 355 439 439 439>
VStem: 30 129<202 282 202 311> 131 84<681 696 671.5 696> 355 84<681 696 643 696> 411 129<202 282>
LayerCount: 2
Back
Fore
SplineSet
355 681 m 2x36
 355 696 l 1
 439 696 l 1
 439 681 l 2
 439 605 376 564 285 564 c 0
 194 564 131 605 131 681 c 2
 131 696 l 1
 215 696 l 1
 215 681 l 2
 215 662 245 634 285 634 c 0
 325 634 355 662 355 681 c 2x36
285 93 m 0xc9
 375 93 411 162 411 242 c 0
 411 322 375 391 285 391 c 0
 195 391 159 322 159 242 c 0
 159 162 195 93 285 93 c 0xc9
285 494 m 0
 436 494 540 380 540 242 c 0
 540 104 436 -10 285 -10 c 0
 134 -10 30 104 30 242 c 0
 30 380 134 494 285 494 c 0
EndSplineSet
EndChar
StartChar: Ohungarumlaut
Encoding: 336 336 266
Width: 747
GlyphClass: 2
Flags: MW
HStem: -10 110<301 449 301 489> 590 110<301 449> 770 161<252 489 252 489 412 489 362 498 412 412>
VStem: 42 131<280 410 280 439> 577 131<280 410>
LayerCount: 2
Back
Fore
SplineSet
521 931 m 1
 648 931 l 1
 498 770 l 1
 412 770 l 1
 521 931 l 1
362 931 m 1
 489 931 l 1
 338 770 l 1
 252 770 l 1
 362 931 l 1
173 345 m 0
 173 215 227 100 375 100 c 0
 523 100 577 215 577 345 c 0
 577 475 523 590 375 590 c 0
 227 590 173 475 173 345 c 0
42 345 m 0
 42 533 147 700 375 700 c 0
 603 700 708 533 708 345 c 0
 708 157 603 -10 375 -10 c 0
 147 -10 42 157 42 345 c 0
EndSplineSet
EndChar
StartChar: ohungarumlaut
Encoding: 337 337 267
Width: 570
GlyphClass: 2
Flags: MW
HStem: -10 103<240 330 240 360.5> 391 103<240 330> 564 161<162 399 162 399 322 399 272 408 322 322>
VStem: 30 129<202 282 202 311> 411 129<202 282>
LayerCount: 2
Back
Fore
SplineSet
431 725 m 1
 558 725 l 1
 408 564 l 1
 322 564 l 1
 431 725 l 1
272 725 m 1
 399 725 l 1
 248 564 l 1
 162 564 l 1
 272 725 l 1
285 93 m 0
 375 93 411 162 411 242 c 0
 411 322 375 391 285 391 c 0
 195 391 159 322 159 242 c 0
 159 162 195 93 285 93 c 0
285 494 m 0
 436 494 540 380 540 242 c 0
 540 104 436 -10 285 -10 c 0
 134 -10 30 104 30 242 c 0
 30 380 134 494 285 494 c 0
EndSplineSet
EndChar
StartChar: OE
Encoding: 338 338 268
Width: 1101
GlyphClass: 2
Flags: MW
HStem: -10 117<294 415> 0 117<701 1066 701 1066> 288 114<701 1023 701 1023> 576 114<701 1066 701 701> 583 117<294 415.5 254 442>
VStem: 35 124<280 410 280 439> 577 124<0 288 72 288 280 288 402 410>
LayerCount: 2
Back
Fore
SplineSet
1066 0 m 1x76
 577 0 l 1x76
 577 72 l 1
 529 20 462 -10 368 -10 c 0
 140 -10 35 157 35 345 c 0
 35 533 140 700 368 700 c 0xae
 463 700 532 668 577 618 c 1
 577 690 l 1
 1066 690 l 1
 1066 576 l 1
 701 576 l 1
 701 402 l 1
 1023 402 l 1
 1023 288 l 1
 701 288 l 1
 701 117 l 1
 1066 117 l 1
 1066 0 l 1x76
159 345 m 0
 159 215 220 107 368 107 c 0
 516 107 577 215 577 345 c 0
 577 475 516 583 368 583 c 0xae
 220 583 159 475 159 345 c 0
EndSplineSet
EndChar
StartChar: oe
Encoding: 339 339 269
Width: 890
GlyphClass: 2
Flags: MW
HStem: -10 101<233 318.5> -6 116<613.5 674.5 613.5 690.5> 204 87<528 744 528 862 527 744> 392 102<236 318.5 203.5 324>
VStem: 22 131 403 124<204 204 204 285>
LayerCount: 2
Back
Fore
SplineSet
859 86 m 1x7c
 801 25 732 -6 649 -6 c 0x7c
 567 -6 501 27 463 75 c 1
 419 21 357 -10 280 -10 c 0xbc
 128 -10 22 105 22 242 c 0
 22 379 127 494 280 494 c 0
 357 494 420 460 461 411 c 1
 501 463 557 494 634 494 c 0
 813 494 866 367 866 243 c 0
 866 218 862 204 862 204 c 1
 527 204 l 1
 536 148 579 110 648 110 c 0
 701 110 738 126 773 162 c 1
 859 86 l 1x7c
154 241 m 0
 154 155 189 91 277 91 c 0xbc
 365 91 403 156 403 242 c 0
 403 328 368 392 280 392 c 0
 192 392 154 327 154 241 c 0
744 291 m 1
 735 355 702 390 634 390 c 0
 570 390 538 347 528 291 c 1
 744 291 l 1
EndSplineSet
EndChar
StartChar: racute
Encoding: 341 341 271
Width: 404
GlyphClass: 2
Flags: MW
HStem: 0 21G<75 190 75 75> 382 113<287.5 314> 468 20G<75 191 191 191> 565 161<93 330 93 330>
VStem: 75 115<0 226 0 488> 93 237<565 726>
LayerCount: 2
Back
Fore
SplineSet
203 726 m 1x14
 330 726 l 1
 179 565 l 1
 93 565 l 1
 203 726 l 1x14
308 495 m 0xc8
 338 495 379 488 407 466 c 2
 411 463 l 1
 357 365 l 1
 352 369 l 2
 339 379 325 382 303 382 c 0xc8
 236 382 190 313 190 226 c 2
 190 0 l 1
 75 0 l 1
 75 488 l 1
 191 488 l 1xa8
 191 426 l 1
 225 476 267 495 308 495 c 0xc8
EndSplineSet
EndChar
StartChar: uni0156
Encoding: 342 342 272
Width: 582
GlyphClass: 2
Flags: MW
HStem: -293 222<307 310 241 431> -1 21G<79 202 79 79 456 597 456 456> 295 100 578 111<203 301 301 302 203 203>
VStem: 79 123<-1 295 -1 689> 241 190 417 123<459 513>
LayerCount: 2
Back
Fore
SplineSet
307 -71 m 1x84
 431 -71 l 1
 310 -293 l 1
 241 -293 l 1
 307 -71 l 1x84
203 396 m 1x7a
 312 396 l 2
 378 399 417 433 417 485 c 0
 417 541 373 578 302 578 c 2
 203 578 l 1
 203 396 l 1x7a
301 689 m 2
 430 689 540 615 540 487 c 0
 540 400 483 334 405 307 c 1
 597 -1 l 1
 456 -1 l 1
 286 295 l 1
 202 295 l 1
 202 -1 l 1
 79 -1 l 1
 79 689 l 1
 301 689 l 2
EndSplineSet
EndChar
StartChar: uni0157
Encoding: 343 343 273
Width: 404
GlyphClass: 2
Flags: MW
HStem: -292 222<103 107 37 228> 0 21G<75 190 75 75> 382 113<287.5 314> 468 20G<75 191 191 191>
VStem: 37 190 75 115<0 226 0 488>
LayerCount: 2
Back
Fore
SplineSet
103 -70 m 1x88
 228 -70 l 1
 107 -292 l 1
 37 -292 l 1
 103 -70 l 1x88
308 495 m 0x64
 338 495 379 488 407 466 c 2
 411 463 l 1
 357 365 l 1
 352 369 l 2
 339 379 325 382 303 382 c 0x64
 236 382 190 313 190 226 c 2
 190 0 l 1
 75 0 l 1
 75 488 l 1
 191 488 l 1x54
 191 426 l 1
 225 476 267 495 308 495 c 0x64
EndSplineSet
EndChar
StartChar: Rcaron
Encoding: 344 344 274
Width: 582
GlyphClass: 2
Flags: MW
HStem: -1 21G<79 202 79 79 456 597 456 456> 295 100 578 111<203 301 301 302 203 203> 770 162<128 282>
VStem: 79 123<-1 295 -1 689> 128 309<932 932> 417 123<459 513>
LayerCount: 2
Back
Fore
SplineSet
437 932 m 1x14
 282 770 l 1
 128 932 l 1
 220 932 l 1
 282 866 l 1
 344 932 l 1
 437 932 l 1x14
203 396 m 1xea
 312 396 l 2
 378 399 417 433 417 485 c 0
 417 541 373 578 302 578 c 2
 203 578 l 1
 203 396 l 1xea
301 689 m 2
 430 689 540 615 540 487 c 0
 540 400 483 334 405 307 c 1
 597 -1 l 1
 456 -1 l 1
 286 295 l 1
 202 295 l 1
 202 -1 l 1
 79 -1 l 1
 79 689 l 1
 301 689 l 2
EndSplineSet
EndChar
StartChar: rcaron
Encoding: 345 345 275
Width: 404
GlyphClass: 2
Flags: MW
HStem: 0 21G<75 190 75 75> 382 113<287.5 314> 468 20G<75 191 191 191> 565 162<88 242>
VStem: 75 115<0 226 0 488> 88 309<727 727>
LayerCount: 2
Back
Fore
SplineSet
397 727 m 1x14
 242 565 l 1
 88 727 l 1
 180 727 l 1
 242 661 l 1
 304 727 l 1
 397 727 l 1x14
308 495 m 0xc8
 338 495 379 488 407 466 c 2
 411 463 l 1
 357 365 l 1
 352 369 l 2
 339 379 325 382 303 382 c 0xc8
 236 382 190 313 190 226 c 2
 190 0 l 1
 75 0 l 1
 75 488 l 1
 191 488 l 1xa8
 191 426 l 1
 225 476 267 495 308 495 c 0xc8
EndSplineSet
EndChar
StartChar: sacute
Encoding: 347 347 277
Width: 446
GlyphClass: 2
Flags: MW
HStem: -10 99<187.5 252 187.5 277> 401 94<217 273.5> 565 161<176 413 176 413>
VStem: 59 114<318.5 363 318.5 398.5> 176 237<565 726> 304 117<133.5 189.5>
LayerCount: 2
Back
Fore
SplineSet
286 726 m 1x28
 413 726 l 1
 263 565 l 1
 176 565 l 1
 286 726 l 1x28
173 348 m 0xd4
 173 289 421 338 421 146 c 0
 421 45 325 -10 229 -10 c 0
 129 -10 50 52 26 127 c 1
 125 171 l 1
 125 171 146 89 229 89 c 0
 275 89 304 116 304 151 c 0
 304 228 59 168 59 353 c 0
 59 444 147 495 235 495 c 0
 325 495 386 445 418 388 c 1
 326 338 l 1
 326 338 310 401 237 401 c 0
 197 401 173 378 173 348 c 0xd4
EndSplineSet
EndChar
StartChar: scircumflex
Encoding: 349 349 279
Width: 446
GlyphClass: 2
Flags: MW
HStem: -10 99<187.5 252 187.5 277> 401 94<217 273.5> 565 162<65 219 65 219 219 374 219 281>
VStem: 59 114<318.5 363 318.5 398.5> 65 309<565 565> 304 117<133.5 189.5>
LayerCount: 2
Back
Fore
SplineSet
374 565 m 1x28
 281 565 l 1
 219 630 l 1
 157 565 l 1
 65 565 l 1
 219 727 l 1
 374 565 l 1x28
173 348 m 0xd4
 173 289 421 338 421 146 c 0
 421 45 325 -10 229 -10 c 0
 129 -10 50 52 26 127 c 1
 125 171 l 1
 125 171 146 89 229 89 c 0
 275 89 304 116 304 151 c 0
 304 228 59 168 59 353 c 0
 59 444 147 495 235 495 c 0
 325 495 386 445 418 388 c 1
 326 338 l 1
 326 338 310 401 237 401 c 0
 197 401 173 378 173 348 c 0xd4
EndSplineSet
EndChar
StartChar: Scedilla
Encoding: 350 350 280
Width: 546
GlyphClass: 2
Flags: MW
HStem: -244 71<251.5 268 251.5 287> 590 110<253 299>
VStem: 64 126<459 535 459 572> 293 73<-151.5 -136.5> 396 126<171 261.5>
LayerCount: 2
Back
Fore
SplineSet
163 -176 m 1
 228 -147 l 1
 232 -160 243 -173 260 -173 c 0
 276 -173 293 -160 293 -143 c 0
 293 -130 280 -120 257 -113 c 2
 187 -93 l 1
 239 -5 l 1
 133 9 38 75 19 195 c 1
 18 198 l 1
 141 229 l 1
 141 226 l 1
 150 149 209 107 283 107 c 0
 356 107 396 140 396 202 c 0
 396 321 64 296 64 515 c 0
 64 629 164 700 277 700 c 0
 365 700 443 663 490 579 c 1
 491 577 l 1
 388 514 l 1
 387 516 l 2
 362 563 321 590 277 590 c 0
 229 590 190 556 190 514 c 0
 190 404 522 429 522 200 c 0
 522 83 434 7 320 -6 c 1
 280 -61 l 1
 332 -74 366 -105 366 -144 c 0
 366 -201 314 -244 260 -244 c 0
 213 -244 177 -213 163 -176 c 1
EndSplineSet
EndChar
StartChar: scedilla
Encoding: 351 351 281
Width: 445
GlyphClass: 2
Flags: MW
HStem: -246 71<196.5 213.5 196.5 232> 393 102<198.5 240>
VStem: 42 114<315.5 359.5 315.5 397.5> 238 73<-153.5 -138.5> 303 117<133.5 189.5>
LayerCount: 2
Back
Fore
SplineSet
108 -178 m 1xf0
 173 -149 l 1
 177 -162 188 -175 205 -175 c 0
 222 -175 238 -162 238 -145 c 0xf0
 238 -132 225 -122 202 -115 c 2
 132 -95 l 1
 184 -6 l 1
 105 9 45 63 25 127 c 2
 24 131 l 1
 127 179 l 1
 129 173 l 2
 142 133 180 94 228 94 c 0
 274 94 303 116 303 151 c 0
 303 228 42 167 42 352 c 0
 42 443 130 495 218 495 c 0
 308 495 369 445 400 388 c 2
 403 383 l 1
 307 329 l 1
 304 333 l 1
 286 367 262 393 218 393 c 0
 179 393 156 374 156 345 c 0
 156 286 420 338 420 146 c 0xe8
 420 58 347 5 265 -7 c 1
 225 -63 l 1
 277 -76 311 -107 311 -146 c 0
 311 -203 259 -246 205 -246 c 0
 158 -246 122 -215 108 -178 c 1xf0
EndSplineSet
EndChar
StartChar: uni0162
Encoding: 354 354 284
Width: 566
GlyphClass: 2
Flags: MW
HStem: -236 71<251.5 268 251.5 287> 579 111<5 221 5 561 345 345 345 561>
VStem: 221 124<0 579 0 579> 293 73<-143.5 -128.5>
LayerCount: 2
Back
Fore
SplineSet
163 -168 m 1xd0
 228 -139 l 1
 232 -152 243 -165 260 -165 c 0
 276 -165 293 -152 293 -135 c 0xd0
 293 -122 280 -112 257 -105 c 2
 187 -85 l 1
 221 0 l 1
 221 579 l 1
 5 579 l 1
 5 690 l 1
 561 690 l 1
 561 579 l 1
 345 579 l 1
 345 0 l 1xe0
 308 0 268 -22 268 -51 c 1
 328 -62 366 -97 366 -136 c 0
 366 -193 314 -236 260 -236 c 0
 213 -236 177 -205 163 -168 c 1xd0
EndSplineSet
EndChar
StartChar: uni0163
Encoding: 355 355 285
Width: 356
GlyphClass: 2
Flags: MW
HStem: -246 71<204.5 221.5 204.5 240> 380 108<15 94 15 94 208 336> 674 20G<208 208>
VStem: 94 114<135 136 136 380 488 599 599 599> 246 73<-153.5 -138.5>
LayerCount: 2
Back
Fore
SplineSet
116 -178 m 1
 181 -149 l 1
 185 -162 196 -175 213 -175 c 0
 230 -175 246 -162 246 -145 c 0
 246 -132 233 -122 210 -115 c 2
 140 -95 l 1
 193 -5 l 1
 124 10 94 66 94 135 c 2
 94 380 l 1
 15 380 l 1
 15 488 l 1
 94 488 l 1
 94 599 l 1
 208 694 l 1
 208 488 l 1
 336 488 l 1
 336 380 l 1
 208 380 l 1
 208 136 l 2
 208 102 230 96 253 96 c 0
 301 96 318 113 318 113 c 1
 326 121 l 1
 326 6 l 1
 324 5 l 2
 323 5 306 -4 273 -8 c 1
 233 -63 l 1
 285 -76 319 -107 319 -146 c 0
 319 -203 267 -246 213 -246 c 0
 166 -246 130 -215 116 -178 c 1
EndSplineSet
EndChar
StartChar: Tcaron
Encoding: 356 356 286
Width: 566
GlyphClass: 2
Flags: MW
HStem: 0 21G<221 345 221 221> 579 111<5 561 5 221 345 345 345 561> 770 162<129 283>
VStem: 129 309<932 932> 221 124<0 579 0 579>
LayerCount: 2
Back
Fore
SplineSet
438 932 m 1x30
 283 770 l 1
 129 932 l 1
 221 932 l 1
 283 866 l 1
 345 932 l 1
 438 932 l 1x30
5 579 m 1xc8
 5 690 l 1
 561 690 l 1
 561 579 l 1
 345 579 l 1
 345 0 l 1
 221 0 l 1
 221 579 l 1
 5 579 l 1xc8
EndSplineSet
EndChar
StartChar: Tbar
Encoding: 358 358 288
Width: 566
GlyphClass: 2
Flags: MW
HStem: 0 21G<226 340 226 226> 283 70<-5 226 -5 226 340 571> 589 101<-5 226 -5 571 340 340 340 571>
VStem: 226 114<0 283 0 283 353 589>
LayerCount: 2
Back
Fore
SplineSet
340 353 m 1
 571 353 l 1
 571 283 l 1
 340 283 l 1
 340 0 l 1
 226 0 l 1
 226 283 l 1
 -5 283 l 1
 -5 353 l 1
 226 353 l 1
 226 589 l 1
 -5 589 l 1
 -5 690 l 1
 571 690 l 1
 571 589 l 1
 340 589 l 1
 340 353 l 1
EndSplineSet
EndChar
StartChar: tbar
Encoding: 359 359 289
Width: 336
GlyphClass: 2
Flags: MW
HStem: -10 101<231 259.5> 243 70<15 90 15 90 198 325> 390 98<15 90 15 90 198 326> 669 20G<198 198>
VStem: 90 108<136 138 138 243 118.5 243 313 390 488 592 592 592>
LayerCount: 2
Back
Fore
SplineSet
198 313 m 1
 325 313 l 1
 325 243 l 1
 198 243 l 1
 198 138 l 2
 198 99 214 91 248 91 c 0
 296 91 316 109 316 109 c 1
 316 5 l 1
 316 5 288 -10 231 -10 c 0
 135 -10 90 52 90 136 c 2
 90 243 l 1
 15 243 l 1
 15 313 l 1
 90 313 l 1
 90 390 l 1
 15 390 l 1
 15 488 l 1
 90 488 l 1
 90 592 l 1
 198 689 l 1
 198 488 l 1
 326 488 l 1
 326 390 l 1
 198 390 l 1
 198 313 l 1
EndSplineSet
EndChar
StartChar: Utilde
Encoding: 360 360 290
Width: 640
GlyphClass: 2
Flags: MW
HStem: -10 120<266.5 377.5 266.5 414.5> 670 20G<58 182 182 182 462 586 586 586> 770 84<382.5 413 382.5 437.5> 820 83<233 272>
VStem: 58 124<269 283 283 690> 123 83<783 794 783 795 783 824.5> 433 87<891 900 852 900> 462 124<283 690>
LayerCount: 2
Back
Fore
SplineSet
520 888 m 2x26
 520 816 477 770 398 770 c 0x26
 307 770 301 820 243 820 c 0
 223 820 206 812 206 794 c 2
 206 783 l 1
 123 783 l 1
 123 795 l 2
 123 854 159 903 234 903 c 0x16
 339 903 364 854 401 854 c 0
 425 854 433 863 433 891 c 2
 433 900 l 1
 520 900 l 1
 520 888 l 2x26
322 110 m 0xc9
 433 110 462 172 462 283 c 2
 462 690 l 1
 586 690 l 1
 586 274 l 2
 586 100 507 -10 322 -10 c 0
 137 -10 58 100 58 269 c 2
 58 690 l 1
 182 690 l 1
 182 283 l 2
 182 172 211 110 322 110 c 0xc9
EndSplineSet
EndChar
StartChar: utilde
Encoding: 361 361 291
Width: 576
GlyphClass: 2
Flags: MW
HStem: -11 113<231 270.5> 0 21G<385 506 385 385> 468 20G<63 184 184 184 385 506 506 506> 564 84<345.5 375.5 345.5 400.5> 614 83<195.5 235>
VStem: 63 121<201 207 207 488> 86 83<577 588 577 589 577 618.5> 385 121<0 57 57 57 218 488 0 488> 396 87<685 694 646 694>
LayerCount: 2
Back
Fore
SplineSet
483 682 m 2x1280
 483 610 440 564 361 564 c 0x1280
 269 564 264 614 206 614 c 0
 185 614 169 606 169 588 c 2
 169 577 l 1
 86 577 l 1
 86 589 l 2
 86 648 122 697 197 697 c 0x0a80
 302 697 327 648 364 648 c 0
 387 648 396 657 396 685 c 2
 396 694 l 1
 483 694 l 1
 483 682 l 2x1280
385 218 m 2xa5
 385 488 l 1
 506 488 l 1
 506 0 l 1
 385 0 l 1x65
 385 57 l 1
 350 11 297 -11 244 -11 c 0
 116 -11 63 95 63 201 c 2
 63 488 l 1
 184 488 l 1
 184 207 l 2
 184 147 200 102 262 102 c 0
 328 102 385 157 385 218 c 2xa5
EndSplineSet
EndChar
StartChar: Umacron
Encoding: 362 362 292
Width: 640
GlyphClass: 2
Flags: MW
HStem: -10 120<266.5 377.5 266.5 414.5> 670 20G<58 182 182 182 462 586 586 586> 790 70<145 498 145 498>
VStem: 58 124<269 283 283 690> 462 124<283 690>
LayerCount: 2
Back
Fore
SplineSet
145 860 m 1
 498 860 l 1
 498 790 l 1
 145 790 l 1
 145 860 l 1
322 110 m 0
 433 110 462 172 462 283 c 2
 462 690 l 1
 586 690 l 1
 586 274 l 2
 586 100 507 -10 322 -10 c 0
 137 -10 58 100 58 269 c 2
 58 690 l 1
 182 690 l 1
 182 283 l 2
 182 172 211 110 322 110 c 0
EndSplineSet
EndChar
StartChar: Ubreve
Encoding: 364 364 294
Width: 640
GlyphClass: 2
Flags: MW
HStem: -10 120<266.5 377.5 266.5 414.5> 670 20G<58 182 182 182 462 586 586 586> 770 70<302 342 302 367.5> 882 20G<168 252 252 252 392 476 476 476>
VStem: 58 124<269 283 283 690> 168 84<887 902 877.5 902> 392 84<887 902 849 902> 462 124<283 690>
LayerCount: 2
Back
Fore
SplineSet
392 887 m 2x36
 392 902 l 1
 476 902 l 1
 476 887 l 2
 476 811 413 770 322 770 c 0
 231 770 168 811 168 887 c 2
 168 902 l 1
 252 902 l 1
 252 887 l 2
 252 868 282 840 322 840 c 0
 362 840 392 868 392 887 c 2x36
322 110 m 0xc9
 433 110 462 172 462 283 c 2
 462 690 l 1
 586 690 l 1
 586 274 l 2
 586 100 507 -10 322 -10 c 0
 137 -10 58 100 58 269 c 2
 58 690 l 1
 182 690 l 1
 182 283 l 2
 182 172 211 110 322 110 c 0xc9
EndSplineSet
EndChar
StartChar: ubreve
Encoding: 365 365 295
Width: 576
GlyphClass: 2
Flags: MW
HStem: -11 113<231 270.5> 0 21G<385 506 385 385> 468 20G<63 184 184 184 385 506 506 506> 564 70<264 304.5 264 329.5> 676 20G<130 214 214 214 354 438 438 438>
VStem: 63 121<201 207 207 488> 130 84<681 696 671.5 696> 354 84<681 696 643 696> 385 121<0 57 57 57 218 488 0 488>
LayerCount: 2
Back
Fore
SplineSet
354 681 m 2x1b
 354 696 l 1
 438 696 l 1
 438 681 l 2
 438 605 375 564 284 564 c 0
 194 564 130 605 130 681 c 2
 130 696 l 1
 214 696 l 1
 214 681 l 2
 214 662 244 634 284 634 c 0
 325 634 354 662 354 681 c 2x1b
385 218 m 2xa480
 385 488 l 1
 506 488 l 1
 506 0 l 1
 385 0 l 1x6480
 385 57 l 1
 350 11 297 -11 244 -11 c 0
 116 -11 63 95 63 201 c 2
 63 488 l 1
 184 488 l 1
 184 207 l 2
 184 147 200 102 262 102 c 0
 328 102 385 157 385 218 c 2xa480
EndSplineSet
EndChar
StartChar: uring
Encoding: 367 367 297
Width: 576
GlyphClass: 2
Flags: MW
HStem: -11 113<231 270.5> 0 21G<385 506 385 385> 468 20G<63 184 184 184 385 506 506 506> 564 64<270.5 298.5 270.5 315.5> 725 64<269.5 299.5>
VStem: 63 121<201 207 207 488> 172 64<663.5 691.5 663.5 708> 333 64<663.5 691.5> 385 121<0 57 57 57 218 488 0 488>
LayerCount: 2
Back
Fore
SplineSet
236 678 m 0x1b
 236 649 257 628 284 628 c 0
 313 628 333 649 333 678 c 0
 333 705 315 725 284 725 c 0
 255 725 236 705 236 678 c 0x1b
172 677 m 0
 172 739 222 789 284 789 c 0
 345 789 397 740 397 677 c 0
 397 614 347 564 284 564 c 0
 221 564 172 616 172 677 c 0
385 218 m 2xa480
 385 488 l 1
 506 488 l 1
 506 0 l 1
 385 0 l 1x6480
 385 57 l 1
 350 11 297 -11 244 -11 c 0
 116 -11 63 95 63 201 c 2
 63 488 l 1
 184 488 l 1
 184 207 l 2
 184 147 200 102 262 102 c 0
 328 102 385 157 385 218 c 2xa480
EndSplineSet
EndChar
StartChar: Uhungarumlaut
Encoding: 368 368 298
Width: 640
GlyphClass: 2
Flags: MW
HStem: -10 120<266.5 377.5 266.5 414.5> 670 20G<58 182 182 182 462 586 586 586> 770 161<199 435 199 435 358 435 308 445 358 358>
VStem: 58 124<269 283 283 690> 462 124<283 690>
LayerCount: 2
Back
Fore
SplineSet
468 931 m 1
 595 931 l 1
 445 770 l 1
 358 770 l 1
 468 931 l 1
308 931 m 1
 435 931 l 1
 285 770 l 1
 199 770 l 1
 308 931 l 1
322 110 m 0
 433 110 462 172 462 283 c 2
 462 690 l 1
 586 690 l 1
 586 274 l 2
 586 100 507 -10 322 -10 c 0
 137 -10 58 100 58 269 c 2
 58 690 l 1
 182 690 l 1
 182 283 l 2
 182 172 211 110 322 110 c 0
EndSplineSet
EndChar
StartChar: uhungarumlaut
Encoding: 369 369 299
Width: 576
GlyphClass: 2
Flags: MW
HStem: -11 113<231 270.5> 0 21G<385 506 385 385> 468 20G<63 184 184 184 385 506 506 506> 564 161<161 398 161 398 321 398 271 408 321 321>
VStem: 63 121<201 207 207 488> 385 121<0 57 57 57 218 488 0 488>
LayerCount: 2
Back
Fore
SplineSet
431 725 m 1x10
 558 725 l 1
 408 564 l 1
 321 564 l 1
 431 725 l 1x10
271 725 m 1
 398 725 l 1
 248 564 l 1
 161 564 l 1
 271 725 l 1
385 218 m 2xac
 385 488 l 1
 506 488 l 1
 506 0 l 1
 385 0 l 1x6c
 385 57 l 1
 350 11 297 -11 244 -11 c 0
 116 -11 63 95 63 201 c 2
 63 488 l 1
 184 488 l 1
 184 207 l 2
 184 147 200 102 262 102 c 0
 328 102 385 157 385 218 c 2xac
EndSplineSet
EndChar
StartChar: Uogonek
Encoding: 370 370 300
Width: 638
GlyphClass: 2
Flags: MW
HStem: -222 73<258.5 279 258.5 297.5> 670 20G<55 179 179 179 459 583 583 583>
VStem: 55 124<269 283 283 690> 162 71<-124 -83> 459 124<283 690>
LayerCount: 2
Back
Fore
SplineSet
380 -163 m 1xd8
 356 -198 324 -222 271 -222 c 0
 209 -222 162 -183 162 -122 c 0xd8
 162 -44 242 -3 242 -3 c 1
 243 -3 l 1
 112 25 55 126 55 269 c 2
 55 690 l 1
 179 690 l 1
 179 283 l 2xe8
 179 172 208 110 319 110 c 0
 430 110 459 172 459 283 c 2
 459 690 l 1
 583 690 l 1
 583 274 l 2
 583 127 526 25 395 -3 c 1
 396 -3 l 1
 365 -12 233 -31 233 -111 c 0
 233 -137 250 -149 267 -149 c 0
 291 -149 306 -141 319 -122 c 1
 380 -163 l 1xd8
EndSplineSet
EndChar
StartChar: uogonek
Encoding: 371 371 301
Width: 573
GlyphClass: 2
Flags: MW
HStem: -223 73<401 421.5 401 440> -11 113<228 267.5> 468 20G<60 181 181 181 382 503 503 503>
VStem: 60 121<201 207 207 488> 305 71<-125 -84> 382 121<0 57 57 57 218 488 0 488>
LayerCount: 2
Back
Fore
SplineSet
382 218 m 2
 382 488 l 1
 503 488 l 1
 503 0 l 1
 472 -9 376 -52 376 -112 c 0
 376 -138 393 -150 409 -150 c 0
 434 -150 448 -142 462 -123 c 1
 522 -164 l 1
 499 -199 466 -223 414 -223 c 0
 352 -223 305 -184 305 -123 c 0
 305 -45 382 0 382 0 c 1
 382 57 l 1
 347 11 294 -11 241 -11 c 0
 113 -11 60 95 60 201 c 2
 60 488 l 1
 181 488 l 1
 181 207 l 2
 181 147 197 102 259 102 c 0
 325 102 382 157 382 218 c 2
EndSplineSet
EndChar
StartChar: Wcircumflex
Encoding: 372 372 302
Width: 930
GlyphClass: 2
Flags: MW
HStem: 0 21G<195 315 195 195 615 734 615 615> 670 20G<-12 117 117 117 813 942 942 942> 770 162<310 465 310 465 465 619 465 527>
VStem: 310 309<770 770>
LayerCount: 2
Back
Fore
SplineSet
619 770 m 1
 527 770 l 1
 465 835 l 1
 403 770 l 1
 310 770 l 1
 465 932 l 1
 619 770 l 1
513 630 m 1
 666 182 l 1
 813 690 l 1
 942 690 l 1
 734 0 l 1
 615 0 l 1
 465 434 l 1
 315 0 l 1
 195 0 l 1
 -12 690 l 1
 117 690 l 1
 264 182 l 1
 417 630 l 1
 513 630 l 1
EndSplineSet
EndChar
StartChar: wcircumflex
Encoding: 373 373 303
Width: 699
GlyphClass: 2
Flags: MW
HStem: -2 21G<147 254 147 147> 467 21G 564 162<195 350 195 350 350 504 350 412>
VStem: 195 309<564 564>
LayerCount: 2
Back
Fore
SplineSet
504 564 m 1
 412 564 l 1
 350 629 l 1
 288 564 l 1
 195 564 l 1
 350 726 l 1
 504 564 l 1
401 487 m 1
 493 183 l 1
 576 488 l 1
 703 488 l 1
 553 0 l 1
 446 0 l 1
 350 320 l 1
 254 -2 l 1
 147 -2 l 1
 -4 486 l 1
 123 486 l 1
 207 182 l 1
 299 487 l 1
 401 487 l 1
EndSplineSet
EndChar
StartChar: Ycircumflex
Encoding: 374 374 304
Width: 630
GlyphClass: 2
Flags: MW
HStem: 0 21G<254 376 254 254> 670 20G<-28 118 118 118 512 657 657 657> 770 162<160 315 160 315 315 469 315 377>
VStem: 160 309<770 770> 254 122<0 269 0 269>
LayerCount: 2
Back
Fore
SplineSet
469 770 m 1x30
 377 770 l 1
 315 835 l 1
 252 770 l 1
 160 770 l 1
 315 932 l 1
 469 770 l 1x30
118 690 m 1xc8
 315 382 l 1
 512 690 l 1
 657 690 l 1
 376 269 l 1
 376 0 l 1
 254 0 l 1
 254 269 l 1
 -28 690 l 1
 118 690 l 1xc8
EndSplineSet
EndChar
StartChar: ycircumflex
Encoding: 375 375 305
Width: 520
GlyphClass: 2
Flags: MW
HStem: 468 20G<5 136 136 136 384 515 515 515> 564 162<105 260 105 260 260 414 260 322>
VStem: 105 309<564 564>
LayerCount: 2
Back
Fore
SplineSet
414 564 m 1
 322 564 l 1
 260 629 l 1
 198 564 l 1
 105 564 l 1
 260 726 l 1
 414 564 l 1
136 488 m 1
 259 149 l 1
 384 488 l 1
 515 488 l 1
 236 -210 l 1
 106 -210 l 1
 196 13 l 1
 5 488 l 1
 136 488 l 1
EndSplineSet
EndChar
StartChar: Ydieresis
Encoding: 376 376 306
Width: 630
GlyphClass: 2
Flags: MW
HStem: 0 21G<254 376 254 254> 670 20G<-28 118 118 118 512 657 657 657> 768 131<158 278 158 278 351 471 158 351>
VStem: 158 120<768 899 768 899> 254 122<0 269 0 269> 351 120<768 899 768 899>
LayerCount: 2
Back
Fore
SplineSet
351 899 m 1x34
 471 899 l 1
 471 768 l 1
 351 768 l 1
 351 899 l 1x34
158 899 m 1
 278 899 l 1
 278 768 l 1
 158 768 l 1
 158 899 l 1
118 690 m 1xc8
 315 382 l 1
 512 690 l 1
 657 690 l 1
 376 269 l 1
 376 0 l 1
 254 0 l 1
 254 269 l 1
 -28 690 l 1
 118 690 l 1xc8
EndSplineSet
EndChar
StartChar: Zacute
Encoding: 377 377 307
Width: 610
GlyphClass: 2
Flags: MW
HStem: 0 112<199 582 199 582> 576 114<48 411 48 582> 770 161<271 508 271 508>
VStem: 271 237<770 931>
LayerCount: 2
Back
Fore
SplineSet
381 931 m 1
 508 931 l 1
 358 770 l 1
 271 770 l 1
 381 931 l 1
582 600 m 1
 199 112 l 1
 582 112 l 1
 582 0 l 1
 26 0 l 1
 26 86 l 1
 411 576 l 1
 48 576 l 1
 48 690 l 1
 582 690 l 1
 582 600 l 1
EndSplineSet
EndChar
StartChar: zacute
Encoding: 378 378 308
Width: 456
GlyphClass: 2
Flags: MW
HStem: 0 101<180 444 180 444> 380 108<28 281 28 444> 564 161<185 422 185 422>
VStem: 185 237<564 725>
LayerCount: 2
Back
Fore
SplineSet
295 725 m 1
 422 725 l 1
 272 564 l 1
 185 564 l 1
 295 725 l 1
444 403 m 1
 180 101 l 1
 444 101 l 1
 444 0 l 1
 14 0 l 1
 14 79 l 1
 281 380 l 1
 28 380 l 1
 28 488 l 1
 444 488 l 1
 444 403 l 1
EndSplineSet
EndChar
StartChar: Zdotaccent
Encoding: 379 379 309
Width: 610
GlyphClass: 2
Flags: MW
HStem: 0 112<199 582 199 582> 576 114<48 411 48 582> 770 155<292.5 335.5 292.5 335.5>
VStem: 237 155<826.5 869.5>
LayerCount: 2
Back
Fore
SplineSet
314 770 m 0
 270 770 237 805 237 848 c 0
 237 891 271 925 314 925 c 0
 357 925 392 891 392 848 c 0
 392 805 357 770 314 770 c 0
582 600 m 1
 199 112 l 1
 582 112 l 1
 582 0 l 1
 26 0 l 1
 26 86 l 1
 411 576 l 1
 48 576 l 1
 48 690 l 1
 582 690 l 1
 582 600 l 1
EndSplineSet
EndChar
StartChar: zdotaccent
Encoding: 380 380 310
Width: 456
GlyphClass: 2
Flags: MW
HStem: 0 101<180 444 180 444> 380 108<28 281 28 444> 564 155<206.5 249.5>
VStem: 151 155<620.5 663.5>
LayerCount: 2
Back
Fore
SplineSet
228 564 m 0
 185 564 151 599 151 642 c 0
 151 685 185 719 228 719 c 0
 271 719 306 685 306 642 c 0
 306 599 271 564 228 564 c 0
444 403 m 1
 180 101 l 1
 444 101 l 1
 444 0 l 1
 14 0 l 1
 14 79 l 1
 281 380 l 1
 28 380 l 1
 28 488 l 1
 444 488 l 1
 444 403 l 1
EndSplineSet
EndChar
StartChar: Zcaron
Encoding: 381 381 311
Width: 610
GlyphClass: 2
Flags: MW
HStem: 0 112<199 582 199 582> 576 114<48 411 48 582> 770 162<160 314>
VStem: 160 309<932 932>
LayerCount: 2
Back
Fore
SplineSet
469 932 m 1
 314 770 l 1
 160 932 l 1
 252 932 l 1
 314 866 l 1
 376 932 l 1
 469 932 l 1
582 600 m 1
 199 112 l 1
 582 112 l 1
 582 0 l 1
 26 0 l 1
 26 86 l 1
 411 576 l 1
 48 576 l 1
 48 690 l 1
 582 690 l 1
 582 600 l 1
EndSplineSet
EndChar
StartChar: florin
Encoding: 402 402 314
Width: 337
GlyphClass: 2
Flags: MW
HStem: -223 100<-67 -52 -67 -52> 389 99<11 98 11 98 198 347> 607 100<233.5 251.5>
VStem: 98 100<15 389 488 549>
LayerCount: 2
Back
Fore
SplineSet
354 665 m 2
 366 655 l 1
 301 579 l 1
 290 589 l 2
 273 603 258 607 245 607 c 0
 222 607 198 592 198 549 c 2
 198 488 l 1
 347 488 l 1
 347 389 l 1
 198 389 l 1
 198 15 l 2
 198 -140 99 -223 -52 -223 c 2
 -67 -223 l 1
 -67 -123 l 1
 -52 -123 l 2
 58 -123 98 -87 98 15 c 2
 98 389 l 1
 11 389 l 1
 11 488 l 1
 98 488 l 1
 98 549 l 2
 98 641 164 707 245 707 c 0
 283 707 322 693 354 665 c 2
EndSplineSet
EndChar
StartChar: Ohorn
Encoding: 416 416 315
Width: 747
GlyphClass: 2
Flags: MW
HStem: -10 110<301 449 301 489> 511 189<772 781> 590 110<301 449>
VStem: 42 131<280 410 280 439> 577 131<280 410> 702 207<511 700>
LayerCount: 2
Back
Fore
SplineSet
772 700 m 1x44
 909 700 l 1
 781 511 l 1
 702 511 l 1
 772 700 l 1x44
173 345 m 0xb8
 173 215 227 100 375 100 c 0
 523 100 577 215 577 345 c 0
 577 475 523 590 375 590 c 0
 227 590 173 475 173 345 c 0xb8
42 345 m 0
 42 533 147 700 375 700 c 0
 603 700 708 533 708 345 c 0
 708 157 603 -10 375 -10 c 0
 147 -10 42 157 42 345 c 0
EndSplineSet
EndChar
StartChar: ohorn
Encoding: 417 417 316
Width: 570
GlyphClass: 2
Flags: MW
HStem: -10 103<240 330 240 360.5> 305 189<632 641> 391 103<240 330>
VStem: 30 129<202 282 202 311> 411 129<202 282> 562 207<305 494>
LayerCount: 2
Back
Fore
SplineSet
632 494 m 1x44
 769 494 l 1
 641 305 l 1
 562 305 l 1
 632 494 l 1x44
285 93 m 0xb8
 375 93 411 162 411 242 c 0
 411 322 375 391 285 391 c 0
 195 391 159 322 159 242 c 0
 159 162 195 93 285 93 c 0xb8
285 494 m 0
 436 494 540 380 540 242 c 0
 540 104 436 -10 285 -10 c 0
 134 -10 30 104 30 242 c 0
 30 380 134 494 285 494 c 0
EndSplineSet
EndChar
StartChar: Uhorn
Encoding: 431 431 317
Width: 640
GlyphClass: 2
Flags: MW
HStem: -10 120<266.5 377.5 266.5 414.5> 511 189<685 695 616 822> 670 20G<58 182 182 182 462 586 586 586>
VStem: 58 124<269 283 283 690> 462 124<283 690> 616 207
LayerCount: 2
Back
Fore
SplineSet
685 700 m 1x44
 822 700 l 1
 695 511 l 1
 616 511 l 1
 685 700 l 1x44
322 110 m 0xb8
 433 110 462 172 462 283 c 2
 462 690 l 1
 586 690 l 1
 586 274 l 2
 586 100 507 -10 322 -10 c 0
 137 -10 58 100 58 269 c 2
 58 690 l 1
 182 690 l 1
 182 283 l 2
 182 172 211 110 322 110 c 0xb8
EndSplineSet
EndChar
StartChar: uhorn
Encoding: 432 432 318
Width: 576
GlyphClass: 2
Flags: MW
HStem: -11 113<231 270.5> 0 21G<385 506 385 385> 305 189<606 615 536 743> 468 20G<63 184 184 184 385 506 506 506>
VStem: 63 121<201 207 207 488> 385 121<0 57 57 57 218 488 0 488> 536 207<305 494>
LayerCount: 2
Back
Fore
SplineSet
606 494 m 1x22
 743 494 l 1
 615 305 l 1
 536 305 l 1
 606 494 l 1x22
385 218 m 2x9c
 385 488 l 1
 506 488 l 1
 506 0 l 1
 385 0 l 1x5c
 385 57 l 1
 350 11 297 -11 244 -11 c 0
 116 -11 63 95 63 201 c 2
 63 488 l 1
 184 488 l 1
 184 207 l 2
 184 147 200 102 262 102 c 0
 328 102 385 157 385 218 c 2x9c
EndSplineSet
EndChar
StartChar: uni01C4
Encoding: 452 452 319
Width: 1312
GlyphClass: 2
Flags: MW
HStem: 0 112<880 1263 880 1263> 0 114<198 260 260 272> 576 114<198 272 198 198 729 1092> 770 162<841 995>
VStem: 74 124<114 576 114 690 114 690> 508 124<259 426.5> 841 309<932 932>
LayerCount: 2
Back
Fore
SplineSet
1150 932 m 1xb2
 995 770 l 1
 841 932 l 1
 933 932 l 1
 995 866 l 1
 1057 932 l 1
 1150 932 l 1xb2
1263 600 m 1
 880 112 l 1
 1263 112 l 1
 1263 0 l 1
 707 0 l 1
 707 86 l 1
 1092 576 l 1
 729 576 l 1
 729 690 l 1
 1263 690 l 1
 1263 600 l 1
508 345 m 0x6c
 508 508 442 576 272 576 c 2
 198 576 l 1
 198 114 l 1
 260 114 l 2
 412 114 508 173 508 345 c 0x6c
74 0 m 1
 74 690 l 1
 274 690 l 2
 508 690 632 563 632 340 c 0
 632 125 505 0 272 0 c 2
 74 0 l 1
EndSplineSet
EndChar
StartChar: uni01C5
Encoding: 453 453 320
Width: 1137
GlyphClass: 2
Flags: MW
HStem: 0 101<861 1125 861 1125> 0 114<198 260 260 272> 380 108<709 962 709 1125> 564 162<755 910> 576 114<198 272 198 198>
VStem: 74 124<114 576 114 690 114 690> 508 124<259 426.5> 755 309<726 726>
LayerCount: 2
Back
Fore
SplineSet
1064 726 m 1xb1
 910 564 l 1
 755 726 l 1
 847 726 l 1
 910 660 l 1
 972 726 l 1
 1064 726 l 1xb1
1125 403 m 1
 861 101 l 1
 1125 101 l 1
 1125 0 l 1
 695 0 l 1
 695 79 l 1
 962 380 l 1
 709 380 l 1
 709 488 l 1
 1125 488 l 1
 1125 403 l 1
508 345 m 0x4e
 508 508 442 576 272 576 c 2
 198 576 l 1
 198 114 l 1
 260 114 l 2
 412 114 508 173 508 345 c 0x4e
74 0 m 1
 74 690 l 1
 274 690 l 2
 508 690 632 563 632 340 c 0
 632 125 505 0 272 0 c 2
 74 0 l 1
EndSplineSet
EndChar
StartChar: uni01C6
Encoding: 454 454 321
Width: 1036
GlyphClass: 2
Flags: MW
HStem: -10 110<230 265.5> 0 21G<380 501 380 380 594 1024 594 594> 0 101<760 1024 760 1024> 380 108<608 861 608 1024> 390 108<230 266 173 309.5> 564 162<654 809> 670 20G<380 501 501 501>
VStem: 32 121 380 121<0 49 49 49 439 690 0 690> 654 309<726 726>
LayerCount: 2
Back
Fore
SplineSet
963 726 m 1x3440
 809 564 l 1
 654 726 l 1
 746 726 l 1
 809 660 l 1
 871 726 l 1
 963 726 l 1x3440
1024 403 m 1
 760 101 l 1
 1024 101 l 1
 1024 0 l 1
 594 0 l 1
 594 79 l 1
 861 380 l 1
 608 380 l 1
 608 488 l 1
 1024 488 l 1
 1024 403 l 1
380 439 m 1x8b80
 380 690 l 1
 501 690 l 1
 501 0 l 1
 380 0 l 1x4b80
 380 49 l 1
 343 4 292 -10 239 -10 c 0
 107 -10 32 109 32 244 c 0
 32 379 107 498 239 498 c 0
 293 498 345 481 380 439 c 1x8b80
270 100 m 0x8b80
 349 100 385 161 385 244 c 0
 385 326 349 390 270 390 c 0
 190 390 152 325 152 244 c 0
 152 162 190 100 270 100 c 0x8b80
EndSplineSet
EndChar
StartChar: uni01C7
Encoding: 455 455 322
Width: 1024
GlyphClass: 2
Flags: MW
HStem: -10 115<699 781 699 820> 0 117<203 498 203 498> 576 114<585 846> 670 20G<79 203 203 203 585 969 969 969>
VStem: 79 124<117 690 117 690 117 690> 503 122<215 229> 846 123<247 249 249 576 576 576>
LayerCount: 2
Back
Fore
SplineSet
736 105 m 0xa6
 826 105 846 157 846 247 c 2
 846 576 l 1
 585 576 l 1
 585 690 l 1
 969 690 l 1
 969 249 l 2
 969 102 904 -10 736 -10 c 0
 595 -10 511 93 503 215 c 1
 625 229 l 1
 629 161 662 105 736 105 c 0xa6
203 690 m 1x58
 203 117 l 1
 498 117 l 1
 498 0 l 1
 79 0 l 1
 79 690 l 1
 203 690 l 1x58
EndSplineSet
EndChar
StartChar: uni01C8
Encoding: 456 456 323
Width: 770
GlyphClass: 2
Flags: MW
HStem: -214 112<537.5 560.5 537.5 603> 0 117<203 498 203 498> 468 20G<577 696 696 696> 559 134<577 702 577 702> 670 20G<79 203 203 203>
VStem: 79 124<117 690 117 690 117 690> 577 119<-60 -51 -51 488>
LayerCount: 2
Back
Fore
SplineSet
577 559 m 1xb2
 577 693 l 1
 702 693 l 1
 702 559 l 1
 577 559 l 1xb2
577 488 m 1
 696 488 l 1
 696 -51 l 2
 696 -141 654 -214 552 -214 c 0
 511 -214 470 -198 469 -198 c 2
 499 -95 l 1
 499 -95 526 -102 549 -102 c 0
 572 -102 577 -91 577 -60 c 2
 577 488 l 1
203 690 m 1x4c
 203 117 l 1
 498 117 l 1
 498 0 l 1
 79 0 l 1
 79 690 l 1
 203 690 l 1x4c
EndSplineSet
EndChar
StartChar: uni01C9
Encoding: 457 457 324
Width: 535
GlyphClass: 2
Flags: MW
HStem: -214 112<302.5 325.5 302.5 368> -10 107<74 196.5> 468 20G<342 461 461 461> 559 134<342 467 342 467> 670 20G<74 192 192 192>
VStem: 74 119 342 119<-60 -51 -51 488>
LayerCount: 2
Back
Fore
SplineSet
342 559 m 1xb2
 342 693 l 1
 467 693 l 1
 467 559 l 1
 342 559 l 1xb2
342 488 m 1
 461 488 l 1
 461 -51 l 2
 461 -141 419 -214 317 -214 c 0
 276 -214 235 -198 234 -198 c 2
 264 -95 l 1
 264 -95 291 -102 314 -102 c 0
 337 -102 342 -91 342 -60 c 2
 342 488 l 1
192 130 m 2x4c
 192 107 207 97 234 97 c 0
 243 97 264 100 264 100 c 1
 264 0 l 1
 264 0 214 -10 179 -10 c 0
 120 -10 74 10 74 97 c 2
 74 690 l 1
 192 690 l 1
 192 130 l 2x4c
EndSplineSet
EndChar
StartChar: uni01CA
Encoding: 458 458 325
Width: 1195
GlyphClass: 2
Flags: MW
HStem: -10 115<870 952 870 991> 0 21G<79 198 79 79 487 610 487 487> 576 114<756 1017> 670 20G<79 202 202 202 492 610 610 610 756 1140 1140 1140>
VStem: 79 119<0 483 0 690> 492 118<207 690 0 690> 674 122<215 229> 1017 123<247 249 249 576 576 576>
LayerCount: 2
Back
Fore
SplineSet
907 105 m 0xa3
 997 105 1017 157 1017 247 c 2
 1017 576 l 1
 756 576 l 1
 756 690 l 1
 1140 690 l 1
 1140 249 l 2
 1140 102 1075 -10 907 -10 c 0
 766 -10 682 93 674 215 c 1
 796 229 l 1
 800 161 833 105 907 105 c 0xa3
492 207 m 1x5c
 492 690 l 1
 610 690 l 1
 610 0 l 1
 487 0 l 1
 198 483 l 1
 198 0 l 1
 79 0 l 1
 79 690 l 1
 202 690 l 1
 492 207 l 1x5c
EndSplineSet
EndChar
StartChar: uni01CB
Encoding: 459 459 326
Width: 941
GlyphClass: 2
Flags: MW
HStem: -214 112<708.5 731.5 708.5 774> 0 21G<79 198 79 79 487 610 487 487> 468 20G<748 867 867 867> 559 134<748 873 748 873> 670 20G<79 202 202 202 492 610 610 610>
VStem: 79 119<0 483 0 690> 492 118<207 690 0 690> 748 119<-60 -51 -51 488>
LayerCount: 2
Back
Fore
SplineSet
748 559 m 1xb1
 748 693 l 1
 873 693 l 1
 873 559 l 1
 748 559 l 1xb1
748 488 m 1
 867 488 l 1
 867 -51 l 2
 867 -141 825 -214 723 -214 c 0
 682 -214 641 -198 640 -198 c 2
 670 -95 l 1
 670 -95 697 -102 720 -102 c 0
 743 -102 748 -91 748 -60 c 2
 748 488 l 1
492 207 m 1x4e
 492 690 l 1
 610 690 l 1
 610 0 l 1
 487 0 l 1
 198 483 l 1
 198 0 l 1
 79 0 l 1
 79 690 l 1
 202 690 l 1
 492 207 l 1x4e
EndSplineSet
EndChar
StartChar: uni01CC
Encoding: 460 460 327
Width: 834
GlyphClass: 2
Flags: MW
HStem: -214 112<601.5 624.5 601.5 667> 1 20G 385 111<313 349> 468 20G<75 196 196 196 641 760 760 760> 559 134<641 766 641 766>
VStem: 75 121<1 267 431 488> 396 121<0 278 278 293 0 308> 641 119<-60 -51 -51 488>
LayerCount: 2
Back
Fore
SplineSet
641 559 m 1x99
 641 693 l 1
 766 693 l 1
 766 559 l 1
 641 559 l 1x99
641 488 m 1
 760 488 l 1
 760 -51 l 2
 760 -141 718 -214 616 -214 c 0
 575 -214 534 -198 533 -198 c 2
 563 -95 l 1
 563 -95 590 -102 613 -102 c 0
 636 -102 641 -91 641 -60 c 2
 641 488 l 1
196 431 m 1x56
 235 479 289 496 337 496 c 0
 465 496 517 395 517 293 c 2
 517 0 l 1
 396 0 l 1
 396 278 l 2
 396 338 380 385 318 385 c 0x66
 252 385 196 328 196 267 c 2
 196 1 l 1
 75 1 l 1
 75 488 l 1
 196 488 l 1
 196 431 l 1x56
EndSplineSet
EndChar
StartChar: uni01CD
Encoding: 461 461 328
Width: 635
GlyphClass: 2
Flags: MW
HStem: 0 21G<-4 131 -4 -4 506 640 506 506> 150 106<226 411 226 452 184 411> 670 20G<272 365 365 365> 770 162<164 318>
VStem: 164 309<932 932>
LayerCount: 2
Back
Fore
SplineSet
473 932 m 1
 318 770 l 1
 164 932 l 1
 256 932 l 1
 318 866 l 1
 381 932 l 1
 473 932 l 1
640 0 m 1
 506 0 l 1
 452 150 l 1
 184 150 l 1
 131 0 l 1
 -4 0 l 1
 272 690 l 1
 365 690 l 1
 640 0 l 1
226 256 m 1
 411 256 l 1
 319 507 l 1
 226 256 l 1
EndSplineSet
EndChar
StartChar: uni01CF
Encoding: 463 463 330
Width: 277
GlyphClass: 2
Flags: MW
HStem: 0 21G<79 79 79 203> 670 20G<79 203 203 203> 770 162<-14 141>
VStem: -14 309<932 932> 79 124<0 690 0 690>
LayerCount: 2
Back
Fore
SplineSet
295 932 m 1x30
 141 770 l 1
 -14 932 l 1
 79 932 l 1
 141 866 l 1
 203 932 l 1
 295 932 l 1x30
79 0 m 1xc8
 79 690 l 1
 203 690 l 1
 203 0 l 1
 79 0 l 1xc8
EndSplineSet
EndChar
StartChar: uni01D0
Encoding: 464 464 331
Width: 255
GlyphClass: 2
Flags: MW
HStem: 0 21G<73 183 73 73> 468 20G<73 183 183 183> 564 162<-27 128>
VStem: -27 309 73 110<0 488 0 488>
LayerCount: 2
Back
Fore
SplineSet
283 726 m 1x30
 128 564 l 1
 -27 726 l 1
 66 726 l 1
 128 660 l 1
 190 726 l 1
 283 726 l 1x30
183 488 m 1xc8
 183 0 l 1
 73 0 l 1
 73 488 l 1
 183 488 l 1xc8
EndSplineSet
EndChar
StartChar: uni01D4
Encoding: 468 468 335
Width: 576
GlyphClass: 2
Flags: MW
HStem: -11 113<231 270.5> 0 21G<385 506 385 385> 468 20G<63 184 184 184 385 506 506 506> 564 162<130 284>
VStem: 63 121<201 207 207 488> 130 309<726 726> 385 121<0 57 57 57 218 488 0 488>
LayerCount: 2
Back
Fore
SplineSet
439 726 m 1x14
 284 564 l 1
 130 726 l 1
 222 726 l 1
 284 660 l 1
 347 726 l 1
 439 726 l 1x14
385 218 m 2xaa
 385 488 l 1
 506 488 l 1
 506 0 l 1
 385 0 l 1x6a
 385 57 l 1
 350 11 297 -11 244 -11 c 0
 116 -11 63 95 63 201 c 2
 63 488 l 1
 184 488 l 1
 184 207 l 2
 184 147 200 102 262 102 c 0
 328 102 385 157 385 218 c 2xaa
EndSplineSet
EndChar
StartChar: uni01D5
Encoding: 469 469 336
Width: 640
GlyphClass: 2
Flags: MW
HStem: -10 120<266.5 377.5 266.5 414.5> 670 20G<58 182 182 182 462 586 586 586> 768 131<165 285 165 285 358 478 165 358> 989 70<145 498 145 498>
VStem: 58 124<269 283 283 690> 165 120<768 899 768 899> 358 120<768 899 768 899> 462 124<283 690>
LayerCount: 2
Back
Fore
SplineSet
145 1059 m 1x10
 498 1059 l 1
 498 989 l 1
 145 989 l 1
 145 1059 l 1x10
358 899 m 1x26
 478 899 l 1
 478 768 l 1
 358 768 l 1
 358 899 l 1x26
165 899 m 1
 285 899 l 1
 285 768 l 1
 165 768 l 1
 165 899 l 1
322 110 m 0xc9
 433 110 462 172 462 283 c 2
 462 690 l 1
 586 690 l 1
 586 274 l 2
 586 100 507 -10 322 -10 c 0
 137 -10 58 100 58 269 c 2
 58 690 l 1
 182 690 l 1
 182 283 l 2
 182 172 211 110 322 110 c 0xc9
EndSplineSet
EndChar
StartChar: uni01D8
Encoding: 472 472 339
Width: 576
GlyphClass: 2
Flags: MW
HStem: -11 113<231 270.5> 0 21G<385 506 385 385> 468 20G<63 184 184 184 385 506 506 506> 562 131<128 248 128 248 321 441 128 321> 763 161<241 478 241 478>
VStem: 63 121<201 207 207 488> 128 120<562 693 562 693> 241 237<763 924> 321 120<562 693 562 693> 385 121<0 57 57 57 218 488 0 488>
LayerCount: 2
Back
Fore
SplineSet
351 924 m 1x09
 478 924 l 1
 328 763 l 1
 241 763 l 1
 351 924 l 1x09
321 693 m 1x1280
 441 693 l 1
 441 562 l 1
 321 562 l 1
 321 693 l 1x1280
128 693 m 1
 248 693 l 1
 248 562 l 1
 128 562 l 1
 128 693 l 1
385 218 m 2xa440
 385 488 l 1
 506 488 l 1
 506 0 l 1
 385 0 l 1x6440
 385 57 l 1
 350 11 297 -11 244 -11 c 0
 116 -11 63 95 63 201 c 2
 63 488 l 1
 184 488 l 1
 184 207 l 2
 184 147 200 102 262 102 c 0
 328 102 385 157 385 218 c 2xa440
EndSplineSet
EndChar
StartChar: uni01D9
Encoding: 473 473 340
Width: 640
GlyphClass: 2
Flags: MW
HStem: -10 120<266.5 377.5 266.5 414.5> 670 20G<58 182 182 182 462 586 586 586> 768 131<165 285 165 285 358 478 165 358> 969 162<167 322>
VStem: 58 124<269 283 283 690> 165 120<768 899 768 899> 167 309<1131 1131> 358 120<768 899 768 899> 462 124<283 690>
LayerCount: 2
Back
Fore
SplineSet
476 1131 m 1x12
 322 969 l 1
 167 1131 l 1
 260 1131 l 1
 322 1065 l 1
 384 1131 l 1
 476 1131 l 1x12
358 899 m 1x25
 478 899 l 1
 478 768 l 1
 358 768 l 1
 358 899 l 1x25
165 899 m 1
 285 899 l 1
 285 768 l 1
 165 768 l 1
 165 899 l 1
322 110 m 0xc880
 433 110 462 172 462 283 c 2
 462 690 l 1
 586 690 l 1
 586 274 l 2
 586 100 507 -10 322 -10 c 0
 137 -10 58 100 58 269 c 2
 58 690 l 1
 182 690 l 1
 182 283 l 2
 182 172 211 110 322 110 c 0xc880
EndSplineSet
EndChar
StartChar: uni01DA
Encoding: 474 474 341
Width: 576
GlyphClass: 2
Flags: MW
HStem: -11 113<231 270.5> 0 21G<385 506 385 385> 468 20G<63 184 184 184 385 506 506 506> 562 131<128 248 128 248 321 441 128 321> 763 162<130 284>
VStem: 63 121<201 207 207 488> 128 120<562 693 562 693> 130 309<925 925> 321 120<562 693 562 693> 385 121<0 57 57 57 218 488 0 488>
LayerCount: 2
Back
Fore
SplineSet
439 925 m 1x09
 284 763 l 1
 130 925 l 1
 222 925 l 1
 284 859 l 1
 347 925 l 1
 439 925 l 1x09
321 693 m 1x1280
 441 693 l 1
 441 562 l 1
 321 562 l 1
 321 693 l 1x1280
128 693 m 1
 248 693 l 1
 248 562 l 1
 128 562 l 1
 128 693 l 1
385 218 m 2xa440
 385 488 l 1
 506 488 l 1
 506 0 l 1
 385 0 l 1x6440
 385 57 l 1
 350 11 297 -11 244 -11 c 0
 116 -11 63 95 63 201 c 2
 63 488 l 1
 184 488 l 1
 184 207 l 2
 184 147 200 102 262 102 c 0
 328 102 385 157 385 218 c 2xa440
EndSplineSet
EndChar
StartChar: uni01DB
Encoding: 475 475 342
Width: 640
GlyphClass: 2
Flags: MW
HStem: -10 120<266.5 377.5 266.5 414.5> 670 20G<58 182 182 182 462 586 586 586> 768 131<165 285 165 285 358 478 165 358> 969 161<128 278 128 365>
VStem: 58 124<269 283 283 690> 128 237<969 1130> 165 120<768 899 768 899> 358 120<768 899 768 899> 462 124<283 690>
LayerCount: 2
Back
Fore
SplineSet
278 969 m 1x14
 128 1130 l 1
 255 1130 l 1
 365 969 l 1
 278 969 l 1x14
358 899 m 1x23
 478 899 l 1
 478 768 l 1
 358 768 l 1
 358 899 l 1x23
165 899 m 1
 285 899 l 1
 285 768 l 1
 165 768 l 1
 165 899 l 1
322 110 m 0xc880
 433 110 462 172 462 283 c 2
 462 690 l 1
 586 690 l 1
 586 274 l 2
 586 100 507 -10 322 -10 c 0
 137 -10 58 100 58 269 c 2
 58 690 l 1
 182 690 l 1
 182 283 l 2
 182 172 211 110 322 110 c 0xc880
EndSplineSet
EndChar
StartChar: uni01DC
Encoding: 476 476 343
Width: 576
GlyphClass: 2
Flags: MW
HStem: -11 113<231 270.5> 0 21G<385 506 385 385> 468 20G<63 184 184 184 385 506 506 506> 562 131<128 248 128 248 321 441 128 321> 763 161<91 241 91 328>
VStem: 63 121<201 207 207 488> 91 237<763 924> 128 120<562 693 562 693> 321 120<562 693 562 693> 385 121<0 57 57 57 218 488 0 488>
LayerCount: 2
Back
Fore
SplineSet
241 763 m 1x0a
 91 924 l 1
 218 924 l 1
 328 763 l 1
 241 763 l 1x0a
321 693 m 1x1180
 441 693 l 1
 441 562 l 1
 321 562 l 1
 321 693 l 1x1180
128 693 m 1
 248 693 l 1
 248 562 l 1
 128 562 l 1
 128 693 l 1
385 218 m 2xa440
 385 488 l 1
 506 488 l 1
 506 0 l 1
 385 0 l 1x6440
 385 57 l 1
 350 11 297 -11 244 -11 c 0
 116 -11 63 95 63 201 c 2
 63 488 l 1
 184 488 l 1
 184 207 l 2
 184 147 200 102 262 102 c 0
 328 102 385 157 385 218 c 2xa440
EndSplineSet
EndChar
StartChar: uni01DE
Encoding: 478 478 344
Width: 635
GlyphClass: 2
Flags: MW
HStem: 0 21G<-4 131 -4 -4 506 640 506 506> 150 106<226 411 226 452 184 411> 670 20G<272 365 365 365> 768 131<162 282 162 282 355 475 162 355> 989 70<141 494 141 494>
VStem: 162 120<768 899 768 899> 355 120<768 899 768 899>
LayerCount: 2
Back
Fore
SplineSet
141 1059 m 1
 494 1059 l 1
 494 989 l 1
 141 989 l 1
 141 1059 l 1
355 899 m 1
 475 899 l 1
 475 768 l 1
 355 768 l 1
 355 899 l 1
162 899 m 1
 282 899 l 1
 282 768 l 1
 162 768 l 1
 162 899 l 1
640 0 m 1
 506 0 l 1
 452 150 l 1
 184 150 l 1
 131 0 l 1
 -4 0 l 1
 272 690 l 1
 365 690 l 1
 640 0 l 1
226 256 m 1
 411 256 l 1
 319 507 l 1
 226 256 l 1
EndSplineSet
EndChar
StartChar: uni01DF
Encoding: 479 479 345
Width: 523
GlyphClass: 2
Flags: MW
HStem: -10 101<214 247.5> 0 21G<385 478 385 385> 205 86<237 244 244 364> 392 104<238.5 298.5> 564 131<110 230 110 230 304 424 110 304> 785 70<81 434 81 434>
VStem: 37 122<130 161.5 130 202> 110 120<564 695 564 695> 304 120<564 695 564 695> 364 114<205 205 291 296 0 322> 385 93<0 296>
LayerCount: 2
Back
Fore
SplineSet
81 855 m 1x04
 434 855 l 1
 434 785 l 1
 81 785 l 1
 81 855 l 1x04
304 695 m 1x0980
 424 695 l 1
 424 564 l 1
 304 564 l 1
 304 695 l 1x0980
110 695 m 1
 230 695 l 1
 230 564 l 1
 110 564 l 1
 110 695 l 1
244 205 m 2xb240
 190 205 159 177 159 146 c 0
 159 114 191 91 237 91 c 0
 305 91 362 144 364 205 c 1
 244 205 l 2xb240
215 -10 m 0
 122 -10 37 50 37 146 c 0
 37 258 128 291 237 291 c 2
 364 291 l 1
 364 353 334 392 263 392 c 0
 214 392 172 359 153 325 c 1
 62 391 l 1
 112 459 175 496 267 496 c 0
 400 496 478 415 478 296 c 2xb240
 478 0 l 1
 385 0 l 1x7220
 372 70 l 1
 330 9 280 -10 215 -10 c 0
EndSplineSet
EndChar
StartChar: uni01E0
Encoding: 480 480 346
Width: 635
GlyphClass: 2
Flags: MW
HStem: 0 21G<-4 131 -4 -4 506 640 506 506> 150 106<226 411 226 452 184 411> 670 20G<272 365 365 365> 770 155<296.5 339.5 296.5 339.5> 1015 70<141 494 141 494>
VStem: 241 155<826.5 869.5>
LayerCount: 2
Back
Fore
SplineSet
141 1085 m 1
 494 1085 l 1
 494 1015 l 1
 141 1015 l 1
 141 1085 l 1
318 770 m 0
 274 770 241 805 241 848 c 0
 241 891 275 925 318 925 c 0
 361 925 396 891 396 848 c 0
 396 805 361 770 318 770 c 0
640 0 m 1
 506 0 l 1
 452 150 l 1
 184 150 l 1
 131 0 l 1
 -4 0 l 1
 272 690 l 1
 365 690 l 1
 640 0 l 1
226 256 m 1
 411 256 l 1
 319 507 l 1
 226 256 l 1
EndSplineSet
EndChar
StartChar: uni01E2
Encoding: 482 482 348
Width: 882
GlyphClass: 2
Flags: MW
HStem: 0 107<477 842 477 842> 150 96<208 363 208 363 169 363> 293 104<477 799 477 799> 586 104<340 363 340 340 477 842 477 477> 790 70<352 705 352 705>
VStem: 363 114<107 150 150 150 246 293 397 586>
LayerCount: 2
Back
Fore
SplineSet
352 860 m 1
 705 860 l 1
 705 790 l 1
 352 790 l 1
 352 860 l 1
363 150 m 1
 169 150 l 1
 115 0 l 1
 -10 0 l 1
 263 690 l 1
 842 690 l 1
 842 586 l 1
 477 586 l 1
 477 397 l 1
 799 397 l 1
 799 293 l 1
 477 293 l 1
 477 107 l 1
 842 107 l 1
 842 0 l 1
 363 0 l 1
 363 150 l 1
208 246 m 1
 363 246 l 1
 363 586 l 1
 340 586 l 1
 208 246 l 1
EndSplineSet
EndChar
StartChar: uni01E3
Encoding: 483 483 349
Width: 830
GlyphClass: 2
Flags: MW
HStem: -10 98<198 252.5> -6 111<540.5 602 540.5 617.5> 205 86<225 232 232 357 459 681> 395 101<225.5 289> 586 70<250 602 250 602>
VStem: 30 112<125 161.5 125 198> 357 102<205 291 291 326.5>
LayerCount: 2
Back
Fore
SplineSet
250 656 m 1x08
 602 656 l 1
 602 586 l 1
 250 586 l 1
 250 656 l 1x08
697 150 m 1x76
 780 78 l 1
 722 17 658 -6 577 -6 c 0x76
 493 -6 439 25 406 73 c 1
 365 30 302 -10 203 -10 c 0xb6
 111 -10 30 49 30 143 c 0
 30 253 116 291 225 291 c 2
 357 291 l 1
 357 362 327 395 251 395 c 0
 200 395 158 365 136 333 c 1
 52 394 l 1
 101 461 164 496 255 496 c 0
 328 496 385 466 418 416 c 1
 455 463 508 494 578 494 c 0
 745 494 798 368 798 242 c 0
 798 220 793 205 793 205 c 1
 458 205 l 1
 467 145 505 105 576 105 c 0
 628 105 663 114 697 150 c 1x76
568 394 m 0
 501 394 468 350 459 291 c 1
 681 291 l 1
 672 357 638 394 568 394 c 0
222 88 m 0xb6
 294 88 349 148 357 205 c 1
 232 205 l 2
 176 205 142 179 142 144 c 0
 142 106 174 88 222 88 c 0xb6
EndSplineSet
EndChar
StartChar: uni01E8
Encoding: 488 488 352
Width: 673
GlyphClass: 2
Flags: MW
HStem: 0 21G<80 203 80 80 551 700 551 551> 670 20G<80 203 203 203 549 715 715 715> 770 162<203 358>
VStem: 80 123<0 179 330 690> 203 309<330 932 932 932>
LayerCount: 2
Back
Fore
SplineSet
512 932 m 1
 358 770 l 1
 203 932 l 1
 295 932 l 1
 358 866 l 1
 420 932 l 1
 512 932 l 1
203 690 m 1
 203 330 l 1
 549 690 l 1
 715 690 l 1
 432 405 l 1
 700 0 l 1
 551 0 l 1
 346 322 l 1
 203 179 l 1
 203 0 l 1
 80 0 l 1
 80 690 l 1
 203 690 l 1
EndSplineSet
EndChar
StartChar: uni01E9
Encoding: 489 489 353
Width: 529
GlyphClass: 2
Flags: MW
HStem: 0 21G<79 198 79 79 415 557 415 415> 468 20G<382 537 537 537> 670 20G<79 198 198 198 314 314> 690 162<160 198 198 198 160 314>
VStem: 79 119<0 143 285 690> 160 309<852 852>
LayerCount: 2
Back
Fore
SplineSet
469 852 m 1x14
 314 690 l 1
 160 852 l 1
 252 852 l 1
 314 786 l 1
 376 852 l 1
 469 852 l 1x14
382 488 m 1xe8
 537 488 l 1
 354 299 l 1
 557 0 l 1
 415 0 l 1
 272 226 l 1
 198 143 l 1
 198 0 l 1
 79 0 l 1
 79 690 l 1
 198 690 l 1
 198 285 l 1
 382 488 l 1xe8
EndSplineSet
EndChar
StartChar: uni01EB
Encoding: 491 491 355
Width: 560
GlyphClass: 2
Flags: MW
HStem: -222 73<219.5 240 219.5 258.5> 387 107<234 326>
VStem: 28 124<201 283 201 311> 123 71<-124 -83> 408 124<201 283>
LayerCount: 2
Back
Fore
SplineSet
341 -163 m 1xd8
 317 -198 285 -222 232 -222 c 0
 170 -222 123 -183 123 -122 c 0xd8
 123 -44 203 -3 203 -3 c 1
 216 -3 l 1
 102 25 28 125 28 242 c 0xe8
 28 380 130 494 280 494 c 0
 430 494 532 380 532 242 c 0
 532 125 458 25 344 -3 c 1
 357 -3 l 1
 326 -12 194 -31 194 -111 c 0
 194 -137 211 -149 228 -149 c 0
 252 -149 267 -141 280 -122 c 1
 341 -163 l 1xd8
408 242 m 0
 408 324 372 387 280 387 c 0
 188 387 152 324 152 242 c 0xe8
 152 160 188 97 280 97 c 0
 372 97 408 160 408 242 c 0
EndSplineSet
EndChar
StartChar: uni01EC
Encoding: 492 492 356
Width: 746
GlyphClass: 2
Flags: MW
HStem: -222 73<312.5 333 312.5 351.5> 588 112<298 448> 790 70<197 549 197 549>
VStem: 42 122<279 411 279 439> 216 71<-124 -84.5> 582 122<279 411>
LayerCount: 2
Back
Fore
SplineSet
197 860 m 1
 549 860 l 1
 549 790 l 1
 197 790 l 1
 197 860 l 1
434 -163 m 1
 410 -198 378 -222 325 -222 c 0
 263 -222 216 -183 216 -122 c 0
 216 -47 290 -6 296 -3 c 1
 123 31 42 179 42 345 c 0
 42 533 147 700 373 700 c 0
 599 700 704 533 704 345 c 0
 704 178 622 29 447 -3 c 0
 412 -13 287 -33 287 -111 c 0
 287 -137 304 -149 321 -149 c 0
 345 -149 360 -141 373 -122 c 1
 434 -163 l 1
373 102 m 0
 523 102 582 213 582 345 c 0
 582 477 523 588 373 588 c 0
 223 588 164 477 164 345 c 0
 164 213 223 102 373 102 c 0
EndSplineSet
EndChar
StartChar: uni01ED
Encoding: 493 493 357
Width: 560
GlyphClass: 2
Flags: MW
HStem: -222 73<219.5 240 219.5 258.5> 387 107<234 326> 584 70<104 456 104 456>
VStem: 28 124<201 283 201 311> 123 71<-124 -83> 408 124<201 283>
LayerCount: 2
Back
Fore
SplineSet
104 654 m 1x20
 456 654 l 1
 456 584 l 1
 104 584 l 1
 104 654 l 1x20
341 -163 m 1xcc
 317 -198 285 -222 232 -222 c 0
 170 -222 123 -183 123 -122 c 0xcc
 123 -44 203 -3 203 -3 c 1
 216 -3 l 1
 102 25 28 125 28 242 c 0xd4
 28 380 130 494 280 494 c 0
 430 494 532 380 532 242 c 0
 532 125 458 25 344 -3 c 1
 357 -3 l 1
 326 -12 194 -31 194 -111 c 0
 194 -137 211 -149 228 -149 c 0
 252 -149 267 -141 280 -122 c 1
 341 -163 l 1xcc
408 242 m 0
 408 324 372 387 280 387 c 0
 188 387 152 324 152 242 c 0xd4
 152 160 188 97 280 97 c 0
 372 97 408 160 408 242 c 0
EndSplineSet
EndChar
StartChar: uni01F1
Encoding: 497 497 359
Width: 1256
GlyphClass: 2
Flags: MW
HStem: 0 112<824 1207 824 1207> 0 114<198 260 260 272> 576 114<198 272 198 198 673 1036>
VStem: 74 124<114 576 114 690 114 690> 508 124<259 426.5>
LayerCount: 2
Back
Fore
SplineSet
1207 600 m 1xa0
 824 112 l 1
 1207 112 l 1
 1207 0 l 1
 651 0 l 1
 651 86 l 1
 1036 576 l 1
 673 576 l 1
 673 690 l 1
 1207 690 l 1
 1207 600 l 1xa0
508 345 m 0x78
 508 508 442 576 272 576 c 2
 198 576 l 1
 198 114 l 1
 260 114 l 2
 412 114 508 173 508 345 c 0x78
74 0 m 1
 74 690 l 1
 274 690 l 2
 508 690 632 563 632 340 c 0
 632 125 505 0 272 0 c 2
 74 0 l 1
EndSplineSet
EndChar
StartChar: uni01F2
Encoding: 498 498 360
Width: 1137
GlyphClass: 2
Flags: MW
HStem: 0 101<861 1125 861 1125> 0 114<198 260 260 272> 380 108<709 962 709 1125> 576 114<198 272 198 198>
VStem: 74 124<114 576 114 690 114 690> 508 124<259 426.5>
LayerCount: 2
Back
Fore
SplineSet
1125 403 m 1xa0
 861 101 l 1
 1125 101 l 1
 1125 0 l 1
 695 0 l 1
 695 79 l 1
 962 380 l 1
 709 380 l 1
 709 488 l 1
 1125 488 l 1
 1125 403 l 1xa0
508 345 m 0x5c
 508 508 442 576 272 576 c 2
 198 576 l 1
 198 114 l 1
 260 114 l 2
 412 114 508 173 508 345 c 0x5c
74 0 m 1
 74 690 l 1
 274 690 l 2
 508 690 632 563 632 340 c 0
 632 125 505 0 272 0 c 2
 74 0 l 1
EndSplineSet
EndChar
StartChar: uni01F3
Encoding: 499 499 361
Width: 1036
GlyphClass: 2
Flags: MW
HStem: -10 110<230 265.5> 0 21G<380 501 380 380 594 1024 594 594> 0 101<760 1024 760 1024> 380 108<608 861 608 1024> 390 108<230 266 173 309.5> 670 20G<380 501 501 501>
VStem: 32 121 380 121<0 49 49 49 439 690 0 690>
LayerCount: 2
Back
Fore
SplineSet
1024 403 m 1x30
 760 101 l 1
 1024 101 l 1
 1024 0 l 1
 594 0 l 1
 594 79 l 1
 861 380 l 1
 608 380 l 1
 608 488 l 1
 1024 488 l 1
 1024 403 l 1x30
380 439 m 1x8f
 380 690 l 1
 501 690 l 1
 501 0 l 1
 380 0 l 1x4f
 380 49 l 1
 343 4 292 -10 239 -10 c 0
 107 -10 32 109 32 244 c 0
 32 379 107 498 239 498 c 0
 293 498 345 481 380 439 c 1x8f
270 100 m 0x8f
 349 100 385 161 385 244 c 0
 385 326 349 390 270 390 c 0
 190 390 152 325 152 244 c 0
 152 162 190 100 270 100 c 0x8f
EndSplineSet
EndChar
StartChar: uni01F4
Encoding: 500 500 362
Width: 752
GlyphClass: 2
Flags: MW
HStem: -10 111<304 424> 0 21G<593 691 593 593> 273 100<414 691 414 571> 593 108<303 420> 771 161<334 571 334 571>
VStem: 44 123<281.5 414 281.5 439.5> 334 237 593 98<0 373>
LayerCount: 2
Back
Fore
SplineSet
444 932 m 1x0a
 571 932 l 1
 420 771 l 1
 334 771 l 1
 444 932 l 1x0a
414 273 m 1xb5
 414 373 l 1
 691 373 l 1
 691 0 l 1
 593 0 l 1x75
 582 97 l 1
 536 33 470 -10 378 -10 c 0
 151 -10 44 156 44 345 c 0
 44 534 149 701 377 701 c 0
 513 701 622 632 678 503 c 1
 568 457 l 1
 536 551 464 593 376 593 c 0
 230 593 167 478 167 350 c 0
 167 213 230 101 378 101 c 0
 477 101 557 168 571 273 c 1
 414 273 l 1xb5
EndSplineSet
EndChar
StartChar: uni01F8
Encoding: 504 504 364
Width: 684
GlyphClass: 2
Flags: MW
HStem: 0 21G<79 198 79 79 487 610 487 487> 670 20G<79 202 202 202 492 610 610 610> 770 161<151 301 151 388>
VStem: 79 119<0 483 0 690> 151 237<770 931> 492 118<207 690 0 690>
LayerCount: 2
Back
Fore
SplineSet
301 770 m 1x28
 151 931 l 1
 278 931 l 1
 388 770 l 1
 301 770 l 1x28
492 207 m 1xd4
 492 690 l 1
 610 690 l 1
 610 0 l 1
 487 0 l 1
 198 483 l 1
 198 0 l 1
 79 0 l 1
 79 690 l 1
 202 690 l 1
 492 207 l 1xd4
EndSplineSet
EndChar
StartChar: Aringacute
Encoding: 506 506 366
Width: 636
GlyphClass: 2
Flags: MW
HStem: 0 21G<0 129 0 0 508 636 508 508> 150 104<223 414 223 454 183 414> 809 79<307.5 328.5> 974 161<275 512 275 512>
VStem: 206 79<765 786 765 807> 275 237<974 1135> 352 79<766 785.5>
LayerCount: 2
Back
Fore
SplineSet
385 1135 m 1x14
 512 1135 l 1
 361 974 l 1
 275 974 l 1
 385 1135 l 1x14
206 776 m 0xea
 206 838 256 888 318 888 c 0
 379 888 431 839 431 776 c 0
 431 731 406 693 369 675 c 1
 636 0 l 1
 508 0 l 1
 454 150 l 1
 183 150 l 1
 129 0 l 1
 0 0 l 1
 268 674 l 1
 231 693 206 732 206 776 c 0xea
285 776 m 0
 285 754 299 741 318 741 c 0
 337 741 352 756 352 776 c 0
 352 795 339 809 318 809 c 0
 297 809 285 796 285 776 c 0
414 254 m 1
 319 514 l 1
 223 254 l 1
 414 254 l 1
EndSplineSet
EndChar
StartChar: oslashacute
Encoding: 511 511 371
Width: 560
GlyphClass: 2
Flags: MW
HStem: -10 107<274.5 326 274.5 355> 387 107<234 284.5> 578 161<237 474 237 474>
VStem: 28 124<207.5 270 207.5 310.5> 237 237<578 739> 408 124<214 278>
LayerCount: 2
Back
Fore
SplineSet
347 739 m 1x28
 474 739 l 1
 323 578 l 1
 237 578 l 1
 347 739 l 1x28
67 -20 m 1xd4
 109 53 l 1
 56 101 28 167 28 242 c 0
 28 379 130 494 280 494 c 0
 307 494 334 489 355 483 c 1
 369 508 l 1
 488 508 l 1
 447 435 l 1
 502 388 532 319 532 242 c 0
 532 105 430 -10 280 -10 c 0
 251 -10 223 -5 199 3 c 1
 186 -20 l 1
 67 -20 l 1xd4
280 97 m 0
 372 97 408 168 408 260 c 0
 408 296 401 331 389 357 c 1
 251 100 l 1
 261 98 269 97 280 97 c 0
152 224 m 0
 152 191 158 157 168 133 c 1
 303 385 l 1
 294 387 289 387 280 387 c 0
 188 387 152 316 152 224 c 0
EndSplineSet
EndChar
StartChar: uni0200
Encoding: 512 512 372
Width: 635
GlyphClass: 2
Flags: MW
HStem: 0 21G<-4 131 -4 -4 506 640 506 506> 150 106<226 411 226 452 184 411> 670 20G<272 365 365 365> 770 161<34 185 214 271>
LayerCount: 2
Back
Fore
SplineSet
185 770 m 1
 34 931 l 1
 161 931 l 1
 271 770 l 1
 185 770 l 1
364 770 m 1
 214 931 l 1
 341 931 l 1
 451 770 l 1
 364 770 l 1
640 0 m 1
 506 0 l 1
 452 150 l 1
 184 150 l 1
 131 0 l 1
 -4 0 l 1
 272 690 l 1
 365 690 l 1
 640 0 l 1
226 256 m 1
 411 256 l 1
 319 507 l 1
 226 256 l 1
EndSplineSet
EndChar
StartChar: uni0202
Encoding: 514 514 374
Width: 635
GlyphClass: 2
Flags: MW
HStem: 0 21G<-4 131 -4 -4 506 640 506 506> 150 106<226 411 226 452 184 411> 670 20G<272 365 365 365> 832 70<298 338>
VStem: 164 84<770 785 770 823> 388 84<770 785 770 794.5>
LayerCount: 2
Back
Fore
SplineSet
388 785 m 2
 388 804 358 832 318 832 c 0
 278 832 248 804 248 785 c 2
 248 770 l 1
 164 770 l 1
 164 785 l 2
 164 861 227 902 318 902 c 0
 409 902 472 861 472 785 c 2
 472 770 l 1
 388 770 l 1
 388 785 l 2
640 0 m 1
 506 0 l 1
 452 150 l 1
 184 150 l 1
 131 0 l 1
 -4 0 l 1
 272 690 l 1
 365 690 l 1
 640 0 l 1
226 256 m 1
 411 256 l 1
 319 507 l 1
 226 256 l 1
EndSplineSet
EndChar
StartChar: uni0204
Encoding: 516 516 376
Width: 581
GlyphClass: 2
Flags: MW
HStem: 0 117<203 538 203 538> 288 114<203 525 203 525> 576 114<203 538 203 203> 770 161<25 175 205 262>
VStem: 79 124<117 288 117 402 402 576>
LayerCount: 2
Back
Fore
SplineSet
175 770 m 1
 25 931 l 1
 152 931 l 1
 262 770 l 1
 175 770 l 1
355 770 m 1
 205 931 l 1
 332 931 l 1
 441 770 l 1
 355 770 l 1
203 288 m 1
 203 117 l 1
 538 117 l 1
 538 0 l 1
 79 0 l 1
 79 690 l 1
 538 690 l 1
 538 576 l 1
 203 576 l 1
 203 402 l 1
 525 402 l 1
 525 288 l 1
 203 288 l 1
EndSplineSet
EndChar
StartChar: uni0205
Encoding: 517 517 377
Width: 516
GlyphClass: 2
Flags: MW
HStem: -6 111<233.5 295.5 233.5 310.5> 205 86<153 374 153 487 152 374> 394 100<228.5 297> 564 161<-22 128 158 215>
VStem: 27 125<205 205 205 305>
LayerCount: 2
Back
Fore
SplineSet
128 564 m 1
 -22 725 l 1
 105 725 l 1
 215 564 l 1
 128 564 l 1
308 564 m 1
 158 725 l 1
 285 725 l 1
 395 564 l 1
 308 564 l 1
262 394 m 0
 195 394 162 350 153 291 c 1
 374 291 l 1
 366 357 332 394 262 394 c 0
391 150 m 1
 473 78 l 1
 416 17 351 -6 270 -6 c 0
 107 -6 27 111 27 241 c 0
 27 369 102 494 262 494 c 0
 439 494 491 368 491 242 c 0
 491 220 487 205 487 205 c 1
 152 205 l 1
 160 145 198 105 269 105 c 0
 322 105 356 114 391 150 c 1
EndSplineSet
EndChar
StartChar: uni0206
Encoding: 518 518 378
Width: 581
GlyphClass: 2
Flags: MW
HStem: 0 117<203 538 203 538> 288 114<203 525 203 525> 576 114<203 538 203 203> 832 70<288 328>
VStem: 79 124<117 288 117 402 402 576> 154 84<770 785 770 823> 378 84<770 785 770 794.5>
LayerCount: 2
Back
Fore
SplineSet
378 785 m 2xf6
 378 804 348 832 308 832 c 0
 268 832 238 804 238 785 c 2
 238 770 l 1
 154 770 l 1
 154 785 l 2
 154 861 217 902 308 902 c 0
 399 902 462 861 462 785 c 2
 462 770 l 1
 378 770 l 1
 378 785 l 2xf6
203 288 m 1xe8
 203 117 l 1
 538 117 l 1
 538 0 l 1
 79 0 l 1
 79 690 l 1
 538 690 l 1
 538 576 l 1
 203 576 l 1
 203 402 l 1
 525 402 l 1
 525 288 l 1
 203 288 l 1xe8
EndSplineSet
EndChar
StartChar: uni0207
Encoding: 519 519 379
Width: 516
GlyphClass: 2
Flags: MW
HStem: -6 111<233.5 295.5 233.5 310.5> 205 86<153 374 153 487 152 374> 394 100<228.5 297> 626 70<242 282>
VStem: 27 125<205 205 205 305> 108 84<564 579 564 617> 332 84<564 579 564 588.5>
LayerCount: 2
Back
Fore
SplineSet
332 579 m 2xf6
 332 598 302 626 262 626 c 0
 222 626 192 598 192 579 c 2
 192 564 l 1
 108 564 l 1
 108 579 l 2
 108 655 171 696 262 696 c 0
 353 696 416 655 416 579 c 2
 416 564 l 1
 332 564 l 1
 332 579 l 2xf6
262 394 m 0xe8
 195 394 162 350 153 291 c 1
 374 291 l 1
 366 357 332 394 262 394 c 0xe8
391 150 m 1
 473 78 l 1
 416 17 351 -6 270 -6 c 0
 107 -6 27 111 27 241 c 0
 27 369 102 494 262 494 c 0
 439 494 491 368 491 242 c 0
 491 220 487 205 487 205 c 1
 152 205 l 1
 160 145 198 105 269 105 c 0
 322 105 356 114 391 150 c 1
EndSplineSet
EndChar
StartChar: uni0208
Encoding: 520 520 380
Width: 277
GlyphClass: 2
Flags: MW
HStem: 0 21G<79 79 79 203> 670 20G<79 203 203 203> 770 161<-143 8 37 94>
VStem: 79 124<0 690 0 690>
LayerCount: 2
Back
Fore
SplineSet
8 770 m 1
 -143 931 l 1
 -16 931 l 1
 94 770 l 1
 8 770 l 1
187 770 m 1
 37 931 l 1
 164 931 l 1
 274 770 l 1
 187 770 l 1
79 0 m 1
 79 690 l 1
 203 690 l 1
 203 0 l 1
 79 0 l 1
EndSplineSet
EndChar
StartChar: uni0209
Encoding: 521 521 381
Width: 255
GlyphClass: 2
Flags: MW
HStem: 0 21G<73 183 73 73> 468 20G<73 183 183 183> 564 161<-155 -5 24 81>
VStem: 73 110<0 488 0 488>
LayerCount: 2
Back
Fore
SplineSet
-5 564 m 1
 -155 725 l 1
 -28 725 l 1
 81 564 l 1
 -5 564 l 1
175 564 m 1
 24 725 l 1
 151 725 l 1
 261 564 l 1
 175 564 l 1
183 488 m 1
 183 0 l 1
 73 0 l 1
 73 488 l 1
 183 488 l 1
EndSplineSet
EndChar
StartChar: uni020A
Encoding: 522 522 382
Width: 277
GlyphClass: 2
Flags: MW
HStem: 0 21G<79 79 79 203> 670 20G<79 203 203 203> 832 70<121 161>
VStem: -13 84<770 785 770 823> 79 124<0 690 0 690> 211 84<770 785 770 794.5>
CounterMasks: 1 1c
LayerCount: 2
Back
Fore
SplineSet
211 785 m 2
 211 804 181 832 141 832 c 0
 101 832 71 804 71 785 c 2
 71 770 l 1
 -13 770 l 1
 -13 785 l 2
 -13 861 50 902 141 902 c 0
 232 902 295 861 295 785 c 2
 295 770 l 1
 211 770 l 1
 211 785 l 2
79 0 m 1
 79 690 l 1
 203 690 l 1
 203 0 l 1
 79 0 l 1
EndSplineSet
EndChar
StartChar: uni020B
Encoding: 523 523 383
Width: 255
GlyphClass: 2
Flags: MW
HStem: 0 21G<73 183 73 73> 468 20G<73 183 183 183> 626 70<108 148>
VStem: -26 84<564 579 564 617> 73 110<0 488 0 488> 198 84<564 579 564 588.5>
CounterMasks: 1 1c
LayerCount: 2
Back
Fore
SplineSet
198 579 m 2
 198 598 168 626 128 626 c 0
 88 626 58 598 58 579 c 2
 58 564 l 1
 -26 564 l 1
 -26 579 l 2
 -26 655 37 696 128 696 c 0
 219 696 282 655 282 579 c 2
 282 564 l 1
 198 564 l 1
 198 579 l 2
183 488 m 1
 183 0 l 1
 73 0 l 1
 73 488 l 1
 183 488 l 1
EndSplineSet
EndChar
StartChar: uni020C
Encoding: 524 524 384
Width: 747
GlyphClass: 2
Flags: MW
HStem: -10 110<301 449 301 489> 590 110<301 449> 770 161<92 242 271 328>
VStem: 42 131<280 410 280 439> 577 131<280 410>
LayerCount: 2
Back
Fore
SplineSet
242 770 m 1
 92 931 l 1
 219 931 l 1
 328 770 l 1
 242 770 l 1
422 770 m 1
 271 931 l 1
 398 931 l 1
 508 770 l 1
 422 770 l 1
173 345 m 0
 173 215 227 100 375 100 c 0
 523 100 577 215 577 345 c 0
 577 475 523 590 375 590 c 0
 227 590 173 475 173 345 c 0
42 345 m 0
 42 533 147 700 375 700 c 0
 603 700 708 533 708 345 c 0
 708 157 603 -10 375 -10 c 0
 147 -10 42 157 42 345 c 0
EndSplineSet
EndChar
StartChar: uni020D
Encoding: 525 525 385
Width: 570
GlyphClass: 2
Flags: MW
HStem: -10 103<240 330 240 360.5> 391 103<240 330> 564 161<2 152 181 238>
VStem: 30 129<202 282 202 311> 411 129<202 282>
LayerCount: 2
Back
Fore
SplineSet
152 564 m 1
 2 725 l 1
 129 725 l 1
 238 564 l 1
 152 564 l 1
332 564 m 1
 181 725 l 1
 308 725 l 1
 418 564 l 1
 332 564 l 1
285 93 m 0
 375 93 411 162 411 242 c 0
 411 322 375 391 285 391 c 0
 195 391 159 322 159 242 c 0
 159 162 195 93 285 93 c 0
285 494 m 0
 436 494 540 380 540 242 c 0
 540 104 436 -10 285 -10 c 0
 134 -10 30 104 30 242 c 0
 30 380 134 494 285 494 c 0
EndSplineSet
EndChar
StartChar: uni020E
Encoding: 526 526 386
Width: 747
GlyphClass: 2
Flags: MW
HStem: -10 110<301 449 301 489> 590 110<301 449> 832 70<355 395>
VStem: 42 131<280 410 280 439> 221 84<770 785 770 823> 445 84<770 785 770 794.5> 577 131<280 410>
LayerCount: 2
Back
Fore
SplineSet
445 785 m 2
 445 804 415 832 375 832 c 0
 335 832 305 804 305 785 c 2
 305 770 l 1
 221 770 l 1
 221 785 l 2
 221 861 284 902 375 902 c 0
 466 902 529 861 529 785 c 2
 529 770 l 1
 445 770 l 1
 445 785 l 2
173 345 m 0
 173 215 227 100 375 100 c 0
 523 100 577 215 577 345 c 0
 577 475 523 590 375 590 c 0
 227 590 173 475 173 345 c 0
42 345 m 0
 42 533 147 700 375 700 c 0
 603 700 708 533 708 345 c 0
 708 157 603 -10 375 -10 c 0
 147 -10 42 157 42 345 c 0
EndSplineSet
EndChar
StartChar: uni020F
Encoding: 527 527 387
Width: 570
GlyphClass: 2
Flags: MW
HStem: -10 103<240 330 240 360.5> 391 103<240 330> 626 70<265 305>
VStem: 30 129<202 282 202 311> 131 84<564 579 564 617> 355 84<564 579 564 588.5> 411 129<202 282>
LayerCount: 2
Back
Fore
SplineSet
355 579 m 2xec
 355 598 325 626 285 626 c 0
 245 626 215 598 215 579 c 2
 215 564 l 1
 131 564 l 1
 131 579 l 2
 131 655 194 696 285 696 c 0
 376 696 439 655 439 579 c 2
 439 564 l 1
 355 564 l 1
 355 579 l 2xec
285 93 m 0xd2
 375 93 411 162 411 242 c 0
 411 322 375 391 285 391 c 0
 195 391 159 322 159 242 c 0
 159 162 195 93 285 93 c 0xd2
285 494 m 0
 436 494 540 380 540 242 c 0
 540 104 436 -10 285 -10 c 0
 134 -10 30 104 30 242 c 0
 30 380 134 494 285 494 c 0
EndSplineSet
EndChar
StartChar: uni0211
Encoding: 529 529 389
Width: 404
GlyphClass: 2
Flags: MW
HStem: 0 21G<75 190 75 75> 382 113<287.5 314> 468 20G<75 191 191 191> 565 161<-41 109 138 196>
VStem: 75 115<0 226 0 488>
LayerCount: 2
Back
Fore
SplineSet
109 565 m 1x10
 -41 726 l 1
 86 726 l 1
 196 565 l 1
 109 565 l 1x10
289 565 m 1
 138 726 l 1
 265 726 l 1
 375 565 l 1
 289 565 l 1
308 495 m 0xc8
 338 495 379 488 407 466 c 2
 411 463 l 1
 357 365 l 1
 352 369 l 2
 339 379 325 382 303 382 c 0xc8
 236 382 190 313 190 226 c 2
 190 0 l 1
 75 0 l 1
 75 488 l 1
 191 488 l 1xa8
 191 426 l 1
 225 476 267 495 308 495 c 0xc8
EndSplineSet
EndChar
StartChar: uni0212
Encoding: 530 530 390
Width: 582
GlyphClass: 2
Flags: MW
HStem: -1 21G<79 202 79 79 456 597 456 456> 295 100 578 111<203 301 301 302 203 203> 832 70<276 316>
VStem: 79 123<-1 295 -1 689> 142 84<770 785 770 823> 366 84<770 785 770 794.5> 417 123<459 513>
LayerCount: 2
Back
Fore
SplineSet
366 785 m 2xf6
 366 804 336 832 296 832 c 0
 256 832 226 804 226 785 c 2
 226 770 l 1
 142 770 l 1
 142 785 l 2
 142 861 205 902 296 902 c 0
 387 902 450 861 450 785 c 2
 450 770 l 1
 366 770 l 1
 366 785 l 2xf6
203 396 m 1xe9
 312 396 l 2
 378 399 417 433 417 485 c 0
 417 541 373 578 302 578 c 2
 203 578 l 1
 203 396 l 1xe9
301 689 m 2
 430 689 540 615 540 487 c 0
 540 400 483 334 405 307 c 1
 597 -1 l 1
 456 -1 l 1
 286 295 l 1
 202 295 l 1
 202 -1 l 1
 79 -1 l 1
 79 689 l 1
 301 689 l 2
EndSplineSet
EndChar
StartChar: uni0213
Encoding: 531 531 391
Width: 404
GlyphClass: 2
Flags: MW
HStem: 0 21G<75 190 75 75> 382 113<287.5 314> 468 20G<75 191 191 191> 627 70<222 262>
VStem: 75 115<0 226 0 488> 88 84<565 580 565 618> 312 84<565 580 565 589.5>
LayerCount: 2
Back
Fore
SplineSet
312 580 m 2x96
 312 599 282 627 242 627 c 0
 202 627 172 599 172 580 c 2
 172 565 l 1
 88 565 l 1
 88 580 l 2
 88 656 151 697 242 697 c 0
 333 697 396 656 396 580 c 2
 396 565 l 1
 312 565 l 1
 312 580 l 2x96
308 495 m 0xc8
 338 495 379 488 407 466 c 2
 411 463 l 1
 357 365 l 1
 352 369 l 2
 339 379 325 382 303 382 c 0xc8
 236 382 190 313 190 226 c 2
 190 0 l 1
 75 0 l 1
 75 488 l 1
 191 488 l 1xa8
 191 426 l 1
 225 476 267 495 308 495 c 0xc8
EndSplineSet
EndChar
StartChar: uni0214
Encoding: 532 532 392
Width: 640
GlyphClass: 2
Flags: MW
HStem: -10 120<266.5 377.5 266.5 414.5> 670 20G<58 182 182 182 462 586 586 586> 770 161<38 189 218 275>
VStem: 58 124<269 283 283 690> 462 124<283 690>
LayerCount: 2
Back
Fore
SplineSet
189 770 m 1
 38 931 l 1
 165 931 l 1
 275 770 l 1
 189 770 l 1
368 770 m 1
 218 931 l 1
 345 931 l 1
 455 770 l 1
 368 770 l 1
322 110 m 0
 433 110 462 172 462 283 c 2
 462 690 l 1
 586 690 l 1
 586 274 l 2
 586 100 507 -10 322 -10 c 0
 137 -10 58 100 58 269 c 2
 58 690 l 1
 182 690 l 1
 182 283 l 2
 182 172 211 110 322 110 c 0
EndSplineSet
EndChar
StartChar: uni0215
Encoding: 533 533 393
Width: 576
GlyphClass: 2
Flags: MW
HStem: -11 113<231 270.5> 0 21G<385 506 385 385> 468 20G<63 184 184 184 385 506 506 506> 564 161<1 151 181 238>
VStem: 63 121<201 207 207 488> 385 121<0 57 57 57 218 488 0 488>
LayerCount: 2
Back
Fore
SplineSet
151 564 m 1x10
 1 725 l 1
 128 725 l 1
 238 564 l 1
 151 564 l 1x10
331 564 m 1
 181 725 l 1
 308 725 l 1
 418 564 l 1
 331 564 l 1
385 218 m 2xac
 385 488 l 1
 506 488 l 1
 506 0 l 1
 385 0 l 1x6c
 385 57 l 1
 350 11 297 -11 244 -11 c 0
 116 -11 63 95 63 201 c 2
 63 488 l 1
 184 488 l 1
 184 207 l 2
 184 147 200 102 262 102 c 0
 328 102 385 157 385 218 c 2xac
EndSplineSet
EndChar
StartChar: uni0216
Encoding: 534 534 394
Width: 640
GlyphClass: 2
Flags: MW
HStem: -10 120<266.5 377.5 266.5 414.5> 670 20G<58 182 182 182 462 586 586 586> 832 70<302 342>
VStem: 58 124<269 283 283 690> 168 84<770 785 770 823> 392 84<770 785 770 794.5> 462 124<283 690>
LayerCount: 2
Back
Fore
SplineSet
392 785 m 2xec
 392 804 362 832 322 832 c 0
 282 832 252 804 252 785 c 2
 252 770 l 1
 168 770 l 1
 168 785 l 2
 168 861 231 902 322 902 c 0
 413 902 476 861 476 785 c 2
 476 770 l 1
 392 770 l 1
 392 785 l 2xec
322 110 m 0xd2
 433 110 462 172 462 283 c 2
 462 690 l 1
 586 690 l 1
 586 274 l 2
 586 100 507 -10 322 -10 c 0
 137 -10 58 100 58 269 c 2
 58 690 l 1
 182 690 l 1
 182 283 l 2
 182 172 211 110 322 110 c 0xd2
EndSplineSet
EndChar
StartChar: uni0217
Encoding: 535 535 395
Width: 576
GlyphClass: 2
Flags: MW
HStem: -11 113<231 270.5> 0 21G<385 506 385 385> 468 20G<63 184 184 184 385 506 506 506> 626 70<264 304.5>
VStem: 63 121<201 207 207 488> 130 84<564 579 564 617> 354 84<564 579 564 588.5> 385 121<0 57 57 57 218 488 0 488>
LayerCount: 2
Back
Fore
SplineSet
354 579 m 2x36
 354 598 325 626 284 626 c 0
 244 626 214 598 214 579 c 2
 214 564 l 1
 130 564 l 1
 130 579 l 2
 130 655 194 696 284 696 c 0
 375 696 438 655 438 579 c 2
 438 564 l 1
 354 564 l 1
 354 579 l 2x36
385 218 m 2xa9
 385 488 l 1
 506 488 l 1
 506 0 l 1
 385 0 l 1x69
 385 57 l 1
 350 11 297 -11 244 -11 c 0
 116 -11 63 95 63 201 c 2
 63 488 l 1
 184 488 l 1
 184 207 l 2
 184 147 200 102 262 102 c 0
 328 102 385 157 385 218 c 2xa9
EndSplineSet
EndChar
StartChar: uni0218
Encoding: 536 536 396
Width: 547
GlyphClass: 2
Flags: MW
HStem: -300 222<258 261 192 382> -8 115<247 320.5 247 350> 590 110<254 300>
VStem: 65 126<459 535 459 572> 192 190 397 126<171 261.5>
LayerCount: 2
Back
Fore
SplineSet
258 -78 m 1
 382 -78 l 1
 261 -300 l 1
 192 -300 l 1
 258 -78 l 1
388 516 m 1
 363 563 322 590 278 590 c 0
 230 590 191 556 191 514 c 0
 191 404 523 429 523 200 c 0
 523 71 416 -8 284 -8 c 0
 161 -8 41 59 20 195 c 1
 142 226 l 1
 151 149 210 107 284 107 c 0
 357 107 397 140 397 202 c 0
 397 321 65 296 65 515 c 0
 65 629 165 700 278 700 c 0
 366 700 444 663 491 579 c 1
 388 516 l 1
EndSplineSet
EndChar
StartChar: uni0219
Encoding: 537 537 397
Width: 446
GlyphClass: 2
Flags: MW
HStem: -302 222<200 203 134 324> -10 99<187.5 252 187.5 277> 401 94<217 273.5>
VStem: 59 114<318.5 363 318.5 398.5> 134 190 304 117<133.5 189.5>
LayerCount: 2
Back
Fore
SplineSet
200 -80 m 1x88
 324 -80 l 1
 203 -302 l 1
 134 -302 l 1
 200 -80 l 1x88
173 348 m 0x74
 173 289 421 338 421 146 c 0
 421 45 325 -10 229 -10 c 0
 129 -10 50 52 26 127 c 1
 125 171 l 1
 125 171 146 89 229 89 c 0
 275 89 304 116 304 151 c 0
 304 228 59 168 59 353 c 0
 59 444 147 495 235 495 c 0
 325 495 386 445 418 388 c 1
 326 338 l 1
 326 338 310 401 237 401 c 0
 197 401 173 378 173 348 c 0x74
EndSplineSet
EndChar
StartChar: uni021A
Encoding: 538 538 398
Width: 566
GlyphClass: 2
Flags: MW
HStem: -292 222<254 257 188 378> 0 21G<221 345 221 221> 579 111<5 561 5 221 345 345 345 561>
VStem: 188 190 221 124<0 579 0 579>
LayerCount: 2
Back
Fore
SplineSet
254 -70 m 1x90
 378 -70 l 1
 257 -292 l 1
 188 -292 l 1
 254 -70 l 1x90
5 579 m 1x68
 5 690 l 1
 561 690 l 1
 561 579 l 1
 345 579 l 1
 345 0 l 1
 221 0 l 1
 221 579 l 1
 5 579 l 1x68
EndSplineSet
EndChar
StartChar: uni021B
Encoding: 539 539 399
Width: 357
GlyphClass: 2
Flags: MW
HStem: -302 222<208 211 142 332> -10 106<242.5 270.5> 380 108<16 95 16 97 209 336> 674 20G<209 209>
VStem: 95 114<135 136 136 380> 142 190
LayerCount: 2
Back
Fore
SplineSet
208 -80 m 1x84
 332 -80 l 1
 211 -302 l 1
 142 -302 l 1
 208 -80 l 1x84
336 5 m 1x78
 336 5 304 -10 237 -10 c 0
 138 -10 95 53 95 135 c 2
 95 380 l 1
 16 380 l 1
 16 488 l 1
 97 488 l 1
 97 609 l 1
 209 694 l 1
 209 488 l 1
 336 488 l 1
 336 380 l 1
 209 380 l 1
 209 136 l 2
 209 102 231 96 254 96 c 0
 307 96 336 113 336 113 c 1
 336 5 l 1x78
EndSplineSet
EndChar
StartChar: uni021E
Encoding: 542 542 400
Width: 703
GlyphClass: 2
Flags: MW
HStem: 0 21G<79 203 79 79 505 629 505 505> 288 114<203 505 203 505> 670 20G<79 203 203 203 505 629 629 629> 770 162<199 354>
VStem: 79 124<0 288 0 402 402 690> 199 309<932 932> 505 124<0 288 288 288 402 690 0 690>
LayerCount: 2
Back
Fore
SplineSet
508 932 m 1x14
 354 770 l 1
 199 932 l 1
 292 932 l 1
 354 866 l 1
 416 932 l 1
 508 932 l 1x14
505 402 m 1xea
 505 690 l 1
 629 690 l 1
 629 0 l 1
 505 0 l 1
 505 288 l 1
 203 288 l 1
 203 0 l 1
 79 0 l 1
 79 690 l 1
 203 690 l 1
 203 402 l 1
 505 402 l 1xea
EndSplineSet
EndChar
StartChar: uni021F
Encoding: 543 543 401
Width: 581
GlyphClass: 2
Flags: MW
HStem: 0 21G<76 198 76 76 395 516 395 395> 382 117<302.5 348> 670 20G<76 198 198 198> 688 162<185 340>
VStem: 76 122<0 294 436 690> 185 309 395 121<0 280 280 286 0 309.5>
LayerCount: 2
Back
Fore
SplineSet
495 850 m 1x14
 340 688 l 1
 185 850 l 1
 278 850 l 1
 340 784 l 1
 402 850 l 1
 495 850 l 1x14
198 436 m 1xea
 234 482 279 499 326 499 c 0
 465 499 516 392 516 286 c 2
 516 0 l 1
 395 0 l 1
 395 280 l 2
 395 339 379 382 317 382 c 0
 258 382 210 342 198 294 c 1
 198 0 l 1
 76 0 l 1
 76 690 l 1
 198 690 l 1
 198 436 l 1xea
EndSplineSet
EndChar
StartChar: uni0227
Encoding: 551 551 403
Width: 523
GlyphClass: 2
Flags: MW
HStem: -10 101<214 247.5> 0 21G<385 478 385 385> 205 86<237 244 244 364> 392 104<238.5 298.5> 566 155<244.5 287.5 244.5 288>
VStem: 37 122<130 161.5 130 202> 190 155 364 114<205 205 291 296 0 322> 385 93<0 296>
LayerCount: 2
Back
Fore
SplineSet
266 566 m 0x0a
 223 566 190 601 190 644 c 0
 190 687 223 721 266 721 c 0
 309 721 344 687 344 644 c 0
 344 601 310 566 266 566 c 0x0a
244 205 m 2xb5
 190 205 159 177 159 146 c 0
 159 114 191 91 237 91 c 0
 305 91 362 144 364 205 c 1
 244 205 l 2xb5
215 -10 m 0
 122 -10 37 50 37 146 c 0
 37 258 128 291 237 291 c 2
 364 291 l 1
 364 353 334 392 263 392 c 0
 214 392 172 359 153 325 c 1
 62 391 l 1
 112 459 175 496 267 496 c 0
 400 496 478 415 478 296 c 2xb5
 478 0 l 1
 385 0 l 1x7480
 372 70 l 1
 330 9 280 -10 215 -10 c 0
EndSplineSet
EndChar
StartChar: uni0228
Encoding: 552 552 404
Width: 579
GlyphClass: 2
Flags: MW
HStem: -236 71<273.5 290 273.5 308.5> 0 112<196 259 340 340 340 532> 290 109 581 109<196 532 196 196>
VStem: 78 119 315 73
LayerCount: 2
Back
Fore
SplineSet
184 -168 m 1
 249 -139 l 1
 253 -152 265 -165 282 -165 c 0
 298 -165 315 -152 315 -135 c 0
 315 -122 302 -112 278 -105 c 2
 209 -85 l 1
 259 0 l 1
 78 0 l 1
 78 690 l 1
 532 690 l 1
 532 581 l 1
 196 581 l 1
 196 400 l 1
 518 400 l 1
 518 290 l 1
 196 290 l 1
 196 112 l 1
 532 112 l 1
 532 0 l 1
 340 0 l 1
 301 -53 l 1
 354 -66 387 -97 387 -136 c 0
 387 -193 336 -236 281 -236 c 0
 234 -236 198 -205 184 -168 c 1
EndSplineSet
EndChar
StartChar: uni0229
Encoding: 553 553 405
Width: 515
GlyphClass: 2
Flags: MW
HStem: -242 71<237.5 254.5 237.5 273> 207 84<149 376 149 484 148 376> 389 105<225.5 296.5>
VStem: 28 120<207 207 207 305.5> 279 73<-150 -134.5>
LayerCount: 2
Back
Fore
SplineSet
488 242 m 0
 488 226 484 207 484 207 c 1
 148 207 l 1
 155 144 195 100 268 100 c 0
 321 100 356 110 391 146 c 1
 470 77 l 1
 422 26 369 2 306 -4 c 1
 266 -60 l 1
 318 -72 352 -103 352 -142 c 0
 352 -199 300 -242 246 -242 c 0
 199 -242 163 -211 149 -174 c 1
 214 -145 l 1
 218 -158 229 -171 246 -171 c 0
 263 -171 279 -159 279 -141 c 0
 279 -128 266 -118 243 -111 c 2
 173 -91 l 1
 225 -3 l 1
 93 16 28 123 28 241 c 0
 28 370 103 494 260 494 c 0
 436 494 488 368 488 242 c 0
149 291 m 1
 376 291 l 1
 368 359 333 389 260 389 c 0
 191 389 157 353 149 291 c 1
EndSplineSet
EndChar
StartChar: uni022A
Encoding: 554 554 406
Width: 747
GlyphClass: 2
Flags: MW
HStem: -10 110<301 449 301 489> 590 110<301 449> 768 131<218 338 218 338 412 532 218 412> 989 70<199 551 199 551>
VStem: 42 131<280 410 280 439> 218 120<768 899 768 899> 412 120<768 899 768 899> 577 131<280 410>
LayerCount: 2
Back
Fore
SplineSet
199 1059 m 1
 551 1059 l 1
 551 989 l 1
 199 989 l 1
 199 1059 l 1
412 899 m 1
 532 899 l 1
 532 768 l 1
 412 768 l 1
 412 899 l 1
218 899 m 1
 338 899 l 1
 338 768 l 1
 218 768 l 1
 218 899 l 1
173 345 m 0
 173 215 227 100 375 100 c 0
 523 100 577 215 577 345 c 0
 577 475 523 590 375 590 c 0
 227 590 173 475 173 345 c 0
42 345 m 0
 42 533 147 700 375 700 c 0
 603 700 708 533 708 345 c 0
 708 157 603 -10 375 -10 c 0
 147 -10 42 157 42 345 c 0
EndSplineSet
EndChar
StartChar: uni022B
Encoding: 555 555 407
Width: 570
GlyphClass: 2
Flags: MW
HStem: -10 103<240 330 240 360.5> 391 103<240 330> 562 131<128 248 128 248 322 442 128 322> 783 70<109 461 109 461>
VStem: 30 129<202 282 202 311> 128 120<562 693 562 693> 322 120<562 693 562 693> 411 129<202 282>
LayerCount: 2
Back
Fore
SplineSet
109 853 m 1x10
 461 853 l 1
 461 783 l 1
 109 783 l 1
 109 853 l 1x10
322 693 m 1x26
 442 693 l 1
 442 562 l 1
 322 562 l 1
 322 693 l 1x26
128 693 m 1
 248 693 l 1
 248 562 l 1
 128 562 l 1
 128 693 l 1
285 93 m 0xc9
 375 93 411 162 411 242 c 0
 411 322 375 391 285 391 c 0
 195 391 159 322 159 242 c 0
 159 162 195 93 285 93 c 0xc9
285 494 m 0
 436 494 540 380 540 242 c 0
 540 104 436 -10 285 -10 c 0
 134 -10 30 104 30 242 c 0
 30 380 134 494 285 494 c 0
EndSplineSet
EndChar
StartChar: uni022C
Encoding: 556 556 408
Width: 747
GlyphClass: 2
Flags: MW
HStem: -10 110<301 449 301 489> 590 110<301 449> 770 84<436 466 436 491> 820 83<286 325> 993 70<201 554 201 554>
VStem: 42 131<280 410 280 439> 176 83 486 87 577 131<280 410>
LayerCount: 2
Back
Fore
SplineSet
201 1063 m 1x08
 554 1063 l 1
 554 993 l 1
 201 993 l 1
 201 1063 l 1x08
574 888 m 2x23
 574 816 530 770 452 770 c 0x23
 360 770 354 820 296 820 c 0
 276 820 260 812 260 794 c 2
 260 783 l 1
 176 783 l 1
 176 795 l 2
 176 854 213 903 288 903 c 0x13
 393 903 418 854 454 854 c 0
 478 854 486 863 486 891 c 2
 486 900 l 1
 574 900 l 1
 574 888 l 2x23
173 345 m 0xc480
 173 215 227 100 375 100 c 0
 523 100 577 215 577 345 c 0
 577 475 523 590 375 590 c 0
 227 590 173 475 173 345 c 0xc480
42 345 m 0
 42 533 147 700 375 700 c 0
 603 700 708 533 708 345 c 0
 708 157 603 -10 375 -10 c 0
 147 -10 42 157 42 345 c 0
EndSplineSet
EndChar
StartChar: uni022F
Encoding: 559 559 411
Width: 570
GlyphClass: 2
Flags: MW
HStem: -10 103<240 330 240 360.5> 391 103<240 330> 564 155<262.5 305.5 262.5 306>
VStem: 30 129<202 282 202 311> 208 155 411 129<202 282>
CounterMasks: 1 1c
LayerCount: 2
Back
Fore
SplineSet
284 564 m 0
 241 564 208 599 208 642 c 0
 208 685 241 719 284 719 c 0
 327 719 362 685 362 642 c 0
 362 599 328 564 284 564 c 0
285 93 m 0
 375 93 411 162 411 242 c 0
 411 322 375 391 285 391 c 0
 195 391 159 322 159 242 c 0
 159 162 195 93 285 93 c 0
285 494 m 0
 436 494 540 380 540 242 c 0
 540 104 436 -10 285 -10 c 0
 134 -10 30 104 30 242 c 0
 30 380 134 494 285 494 c 0
EndSplineSet
EndChar
StartChar: uni0230
Encoding: 560 560 412
Width: 747
GlyphClass: 2
Flags: MW
HStem: -10 110<301 449 301 489> 590 110<301 449> 770 155<352.5 395.5 352.5 396> 1015 70<198 551 198 551>
VStem: 42 131<280 410 280 439> 298 155 577 131<280 410>
CounterMasks: 1 0e
LayerCount: 2
Back
Fore
SplineSet
198 1085 m 1
 551 1085 l 1
 551 1015 l 1
 198 1015 l 1
 198 1085 l 1
374 770 m 0
 331 770 298 805 298 848 c 0
 298 891 331 925 374 925 c 0
 417 925 452 891 452 848 c 0
 452 805 418 770 374 770 c 0
173 345 m 0
 173 215 227 100 375 100 c 0
 523 100 577 215 577 345 c 0
 577 475 523 590 375 590 c 0
 227 590 173 475 173 345 c 0
42 345 m 0
 42 533 147 700 375 700 c 0
 603 700 708 533 708 345 c 0
 708 157 603 -10 375 -10 c 0
 147 -10 42 157 42 345 c 0
EndSplineSet
EndChar
StartChar: uni0231
Encoding: 561 561 413
Width: 570
GlyphClass: 2
Flags: MW
HStem: -10 103<240 330 240 360.5> 391 103<240 330> 564 155<262.5 305.5 262.5 306> 809 70<108 461 108 461>
VStem: 30 129<202 282 202 311> 208 155 411 129<202 282>
CounterMasks: 1 0e
LayerCount: 2
Back
Fore
SplineSet
108 879 m 1
 461 879 l 1
 461 809 l 1
 108 809 l 1
 108 879 l 1
284 564 m 0
 241 564 208 599 208 642 c 0
 208 685 241 719 284 719 c 0
 327 719 362 685 362 642 c 0
 362 599 328 564 284 564 c 0
285 93 m 0
 375 93 411 162 411 242 c 0
 411 322 375 391 285 391 c 0
 195 391 159 322 159 242 c 0
 159 162 195 93 285 93 c 0
285 494 m 0
 436 494 540 380 540 242 c 0
 540 104 436 -10 285 -10 c 0
 134 -10 30 104 30 242 c 0
 30 380 134 494 285 494 c 0
EndSplineSet
EndChar
StartChar: uni0232
Encoding: 562 562 414
Width: 630
GlyphClass: 2
Flags: MW
HStem: 0 21G<254 376 254 254> 670 20G<-28 118 118 118 512 657 657 657> 790 70<138 491 138 491>
VStem: 254 122<0 269 0 269>
LayerCount: 2
Back
Fore
SplineSet
138 860 m 1
 491 860 l 1
 491 790 l 1
 138 790 l 1
 138 860 l 1
118 690 m 1
 315 382 l 1
 512 690 l 1
 657 690 l 1
 376 269 l 1
 376 0 l 1
 254 0 l 1
 254 269 l 1
 -28 690 l 1
 118 690 l 1
EndSplineSet
EndChar
